<svg width="196" height="76" viewBox="0 0 196 76" fill="none" xmlns="http://www.w3.org/2000/svg">
<path d="M16.3494 21.4365C16.9694 21.4365 17.5708 21.5264 18.135 21.7031C20.2745 19.3058 22.645 17.1253 25.2123 15.1931C24.9484 14.0892 25 12.9335 25.3611 11.8575C22.4654 9.7822 19.3317 8.06083 16.027 6.7301C12.912 8.6567 10.195 11.1622 8.0228 14.1112C9.6317 16.9632 11.5444 19.6199 13.7206 22.0379C14.5142 21.6535 15.4039 21.4365 16.3494 21.4365ZM10.2796 27.5032C10.2796 26.6507 10.4594 25.8385 10.7725 25.1069C8.82131 22.9625 7.063 20.6503 5.518 18.197C3.51693 22.1691 2.47634 26.5555 2.48 31.0031C2.47465 36.1385 3.86206 41.1792 6.4945 45.5886C7.39489 40.5461 9.08998 35.6785 11.5165 31.1674C10.7135 30.1147 10.2788 28.8272 10.2796 27.5032ZM31.1116 7.7159C32.7143 7.7159 34.1651 8.339 35.2532 9.3558C38.4546 7.97392 41.7962 6.94284 45.2197 6.2806C40.8966 3.78514 35.9917 2.47417 31 2.48C27.5736 2.47786 24.175 3.0954 20.9684 4.3028C23.4372 5.52218 25.7985 6.94809 28.0271 8.5653C28.9323 8.0259 29.9832 7.7159 31.1116 7.7159ZM40.1822 36.2948C40.5552 35.511 41.0935 34.8172 41.7601 34.2612C39.9852 28.8103 37.1724 23.7543 33.4769 19.3719C32.5208 19.7765 31.4768 19.9288 30.4449 19.8143C29.4131 19.6998 28.4279 19.3222 27.5838 18.7178C25.3852 20.3878 23.3469 22.259 21.4954 24.3071C21.9616 25.0452 22.2606 25.8764 22.3715 26.7424C22.4823 27.6083 22.4023 28.488 22.1371 29.3198C27.563 32.9494 33.7257 35.3315 40.1822 36.2948ZM48.0531 44.4881C48.2796 47.6734 48.1955 50.8733 47.802 54.0423C52.6984 50.4706 56.332 45.4342 58.1777 39.6614C55.954 40.2002 53.6945 40.5783 51.4166 40.7929C51.1503 41.6123 50.7127 42.3655 50.1327 43.0027C49.5528 43.6398 48.8439 44.1462 48.0531 44.4881ZM38.7624 40.3744C31.8653 39.2255 25.2982 36.5987 19.5114 32.674C18.1932 33.4846 16.6147 33.7597 15.1001 33.4428C12.3148 38.7159 10.6285 44.4994 10.1432 50.4432C12.8761 53.3821 16.1983 55.7113 19.8927 57.2787C24.5758 50.0733 31.0873 44.2399 38.7624 40.3744ZM50.1456 9.8611C45.6699 10.2988 41.287 11.4152 37.1473 13.1719C37.2607 14.297 37.0555 15.4314 36.5552 16.4455C40.6617 21.2615 43.7882 26.8332 45.7591 32.8476C46.9339 32.8688 48.0773 33.2299 49.0511 33.8874C50.0249 34.5448 50.7873 35.4704 51.2461 36.5521C53.9927 36.2731 56.6649 35.7461 59.2379 34.9897C59.8959 30.3769 59.4109 25.673 57.8255 21.2915C56.2401 16.91 53.6029 12.9849 50.1456 9.8611ZM41.8159 43.6139C34.6665 46.9615 28.5415 52.1586 24.0746 58.6675C26.3394 59.2345 28.6653 59.5208 31 59.52C35.1579 59.5236 39.266 58.6146 43.0342 56.8571C43.6232 53.9803 43.9332 51.0074 43.9332 47.9632C43.9332 46.8627 43.8836 45.7715 43.7999 44.6927C43.0759 44.4628 42.4025 44.0966 41.8159 43.6139Z" fill="#FFA93D"/>
<g filter="url(#filter0_d_2_412)">
<path d="M107.908 26.818C108.304 27.786 107.908 29.37 107.072 30.03C106.962 30.118 106.874 30.228 106.764 30.338C106.588 30.492 106.39 30.47 106.214 30.36C106.17 29.964 106.852 29.964 106.632 29.48L106.104 29.546C106.126 29.37 106.126 29.194 106.148 28.908L105.466 29.832C105.422 29.392 105.642 29.15 105.884 28.93C106.412 28.402 106.544 27.588 106.17 26.862C106.148 26.796 106.082 26.73 106.038 26.664C105.994 26.62 105.928 26.598 105.862 26.532C105.818 26.576 105.774 26.642 105.686 26.752C104.74 26.334 103.794 26.752 102.826 26.906C102.276 26.994 101.748 27.258 101.22 27.478C100.208 27.896 99.196 28.336 98.206 28.776L97.656 29.062L97.326 30.866C96.82 33.858 96.314 36.85 95.786 39.842C95.324 42.438 94.84 45.012 94.334 47.586C94.202 48.312 93.982 49.038 93.828 49.764C93.74 50.182 93.674 50.622 93.63 51.04C93.476 52.426 93.168 53.768 92.794 55.11C92.772 55.242 92.728 55.352 92.728 55.484C92.53 57.618 91.936 59.686 91.408 61.776C91.342 62.018 91.144 62.26 91.32 62.546C91.32 62.568 91.254 62.634 91.232 62.678C91.144 62.92 90.968 63.184 91.012 63.404C91.1 64.372 90.726 65.23 90.462 66.11C90.374 66.418 90.22 66.704 89.978 66.99C89.978 66.88 89.956 66.792 89.978 66.704C90.132 66.132 90.418 65.604 90.374 65.01L90.11 65.516L89.472 66.704C89.318 66.946 89.076 67.1 88.812 67.232C88.35 67.452 87.91 67.716 87.404 68.002V67.012C87.712 66.792 88.064 66.638 88.262 66.374C88.504 66.044 88.68 65.604 88.79 65.208C89.252 63.272 89.736 61.336 90.132 59.4C91.078 54.626 92.024 49.874 92.948 45.1C93.476 42.328 93.938 39.556 94.466 36.806C94.62 35.97 94.884 35.156 95.06 34.342C95.236 33.528 95.346 32.736 95.478 31.922L95.742 30.756C95.808 30.514 95.852 30.25 95.918 29.854L94.862 30.382C90.506 32.648 86.7 35.596 83.466 39.27C82.564 40.326 81.75 41.448 80.892 42.548C80.76 42.724 80.65 42.988 80.628 43.208C80.584 43.582 80.32 43.78 80.078 44C79.836 44.22 79.55 44.308 79.22 44.11C79.154 44.088 79.022 44.132 78.934 44.154C78.736 43.89 78.736 43.89 78.78 43.516L78.538 43.582C78.516 43.516 78.472 43.45 78.494 43.406C78.582 43.164 78.604 42.966 78.362 42.79C78.318 42.768 78.274 42.746 78.274 42.702C78.252 42.548 78.208 42.394 78.23 42.24C78.318 41.822 78.054 41.426 78.318 40.986C78.912 40.018 79.418 39.028 79.968 38.06C79.99 37.994 80.056 37.884 80.1 37.862C80.584 37.708 80.584 37.29 80.694 36.894C80.76 36.652 80.826 36.388 80.958 36.146C84.61 29.7 88.482 23.386 92.86 17.402C93.388 16.698 93.894 15.95 94.598 15.378C94.818 15.202 95.016 15.026 95.368 14.938C95.676 14.872 95.94 14.52 96.204 14.278C96.38 14.146 96.556 13.992 96.732 13.882C97.04 13.662 97.348 13.662 97.656 13.882C97.898 14.08 98.162 14.278 98.426 14.476C99.02 14.916 99.174 15.576 99.174 16.28C99.13 17.248 99.064 18.216 98.998 19.184C98.822 21.494 98.47 23.782 98.052 26.07C97.964 26.51 97.92 26.972 97.854 27.5C98.426 27.324 98.976 27.192 99.482 26.994C100.494 26.576 101.528 26.202 102.496 25.696C103.376 25.256 104.322 25.234 105.246 25.124C106.192 25.014 107.556 25.96 107.908 26.818ZM97.656 16.786C97.7 16.258 97.678 15.73 97.436 15.18C96.974 15.554 96.512 15.84 96.16 16.214C95.632 16.764 95.17 17.358 94.708 17.952C93.124 19.998 91.54 22.044 89.978 24.09C89.472 24.728 89.01 25.388 88.724 26.202C88.064 27.94 87.162 29.568 86.172 31.13C86.084 31.24 85.974 31.328 85.842 31.482C85.578 30.91 85.996 30.58 86.128 30.206C86.304 29.766 86.612 29.37 86.766 28.93C86.898 28.512 87.404 28.292 87.316 27.786C87.008 28.468 86.26 28.776 86.062 29.59C85.886 30.272 85.38 30.866 85.05 31.504C84.566 32.384 83.972 33.22 83.796 34.232C83.862 34.254 83.928 34.254 84.016 34.298C83.598 35.178 83.158 36.08 82.718 36.96C82.586 37.246 82.52 37.51 82.608 37.84L82.85 37.598C83.4 36.916 83.95 36.256 84.5 35.596C84.698 35.376 84.918 35.178 85.072 34.936C85.688 34.1 86.458 33.462 87.404 33.044C87.558 32.978 87.734 32.868 87.844 32.736C88.108 32.384 88.46 32.164 88.79 31.922C89.208 31.636 89.582 31.328 89.978 31.042C90.242 30.866 90.484 30.69 90.77 30.558C91.122 30.36 91.474 30.206 91.848 30.03C92.046 29.986 92.266 30.008 92.442 29.92C93.608 29.392 94.752 28.842 95.918 28.292C96.094 28.204 96.138 28.05 96.028 27.874C95.038 28.38 94.07 28.886 93.08 29.37C92.684 29.568 92.266 29.722 91.848 29.876C92.002 29.766 92.156 29.612 92.332 29.502C92.728 29.26 93.146 29.04 93.586 28.82L96.204 27.478C96.27 27.126 96.468 26.752 96.402 26.4C96.314 25.806 96.446 25.256 96.534 24.684C96.798 22.748 97.084 20.812 97.37 18.854L97.656 16.786ZM95.016 15.62C94.884 15.84 94.796 15.994 94.73 16.126C94.774 16.17 94.774 16.192 94.796 16.214C94.796 16.214 94.818 16.214 94.84 16.192C94.95 16.06 95.126 15.95 95.016 15.62ZM106.258 28.732C106.5 28.644 106.588 28.468 106.544 28.226C106.456 28.402 106.346 28.556 106.258 28.732ZM92.75 53.24C92.75 53.086 92.816 52.932 92.86 52.69C92.75 52.558 92.662 52.426 92.53 52.228L91.98 55.132C92.156 54.846 92.2 54.472 92.398 54.296C92.75 53.988 92.728 53.636 92.75 53.24ZM90.396 64.966C90.528 64.768 90.682 64.57 90.55 64.24C90.462 64.482 90.418 64.636 90.374 64.812C90.352 64.878 90.374 64.922 90.396 64.966ZM119.027 17.27C119.819 17.248 120.303 17.82 120.061 18.568C119.665 19.866 119.027 21.054 118.367 22.22C117.399 23.914 116.387 25.586 115.221 27.17C115.155 27.258 115.089 27.368 115.045 27.478C114.143 29.59 113.329 31.746 112.647 33.946C112.647 33.968 112.647 34.012 112.625 34.1C112.867 34.364 113.109 34.65 113.351 34.936C113.109 35.838 112.691 36.608 112.141 37.29C111.811 37.708 111.481 37.752 110.997 37.51C110.953 37.488 110.887 37.422 110.843 37.444C110.645 37.488 110.469 37.422 110.381 37.268C110.293 37.092 110.249 36.894 110.271 36.696C110.337 36.168 110.381 35.618 110.535 35.112C110.733 34.43 110.997 33.748 111.217 33.088C111.305 32.846 111.371 32.626 111.371 32.34C111.239 32.472 111.107 32.604 110.997 32.736C109.721 34.188 108.423 35.574 106.905 36.762C106.355 37.202 105.761 37.576 105.101 37.818C104.441 38.082 103.847 37.84 103.275 37.576C102.923 37.4 102.835 37.07 102.857 36.652C102.945 35.486 103.451 34.474 104.089 33.528C105.541 31.394 107.411 29.766 109.809 28.732C110.557 28.424 111.349 28.204 112.207 28.248C112.801 27.39 113.505 26.62 113.901 25.652C114.385 24.508 114.935 23.386 115.485 22.286C115.771 21.714 116.101 21.164 116.453 20.636C116.585 20.416 116.849 20.328 116.981 20.042C117.333 19.36 117.751 18.722 118.015 17.996C118.191 17.49 118.411 17.27 118.873 16.918L119.027 17.27ZM104.859 35.728C106.971 34.386 108.555 32.626 110.073 30.822C108.467 31.394 105.783 33.726 104.859 35.728ZM109.391 32.538C110.337 31.504 110.381 31.46 110.425 31.02C109.523 31.9 108.753 32.802 108.049 33.77L108.159 33.88C108.577 33.44 108.973 32.978 109.391 32.538ZM105.805 32.736L105.695 33.11C105.783 33.044 106.003 33.022 105.805 32.736ZM105.651 33.154C105.541 33.176 105.409 33.154 105.519 33.374C105.563 33.286 105.607 33.242 105.651 33.154ZM104.925 34.1C104.903 34.078 104.859 34.078 104.837 34.056C104.793 34.144 104.771 34.21 104.749 34.298L104.925 34.1ZM104.507 34.892L104.683 34.386C104.507 34.474 104.463 34.65 104.397 34.826L104.507 34.892ZM104.221 35.376C104.265 35.376 104.287 35.354 104.309 35.354L104.243 35.134C104.221 35.156 104.177 35.156 104.155 35.178L104.221 35.376ZM123.562 28.138C123.342 28.314 123.144 28.16 122.946 27.83C122.836 27.83 122.726 27.896 122.682 27.852C122.594 27.83 122.506 27.698 122.528 27.61C122.55 27.192 122.66 26.774 123.012 26.488C123.342 26.532 123.496 26.73 123.584 27.082C123.716 26.84 123.87 26.752 124.112 26.862C124.156 27.06 124.266 27.258 124.178 27.478C124.024 27.764 123.782 27.962 123.562 28.138ZM121.494 38.082C120.68 38.544 119.8 38.28 119.492 37.4C119.25 36.762 119.316 36.102 119.36 35.442C119.492 33.924 120.152 32.582 120.878 31.262C121.032 30.976 121.142 30.69 121.296 30.404C121.45 30.074 121.67 29.744 121.956 29.48C122.044 29.568 122.374 29.656 122.484 29.744C122.264 29.942 122.044 30.096 121.758 30.338L122 30.492C122.088 30.404 122.176 30.316 122.242 30.228C122.33 30.096 122.528 30.272 122.572 30.096C122.638 29.964 122.748 29.898 122.88 29.964C123.012 30.36 122.99 30.47 122.726 30.712C122.616 30.822 122.528 30.932 122.44 31.086C122.286 31.328 122.154 31.614 121.978 31.878L121.89 31.636C121.582 32.274 121.274 32.824 121.032 33.44C120.944 33.638 120.988 33.902 120.988 34.144C120.988 34.232 121.01 34.342 120.988 34.408C120.812 34.804 120.812 35.222 120.768 35.64C120.702 36.168 120.768 36.696 120.922 37.224C120.922 37.29 120.966 37.356 121.01 37.422C121.318 37.4 121.516 37.29 121.648 37.048C121.582 37.004 121.516 37.004 121.516 37.004L122.176 36.432C122.33 36.586 121.978 36.652 121.956 36.872C122.198 36.938 122.484 36.938 122.792 36.916C122.638 37.092 122.55 37.268 122.44 37.378C122.176 37.598 121.89 37.774 121.648 37.972C121.582 38.016 121.538 38.06 121.494 38.082ZM155.141 15.774C155.493 16.28 155.427 16.808 155.185 17.314C154.833 18.062 154.327 18.7 153.579 19.118C153.029 18.942 153.029 18.942 153.007 18.348C152.941 18.326 152.875 18.326 152.743 18.282C152.831 17.578 153.425 17.182 153.755 16.544C153.447 16.456 153.183 16.368 152.919 16.302C151.511 16.06 150.103 16.126 148.717 16.346C147.133 16.61 145.549 16.94 143.987 17.248C143.811 17.27 143.657 17.27 143.393 17.314L143.811 16.962C143.327 16.896 142.975 17.006 142.733 17.358C142.667 17.446 142.689 17.622 142.491 17.534C142.315 17.886 141.919 17.688 141.655 17.93C141.413 18.15 141.039 18.216 140.709 18.326C139.587 18.766 138.465 19.184 137.365 19.668C136.287 20.13 135.209 20.68 134.131 21.208C134.131 21.164 134.087 21.098 134.043 21.01C132.921 21.714 131.755 22.33 130.919 23.408C131.271 23.386 131.381 23.012 131.799 22.88C131.183 23.606 130.523 24.178 130.303 25.036C130.787 25.96 133.735 28.028 135.407 28.578C135.407 28.512 135.407 28.446 135.429 28.358C135.605 28.424 135.825 28.446 136.045 28.534C138.003 29.304 139.961 30.074 141.919 30.866C142.095 30.932 142.293 31.02 142.469 31.13C143.525 31.724 144.691 32.076 145.681 32.802C146.473 32.956 147.067 33.506 147.705 33.946C149.201 34.98 150.103 36.432 150.543 38.17C150.653 38.61 150.653 39.116 150.609 39.578C150.499 41.206 149.619 42.46 148.453 43.56C147.111 44.858 145.593 45.892 143.965 46.816C140.797 48.642 137.387 49.896 133.867 50.798C132.723 51.084 131.557 51.304 130.413 51.546C130.303 51.59 130.171 51.612 130.061 51.59C129.269 51.524 128.543 51.788 127.795 51.898C127.113 51.986 126.409 52.03 125.705 52.096C125.485 52.118 125.265 52.096 125.045 52.118C122.757 52.36 120.491 52.162 118.291 51.546C117.851 51.436 117.411 51.282 117.037 51.04C116.553 50.732 116.135 50.336 115.717 49.94C115.475 49.698 115.277 49.39 115.057 49.104C115.431 48.488 115.079 47.916 114.991 47.234C115.365 46.464 115.915 45.716 116.553 45.034C117.851 43.626 119.237 42.306 120.843 41.228C122.317 40.26 123.813 39.358 125.441 38.72C126.167 38.434 126.893 38.214 127.663 38.148C127.839 38.126 127.839 38.126 128.059 38.346C128.719 38.28 129.401 38.192 130.105 38.148C130.413 38.126 130.743 37.994 131.051 38.258C131.073 38.302 131.183 38.28 131.271 38.258C131.513 38.17 131.579 38.324 131.689 38.544C131.513 38.544 131.381 38.522 131.161 38.522C131.293 38.83 131.403 39.138 131.535 39.424C131.469 39.71 131.293 39.82 131.007 39.798C129.203 39.732 127.465 40.04 125.749 40.59C125.023 40.81 124.275 41.03 123.659 41.558C123.549 41.646 123.373 41.69 123.219 41.756C123.219 41.756 123.219 41.734 123.241 41.734C123.065 41.844 122.911 41.976 122.757 42.086C120.491 43.45 118.555 45.166 117.037 47.322C116.949 47.432 116.861 47.542 116.795 47.674C116.443 48.29 116.531 48.664 117.147 49.016C117.917 49.456 118.753 49.742 119.633 49.918C121.129 50.204 122.647 50.314 124.165 50.292C124.671 50.292 125.177 50.204 125.727 50.292C125.507 50.358 125.309 50.402 125.045 50.49L125.331 50.556C125.331 50.578 125.353 50.6 125.353 50.644C124.627 50.732 123.901 50.842 123.065 50.974L123.725 51.084L121.723 51.392C122.141 51.524 123.439 51.634 123.637 51.48C124.275 50.908 125.089 51.15 125.859 50.974C125.881 50.908 125.881 50.82 125.881 50.71C126.145 50.6 126.409 50.49 126.739 50.336C126.563 50.248 126.431 50.204 126.211 50.094C127.289 49.962 128.279 49.874 129.247 49.72C130.721 49.456 132.173 49.214 133.625 48.862C137.321 47.96 140.885 46.684 144.185 44.726C145.527 43.934 146.781 43.01 147.793 41.822C148.387 41.14 148.805 40.37 148.959 39.468C149.135 38.434 148.849 37.554 148.123 36.806C147.221 35.86 146.099 35.178 144.955 34.562C144.053 34.078 143.107 33.66 142.161 33.22C141.215 32.802 140.269 32.406 139.323 32.01C139.367 31.966 139.389 31.9 139.455 31.79C139.235 31.724 139.037 31.636 138.817 31.592C137.937 31.328 137.013 31.13 136.155 30.822C135.077 30.426 134.021 29.942 132.965 29.48C132.129 29.106 131.359 28.6 130.655 28.028C130.479 27.874 130.303 27.764 130.127 27.61C129.819 27.368 129.489 27.148 129.423 26.708C129.203 26.378 128.939 26.048 128.763 25.674C128.455 25.058 128.499 24.42 128.807 23.826C129.357 22.704 130.259 21.956 131.271 21.274C131.381 21.208 131.535 21.164 131.667 21.164C131.953 21.208 132.085 21.032 132.217 20.878C132.173 20.768 132.129 20.68 132.041 20.548C132.701 20.13 133.317 19.712 133.977 19.338C136.969 17.644 140.181 16.456 143.481 15.51C143.635 15.466 143.789 15.466 143.965 15.444C144.009 15.532 144.031 15.62 144.075 15.686C143.855 15.642 143.679 15.686 143.569 15.928C143.789 15.928 143.987 15.928 144.075 15.686C144.273 15.796 144.449 15.774 144.603 15.576C145.131 15.51 145.659 15.356 146.187 15.29C146.935 15.202 147.683 14.872 148.475 15.048C148.849 15.136 149.289 14.982 149.685 14.916C149.619 14.432 149.201 14.696 148.915 14.476C150.147 14.388 151.313 14.256 152.479 14.256C153.073 14.234 153.667 14.41 154.239 14.586C154.657 14.696 155.009 14.982 155.031 15.488C155.031 15.598 155.075 15.686 155.141 15.774ZM150.477 15.048C151.423 15.07 152.347 15.114 153.425 15.158C152.369 14.828 151.445 14.96 150.477 15.048ZM142.865 16.522H143.305C143.195 16.412 143.129 16.324 143.085 16.324C142.997 16.324 142.931 16.39 142.843 16.434C142.843 16.456 142.865 16.478 142.865 16.522ZM129.445 26.708L129.687 26.84C129.665 26.708 129.687 26.62 129.643 26.51C129.621 26.444 129.555 26.4 129.445 26.268V26.708ZM150.389 38.06C150.213 38.676 150.213 38.676 150.389 38.874V38.06ZM124.671 39.996C123.219 40.656 121.921 41.536 120.689 42.548C120.777 42.57 120.843 42.526 120.909 42.504C121.679 42.196 122.405 41.822 123.241 41.734C123.373 41.58 123.483 41.426 123.637 41.338C124.407 40.854 125.177 40.392 125.969 39.93C125.991 39.798 126.035 39.666 126.101 39.424C125.573 39.644 125.111 39.798 124.671 39.996ZM116.773 45.716C116.421 45.892 116.201 46.178 116.135 46.574L116.773 45.716ZM159 37.334C157.658 37.73 156.778 36.652 156.69 35.772C156.668 35.442 156.69 35.09 156.756 34.782C157.02 33.55 157.482 32.406 158.296 31.438C158.692 30.976 159.022 30.492 159.44 30.052C159.704 29.788 160.056 29.546 160.386 29.37C160.65 29.216 160.826 29.04 160.958 28.776C161.244 28.138 161.86 27.94 162.454 27.874C162.828 27.808 163.048 28.138 163.158 28.38C163.422 28.534 163.642 28.6 163.73 28.732C163.884 28.996 164.082 29.326 163.928 29.634C163.752 29.986 163.84 30.272 163.906 30.624C164.126 31.46 164.17 32.318 164.082 33.176C164.016 33.88 163.708 34.474 163.356 35.068C162.894 35.86 162.19 36.542 161.376 37.004C160.826 36.872 160.298 36.828 159.77 37.048C159.528 37.158 159.264 37.268 159 37.334ZM157.68 33.968C158.032 33.352 158.582 32.934 159.132 32.516C159.506 32.23 159.858 31.944 160.122 31.526C160.298 31.262 160.562 31.064 160.804 30.844C161.046 30.624 161.31 30.404 161.552 30.162C161.75 29.964 161.926 29.722 162.146 29.436L161.97 29.194C161.64 29.414 161.332 29.612 161.024 29.832C160.232 30.36 159.704 31.174 158.956 31.79C158.296 32.34 158.032 33.198 157.68 33.968ZM159.176 36.476C159.462 36.41 159.726 36.3 160.034 36.256C160.606 36.146 161.046 35.838 161.398 35.376C161.794 34.848 162.344 34.452 162.608 33.836C162.63 33.792 162.762 33.814 162.872 33.814C163.268 33.286 163.158 32.626 163.114 31.9C162.938 32.406 162.784 32.846 162.652 33.286C162.938 32.164 162.872 31.086 162.454 29.898L162.366 30.316C162.322 30.25 162.278 30.184 162.256 30.118H162.146C161.354 30.624 160.65 31.306 159.968 31.988C159.44 32.494 159.088 33.11 158.714 33.726C158.318 34.342 158.098 35.046 158.274 35.838C158.648 35.904 159 35.948 159.352 36.014C159.352 36.036 159.352 36.058 159.33 36.08H158.362C158.56 36.454 158.802 36.586 159.176 36.476ZM169.652 39.138C168.816 39.028 168.42 38.544 168.244 37.818C168.09 37.18 167.936 36.542 167.65 35.948C167.562 35.75 167.562 35.53 167.32 35.398C167.254 35.376 167.232 35.288 167.21 35.2C166.99 34.342 167.078 33.506 167.496 32.714C167.562 32.582 167.672 32.494 167.716 32.362C168.156 31.372 168.948 30.822 169.894 30.382C170.092 30.294 170.334 30.206 170.532 30.096C170.752 29.964 170.95 29.788 171.236 29.92C171.302 29.942 171.434 29.876 171.522 29.832C171.874 29.7 172.226 29.568 172.578 29.414C172.71 29.37 172.842 29.282 172.908 29.172C173.084 28.93 173.106 28.644 173.348 28.402C173.568 28.204 173.612 27.83 173.722 27.522C173.898 27.104 174.03 26.664 174.228 26.246C175.218 24.09 176.274 21.956 177.55 19.932C178.122 19.052 178.628 18.106 179.244 17.248C179.816 16.456 180.476 15.73 181.136 15.004C181.73 14.366 182.456 13.948 183.358 13.838C183.82 13.794 184.26 13.684 184.7 13.86C184.832 13.926 184.986 13.97 185.074 14.058C185.404 14.432 185.756 14.784 186.02 15.18C186.174 15.4 186.24 15.708 186.262 15.972C186.372 17.006 186.064 17.952 185.668 18.876C185.074 20.218 184.326 21.472 183.468 22.66C183.248 22.946 182.984 23.188 182.764 23.474C181.686 24.838 180.52 26.114 179.178 27.236C179.068 27.302 178.98 27.39 178.892 27.456C178.87 27.478 178.826 27.478 178.804 27.478L178.738 26.95C179.354 26.29 180.036 25.608 180.674 24.904C181.07 24.464 181.378 23.936 181.774 23.386C181.202 23.584 181.004 24.024 180.762 24.354C180.014 25.322 179.112 26.136 178.232 26.994C178.078 27.148 177.902 27.06 177.704 27.148C177.638 26.994 177.594 26.84 177.506 26.642H177.814L177.88 25.916C178.298 25.52 178.782 25.124 179.222 24.662C180.124 23.76 181.048 22.858 181.884 21.89C183.006 20.592 183.776 19.074 184.436 17.512C184.722 16.852 184.722 16.17 184.59 15.466C184.128 15.334 183.754 15.488 183.424 15.708C182.962 16.038 182.456 16.368 182.082 16.786C181.378 17.534 180.762 18.326 180.102 19.118C179.86 19.404 179.64 19.712 179.354 20.108C179.376 19.888 179.398 19.756 179.398 19.646C178.738 20.24 175.416 26.576 175.02 27.962C175.13 28.006 175.24 28.028 175.372 28.072C175.218 28.072 175.086 28.094 174.932 28.116C174.866 28.248 174.822 28.38 174.756 28.512C174.822 28.534 174.866 28.556 174.888 28.556C175.086 28.512 175.284 28.446 175.46 28.402C176.142 28.182 176.692 28.908 176.406 29.458C176.384 29.524 176.362 29.612 176.296 29.744C176.472 29.832 176.648 29.942 176.868 30.074C176.846 30.162 176.78 30.316 176.714 30.536C176.384 30.162 176.186 29.788 175.988 29.37L175.9 29.766L175.658 29.348C175.57 29.348 175.438 29.326 175.284 29.326C175.416 29.634 175.526 29.92 175.658 30.206C175.614 30.228 175.57 30.25 175.548 30.272C175.416 30.096 175.306 29.92 175.196 29.744C174.558 29.612 174.294 29.722 173.964 30.25C173.92 30.184 173.898 30.096 173.832 29.964C173.392 30.646 173.194 31.394 172.864 32.12C172.996 32.032 173.106 31.966 173.304 31.856L173.502 32.23C172.864 33.858 172.336 35.574 171.5 37.18C171.06 38.038 170.422 38.676 169.652 39.138ZM182.038 16.082C182.302 15.95 182.5 15.73 182.72 15.554C182.962 15.356 183.204 15.18 183.468 15.004C183.138 14.916 182.918 15.114 182.72 15.29C182.478 15.532 182.148 15.708 182.038 16.082ZM181.048 17.292C181.092 17.27 181.136 17.248 181.18 17.204C181.202 17.16 181.202 17.094 181.246 16.896C181.092 17.072 181.026 17.16 180.982 17.226L181.048 17.292ZM183.578 20.328C183.952 19.822 184.238 19.316 184.48 18.656C184.018 19.14 183.578 19.932 183.578 20.328ZM179.64 19.36L179.794 19.096L179.706 19.008L179.574 19.316L179.64 19.36ZM169.63 37.07C170.026 36.498 171.786 32.164 172.204 30.756C171.632 31.064 171.126 31.328 170.62 31.614C170.598 31.614 170.62 31.68 170.62 31.702C170.73 31.702 170.84 31.724 171.016 31.724C170.51 32.142 170.048 32.494 169.608 32.868C169.41 33.044 169.19 33.242 169.036 33.462C168.684 33.968 168.574 34.518 168.882 35.09C168.992 35.266 169.014 35.464 169.08 35.662C169.256 36.102 169.432 36.542 169.63 37.07ZM183.209 38.786C183.143 38.742 183.099 38.676 183.055 38.61L182.835 38.764C182.439 38.654 182.461 38.346 182.461 38.038C182.483 37.092 182.263 36.168 181.779 35.354C181.449 34.782 181.031 34.276 180.635 33.726C180.459 33.484 180.261 33.264 180.063 33.044C179.513 32.384 179.491 31.68 179.909 30.932C179.931 30.91 179.975 30.866 179.975 30.844C180.107 30.008 180.767 29.634 181.405 29.348C182.351 28.93 183.363 28.622 184.331 28.27C184.375 28.248 184.441 28.27 184.551 28.27C184.089 28.754 183.473 28.908 183.011 29.304C183.539 29.128 184.089 28.952 184.617 28.754C184.705 28.732 184.749 28.666 184.837 28.644C185.717 28.468 186.091 27.786 186.399 27.038L186.641 26.774C186.619 26.752 186.597 26.752 186.597 26.73C186.531 26.752 186.465 26.796 186.399 26.818C186.531 26.51 186.641 26.18 186.795 25.894C187.873 23.892 188.951 21.89 190.051 19.888C190.161 19.69 190.293 19.536 190.447 19.294C190.579 19.492 190.689 19.624 190.799 19.8C190.909 19.69 191.019 19.558 191.129 19.426C191.481 19.536 191.767 19.756 191.745 20.152C191.723 20.438 191.613 20.746 191.481 20.988C191.063 21.714 190.557 22.418 190.161 23.144C189.479 24.376 188.863 25.652 188.203 26.906C188.115 27.082 188.049 27.28 187.939 27.5C188.313 27.544 188.643 27.588 188.973 27.654C189.985 27.786 190.645 28.424 191.217 29.216C191.261 29.282 191.283 29.392 191.283 29.48C191.283 29.59 191.239 29.7 191.239 29.81C191.239 29.92 191.283 30.008 191.327 30.118C191.085 30.36 190.843 30.426 190.579 30.184C190.469 30.096 190.381 30.052 190.227 30.096C190.117 30.118 189.941 29.964 189.853 29.832C189.633 29.48 189.325 29.37 188.929 29.414C188.291 29.458 187.631 29.524 186.927 29.59C186.509 30.646 186.113 31.658 185.739 32.67C185.101 34.452 184.485 36.234 184.177 38.082C184.155 38.258 184.089 38.434 184.023 38.61C183.847 39.028 183.561 39.094 183.209 38.786ZM183.363 34.694L184.815 30.25C183.341 30.492 181.735 31.284 181.339 31.966C181.999 32.868 182.681 33.77 183.363 34.694ZM180.459 32.384C180.525 32.164 180.613 31.922 180.371 31.68C180.085 31.966 180.305 32.164 180.459 32.384Z" fill="white"/>
</g>
<defs>
<filter id="filter0_d_2_412" x="74.054" y="13.662" width="121.713" height="62.34" filterUnits="userSpaceOnUse" color-interpolation-filters="sRGB">
<feFlood flood-opacity="0" result="BackgroundImageFix"/>
<feColorMatrix in="SourceAlpha" type="matrix" values="0 0 0 0 0 0 0 0 0 0 0 0 0 0 0 0 0 0 127 0" result="hardAlpha"/>
<feOffset dy="4"/>
<feGaussianBlur stdDeviation="2"/>
<feComposite in2="hardAlpha" operator="out"/>
<feColorMatrix type="matrix" values="0 0 0 0 0 0 0 0 0 0 0 0 0 0 0 0 0 0 0.25 0"/>
<feBlend mode="normal" in2="BackgroundImageFix" result="effect1_dropShadow_2_412"/>
<feBlend mode="normal" in="SourceGraphic" in2="effect1_dropShadow_2_412" result="shape"/>
</filter>
</defs>
</svg>
