<svg width="74" height="75" viewBox="0 0 74 75" fill="none" xmlns="http://www.w3.org/2000/svg">
<g filter="url(#filter0_d_2_250)">
<g filter="url(#filter1_d_2_250)">
<circle cx="36.9488" cy="33.4428" r="31.9488" fill="white"/>
</g>
<g clip-path="url(#clip0_2_250)">
<path d="M52.9978 29.884L39.4232 29.8833C38.8238 29.8833 38.3379 30.3691 38.3379 30.9685V35.305C38.3379 35.9043 38.8238 36.3903 39.4231 36.3903H47.0675C46.2304 38.5626 44.6681 40.3819 42.6748 41.5379L45.9344 47.1804C51.1631 44.1564 54.2544 38.8506 54.2544 32.911C54.2544 32.0653 54.192 31.4607 54.0674 30.78C53.9726 30.2628 53.5236 29.884 52.9978 29.884Z" fill="#167EE6"/>
<path d="M37.6143 42.9059C33.8733 42.9059 30.6075 40.8619 28.8534 37.8373L23.2111 41.0895C26.0824 46.066 31.4614 49.4172 37.6143 49.4172C40.6327 49.4172 43.4808 48.6045 45.9343 47.1882V47.1805L42.6748 41.5379C41.1838 42.4026 39.4584 42.9059 37.6143 42.9059Z" fill="#12B347"/>
<path d="M45.9344 47.1882V47.1805L42.6748 41.5378C41.1839 42.4025 39.4586 42.9059 37.6144 42.9059V49.4172C40.6328 49.4172 43.481 48.6045 45.9344 47.1882Z" fill="#014B5B"/>
<path d="M27.4857 32.7772C27.4857 30.9332 27.9889 29.2081 28.8535 27.7172L23.2111 24.465C21.787 26.9107 20.9744 29.7511 20.9744 32.7772C20.9744 35.8034 21.787 38.6437 23.2111 41.0895L28.8535 37.8373C27.9889 36.3464 27.4857 34.6212 27.4857 32.7772Z" fill="#FFD500"/>
<path d="M37.6143 22.6485C40.0539 22.6485 42.2947 23.5154 44.0449 24.9572C44.4767 25.3129 45.1043 25.2873 45.4998 24.8917L48.5724 21.8192C49.0211 21.3704 48.9891 20.6359 48.5098 20.22C45.5773 17.676 41.7618 16.1372 37.6143 16.1372C31.4614 16.1372 26.0824 19.4884 23.2111 24.4649L28.8534 27.7171C30.6075 24.6925 33.8733 22.6485 37.6143 22.6485Z" fill="#FF4B26"/>
<path d="M44.045 24.9572C44.4768 25.3129 45.1044 25.2873 45.4999 24.8917L48.5724 21.8192C49.0211 21.3704 48.9891 20.6359 48.5098 20.22C45.5773 17.6759 41.7618 16.1372 37.6144 16.1372V22.6485C40.0538 22.6485 42.2947 23.5154 44.045 24.9572Z" fill="#D93F21"/>
</g>
</g>
<defs>
<filter id="filter0_d_2_250" x="1" y="1.49402" width="71.8976" height="71.8976" filterUnits="userSpaceOnUse" color-interpolation-filters="sRGB">
<feFlood flood-opacity="0" result="BackgroundImageFix"/>
<feColorMatrix in="SourceAlpha" type="matrix" values="0 0 0 0 0 0 0 0 0 0 0 0 0 0 0 0 0 0 127 0" result="hardAlpha"/>
<feOffset dy="4"/>
<feGaussianBlur stdDeviation="2"/>
<feComposite in2="hardAlpha" operator="out"/>
<feColorMatrix type="matrix" values="0 0 0 0 0 0 0 0 0 0 0 0 0 0 0 0 0 0 0.25 0"/>
<feBlend mode="normal" in2="BackgroundImageFix" result="effect1_dropShadow_2_250"/>
<feBlend mode="normal" in="SourceGraphic" in2="effect1_dropShadow_2_250" result="shape"/>
</filter>
<filter id="filter1_d_2_250" x="0" y="0.494019" width="73.8976" height="73.8976" filterUnits="userSpaceOnUse" color-interpolation-filters="sRGB">
<feFlood flood-opacity="0" result="BackgroundImageFix"/>
<feColorMatrix in="SourceAlpha" type="matrix" values="0 0 0 0 0 0 0 0 0 0 0 0 0 0 0 0 0 0 127 0" result="hardAlpha"/>
<feOffset dy="4"/>
<feGaussianBlur stdDeviation="2.5"/>
<feComposite in2="hardAlpha" operator="out"/>
<feColorMatrix type="matrix" values="0 0 0 0 0 0 0 0 0 0 0 0 0 0 0 0 0 0 0.12 0"/>
<feBlend mode="normal" in2="BackgroundImageFix" result="effect1_dropShadow_2_250"/>
<feBlend mode="normal" in="SourceGraphic" in2="effect1_dropShadow_2_250" result="shape"/>
</filter>
<clipPath id="clip0_2_250">
<rect width="33.28" height="33.28" fill="white" transform="translate(20.9744 16.1372)"/>
</clipPath>
</defs>
</svg>

