<svg width="1040" height="603" viewBox="0 0 1040 603" fill="none" xmlns="http://www.w3.org/2000/svg">
<g clip-path="url(#clip0_2_260)" filter="url(#filter0_d_2_260)">
<path d="M205.139 78.1028C205.139 78.1028 214.845 88.0389 223.673 103.969C232.52 119.899 261.423 151.904 261.423 151.904L233.29 204.248L202.453 158.042L205.139 78.0848V78.1028Z" fill="#FFA93D"/>
<path d="M223.673 103.969C214.827 88.0389 205.139 78.1028 205.139 78.1028L203.706 120.655L213.86 151.112C213.86 151.112 221.954 131.491 234.615 119.899C230.12 114.031 226.127 108.379 223.673 103.969Z" fill="#E8A95A"/>
<path d="M178.582 18.8462C178.582 18.8462 185.566 6.94805 180.408 2.12401C175.233 -2.70004 147.906 0.197988 142.14 16.3621C139.955 25.2902 144.575 45.2884 151.756 51.6965C157.97 41.4544 178.6 18.8642 178.6 18.8642L178.582 18.8462Z" fill="#014B5B"/>
<g style="mix-blend-mode:overlay" opacity="0.5">
<path d="M180.408 2.12401C178.313 0.161988 172.583 -0.522018 166.118 0.431991C165.921 8.91008 157.934 19.6022 157.934 19.6022L175.269 22.5542C177.292 20.2682 178.6 18.8642 178.6 18.8642C178.6 18.8642 185.584 6.96606 180.426 2.14201L180.408 2.12401Z" fill="white"/>
</g>
<path opacity="0.27" d="M220.432 608.982C295.755 608.982 356.817 603.413 356.817 596.544C356.817 589.674 295.755 584.106 220.432 584.106C145.109 584.106 84.0474 589.674 84.0474 596.544C84.0474 603.413 145.109 608.982 220.432 608.982Z" fill="#2D333C"/>
<path d="M217.8 568.715V588.083C217.8 592.188 221.095 595.5 225.178 595.5H325.371C325.371 595.5 319.766 568.715 295.232 568.715H217.782H217.8Z" fill="#FFA93D"/>
<path d="M263.339 575.429C263.339 577.23 264.789 578.706 266.598 578.706H292.869C294.659 578.706 296.128 577.248 296.128 575.429C296.128 573.629 294.677 572.153 292.869 572.153H266.598C264.807 572.153 263.339 573.611 263.339 575.429Z" fill="white"/>
<path d="M218.14 247.34L223.96 285.231L262.264 394.528C265.416 403.51 267.816 412.744 269.463 422.14L295.089 568.716H218.14L196.651 413.248L164.256 324.417V235.586L218.14 247.34Z" fill="#054857"/>
<path d="M112.861 238.196V568.716H190.311L178.582 308.739C178.582 308.739 186.318 273.243 185.655 242.66C184.993 212.06 112.861 238.196 112.861 238.196Z" fill="#054857"/>
<path d="M137.77 568.716H112.861V238.196C112.861 238.196 124.107 234.128 137.77 231.086V568.716Z" fill="#054857"/>
<path d="M185.423 240.194L218.14 247.34C218.14 247.34 181.519 269.427 112.861 258.123V238.196C112.861 238.196 124.107 234.128 137.77 231.086L181.823 233.246C183.65 235.028 184.939 237.296 185.423 240.212V240.194Z" fill="#171905"/>
<path d="M117.141 78.1028C117.141 78.1028 103.764 92.1429 95.3112 109.981C86.8588 127.801 73.2131 155.9 73.2131 155.9L38.92 90.4329C36.6815 86.1669 31.4346 84.4928 27.1547 86.6889L27.083 86.7249L27.0293 86.6709C23.7164 83.6648 18.7022 83.5928 15.2998 86.5089L10.805 90.3609C3.67773 96.463 1.90487 106.831 6.63249 114.985L55.7532 199.82C65.1905 216.11 88.4525 216.542 98.4808 200.612L117.141 170.93C117.141 170.93 121.421 86.5629 117.141 78.1208V78.1028Z" fill="#FEC1B9"/>
<path d="M86.4827 128.467C89.5449 122.077 92.6966 115.543 95.329 109.981C103.781 92.1609 117.158 78.1028 117.158 78.1028C120.382 84.4748 118.734 134.101 117.749 158.06C107.202 141.715 94.6306 132.859 86.5006 128.467H86.4827Z" fill="#E8A95A"/>
<g style="mix-blend-mode:multiply" opacity="0.18">
<path d="M57.0962 201.8C61.6985 198.326 67.411 196.256 73.607 196.256C81.8446 196.256 89.2225 199.91 94.2904 205.67C83.5637 215.66 65.9426 214.256 57.0962 201.8Z" fill="#FFA93D"/>
</g>
<path d="M73.2131 155.882L81.4507 173.684" stroke="#054857" stroke-width="1.09" stroke-miterlimit="10" stroke-linecap="round"/>
<path opacity="0.49" d="M49.199 158.06C67.2141 186.176 86.823 199.28 99.2509 199.352L98.4809 200.576C88.4526 216.506 65.1905 216.092 55.7532 199.784L13.1688 126.253C20.9587 128.161 34.4073 134.947 49.199 158.042V158.06Z" fill="#054857"/>
<path d="M152.598 64.6747L117.141 78.1028L112.861 238.178C112.861 238.178 152.508 263.001 218.14 247.322C217.495 146.737 205.139 78.1028 205.139 78.1028L169.95 68.8507L152.58 64.6747H152.598Z" fill="#FFA93D"/>
<path d="M167.694 50.4725L169.95 68.8507L166.422 86.7249L150.628 68.5987L149.589 31.0143L167.694 50.4725Z" fill="#FEC1B9"/>
<path d="M169.431 64.6746C153.708 55.8185 152.831 38.7004 152.831 38.7004L157.11 39.1144L167.676 50.4725L169.431 64.6746Z" fill="#171905"/>
<path d="M142.122 35.9644C142.122 38.9344 144.521 41.3464 147.476 41.3464C150.431 41.3464 152.83 38.9344 152.83 35.9644C152.83 32.9944 150.431 30.5823 147.476 30.5823C144.521 30.5823 142.122 32.9944 142.122 35.9644Z" fill="#FEC1B9"/>
<path d="M152.598 37.5124L144.629 35.9644" stroke="#014B5B" stroke-width="0.54" stroke-miterlimit="10"/>
<path d="M189.076 73.8728L169.968 68.8507L152.598 64.6747L136.911 70.6147C141.692 81.7569 152.884 100.495 173.192 97.975C182.163 96.661 188.61 87.6609 189.058 73.8728H189.076Z" fill="#FEC1B9"/>
<path d="M174.373 13.3381C177.06 13.1581 179.423 15.1201 179.799 17.8022C181.375 28.9083 184.473 57.5826 174.248 57.5826C161.569 57.5826 150.52 41.9044 146.957 30.7983C153.171 21.4382 163.79 14.0401 174.355 13.3381H174.373Z" fill="#FEC1B9"/>
<g style="mix-blend-mode:overlay" opacity="0.5">
<path d="M174.373 13.3381C177.06 13.1581 179.423 15.1201 179.799 17.8022C181.357 28.7823 184.402 56.9345 174.588 57.5466C172.654 56.4485 170.595 55.0265 168.41 53.1725C160.352 46.2784 158.382 29.1423 157.916 19.6022C162.948 16.0741 168.661 13.7341 174.373 13.3381Z" fill="white"/>
</g>
<path d="M169.95 25.0922C169.95 25.0922 164.274 22.9322 161.641 26.3522C162.268 22.6802 162.769 21.2942 165.796 21.0422C168.822 20.7902 169.95 23.3282 169.95 25.0922Z" fill="#014B5B"/>
<path d="M177.006 23.6882C177.006 23.6882 177.615 22.1402 180.39 22.2842L179.943 18.8282C179.943 18.8282 176.863 20.3762 176.988 23.6702L177.006 23.6882Z" fill="#014B5B"/>
<path d="M165.169 31.5543C165.169 32.9583 165.742 34.0923 166.422 34.0923C167.103 34.0923 167.676 32.9583 167.676 31.5543C167.676 30.1503 167.121 29.0163 166.422 29.0163C165.724 29.0163 165.169 30.1503 165.169 31.5543Z" fill="#014B5B"/>
<path d="M177.633 31.5543C177.633 32.5983 178.062 33.4443 178.582 33.4443C179.101 33.4443 179.531 32.5983 179.531 31.5543C179.531 30.5103 179.101 29.6643 178.582 29.6643C178.062 29.6643 177.633 30.5103 177.633 31.5543Z" fill="#014B5B"/>
<path d="M176.164 35.4244L177.006 41.5624H173.192" stroke="#014B5B" stroke-width="0.54" stroke-miterlimit="10"/>
<path d="M179.531 44.8025L168.518 44.2985C168.518 44.2985 174.176 52.0205 179.531 44.8025Z" fill="white"/>
<path d="M153.994 20.3762C153.618 23.6703 153.153 33.1923 155.714 36.7384C158.131 40.0684 154.388 41.0944 152.025 41.4004C149.786 37.8184 147.351 32.3283 146.294 29.0163C148.228 26.0823 151.326 22.7702 153.994 20.3762Z" fill="#014B5B"/>
<path d="M181.411 371.47L178.582 308.739L195.737 410.746L181.411 371.47Z" fill="#171905"/>
<g style="mix-blend-mode:overlay" opacity="0.5">
<path d="M167.246 402.142C173.389 402.142 178.958 404.572 183.094 408.496L184.545 440.644C180.319 445.469 174.141 448.529 167.246 448.529C154.514 448.529 144.181 438.142 144.181 425.344C144.181 412.546 154.514 402.16 167.246 402.16V402.142Z" fill="white"/>
</g>
<g style="mix-blend-mode:multiply" opacity="0.4">
<path d="M258.593 433.93C245.861 433.93 235.528 423.544 235.528 410.746C235.528 397.948 245.861 387.562 258.593 387.562C259.005 387.562 259.417 387.598 259.847 387.634L262.264 394.528C265.416 403.51 267.816 412.744 269.463 422.14L270.896 430.348C267.332 432.616 263.124 433.948 258.593 433.948V433.93Z" fill="#054857"/>
</g>
<g style="mix-blend-mode:multiply">
<path d="M179.012 318.207L210.332 410.746L236.728 568.716" stroke="#00555E" stroke-width="1.09" stroke-miterlimit="10"/>
</g>
<path d="M112.861 568.715V585.509C112.861 591.018 117.302 595.5 122.8 595.5H220.45C220.45 595.5 214.845 568.715 190.311 568.715H112.861Z" fill="#FFA93D"/>
<path d="M159.116 575.429C159.116 577.23 160.567 578.706 162.375 578.706H188.646C190.437 578.706 191.905 577.248 191.905 575.429C191.905 573.629 190.455 572.153 188.646 572.153H162.375C160.585 572.153 159.116 573.611 159.116 575.429Z" fill="white"/>
<g style="mix-blend-mode:overlay" opacity="0.5">
<path d="M269.445 422.122L295.071 568.698H254.224C256.713 540.599 261.1 459.689 235.51 410.728C204.154 350.751 223.942 285.195 223.942 285.195L262.246 394.492C265.398 403.474 267.798 412.708 269.445 422.104V422.122Z" fill="white"/>
</g>
<path d="M342.705 179.228C337.709 210.26 326.338 232.598 308.591 246.279C290.845 259.959 267.386 264.423 238.196 259.671C209.419 254.991 188.664 243.272 175.931 224.552C163.199 205.832 159.331 180.956 164.327 149.924C169.27 119.233 180.677 97.039 198.549 83.3409C216.421 69.6427 239.915 65.1607 269.015 69.8947C298.205 74.6468 319.031 86.2749 331.513 104.797C343.977 123.301 347.702 148.124 342.705 179.228ZM216.474 158.672C210.726 194.33 220.199 214.148 244.876 218.18C257.429 220.214 267.422 217.406 274.889 209.738C282.357 202.07 287.55 189.074 290.505 170.732C293.477 152.318 292.582 138.223 287.854 128.431C283.127 118.639 274.656 112.753 262.443 110.773C237.605 106.723 222.276 122.707 216.474 158.69V158.672Z" fill="#014B5B" stroke="white" stroke-width="4" stroke-miterlimit="10"/>
<path d="M230.281 182.594L263.786 106.399V83.4128C263.786 80.4968 266.15 78.1208 269.051 78.1208H269.141C271.594 78.1208 273.725 79.8128 274.28 82.2248L278.309 99.721V79.0028C278.309 76.6988 280.172 74.8447 282.446 74.8447H282.518C284.344 74.8447 285.956 76.0507 286.493 77.8148L291.131 93.2589V76.4108C291.131 73.9267 293.137 71.9107 295.608 71.9107H295.698C297.829 71.9107 299.673 73.4227 300.085 75.5287L304.92 100.009C306.55 108.289 305.565 116.893 302.073 124.579L268.048 199.766C262.3 212.474 245.932 215.894 235.618 206.534L235.295 206.246C228.723 200.27 226.682 190.748 230.263 182.594H230.281Z" fill="#FEC1B9"/>
<g style="mix-blend-mode:overlay" opacity="0.5">
<path d="M305.565 105.319C303.864 105.031 280.011 101.539 270.896 126.271C262.64 148.645 246.076 192.062 233.684 204.572C234.203 205.148 234.722 205.724 235.313 206.246L235.636 206.534C245.95 215.876 262.318 212.456 268.066 199.766L302.091 124.579C303.864 120.655 304.974 116.515 305.44 112.285L305.654 106.237C305.654 105.931 305.601 105.625 305.583 105.319H305.565Z" fill="white"/>
</g>
<path opacity="0.49" d="M265.452 204.05C262.246 196.418 254.743 191.054 245.968 191.054C239.557 191.054 233.827 193.934 229.941 198.47C231.069 201.386 232.878 204.068 235.295 206.264L235.618 206.552C244.643 214.742 258.325 213.122 265.452 204.068V204.05Z" fill="#054857"/>
<path d="M249.675 138.457L230.281 182.594" stroke="#054857" stroke-width="1.09" stroke-miterlimit="10" stroke-linecap="round"/>
<path d="M77.3498 270.597C69.4704 272.991 61.7701 274.503 54.231 275.133L44.0416 241.382C46.5128 241.112 49.1273 240.842 51.9209 240.59C54.7145 240.338 57.6335 239.744 60.6957 238.808C67.8408 236.63 72.2998 232.904 74.0548 227.648C75.8097 222.392 75.1113 214.526 71.9417 204.05L27.083 55.3145L70.5091 42.0844L114.257 187.076C120.83 208.838 121.062 226.766 114.956 240.824C108.849 254.882 96.314 264.819 77.3677 270.597H77.3498Z" fill="#014B5B" stroke="white" stroke-width="4" stroke-miterlimit="10"/>
<path d="M13.1688 88.3269L32.4912 74.2147C36.8248 71.0467 42.9493 72.7207 45.0982 77.6348L54.1953 98.389C55.8607 102.187 54.5176 106.651 51.0435 108.883L42.1613 114.607L13.1688 88.3269Z" fill="#FEC1B9"/>
<path d="M45.0981 77.6348L27.083 90.8289" stroke="#054857" stroke-width="1.09" stroke-miterlimit="10" stroke-linecap="round"/>
<path d="M50.8823 90.8289L36.0906 102.241" stroke="#054857" stroke-width="1.09" stroke-miterlimit="10" stroke-linecap="round"/>
<path opacity="0.27" d="M1036 595.716C1036 602.412 974.899 607.848 899.526 607.848C824.152 607.848 763.052 602.412 763.052 595.716C763.052 589.02 824.152 583.584 899.526 583.584C974.899 583.584 1036 589.02 1036 595.716Z" fill="#2D333C"/>
<path d="M894.906 254.577L881.224 306.093L853.879 434.146L834.449 579.552C834.449 579.552 815.02 581.73 815.02 594.024H888.423L908.659 444.28L938.797 254.595H894.888L894.906 254.577Z" fill="#054857"/>
<path d="M973.61 254.576C973.61 254.576 988.133 334.911 966.715 397.552L945.298 460.193L978.427 594.024H894.906C894.906 594.024 894.906 581.73 907.853 579.552L890.948 472.109C888.799 458.464 888.853 444.568 891.091 430.942L910.288 314.067C910.288 314.067 905.346 269.643 912.724 254.594C920.102 239.546 973.61 254.594 973.61 254.594V254.576Z" fill="#054857"/>
<g style="mix-blend-mode:overlay" opacity="0.5">
<path d="M945.28 460.175L966.697 397.534C988.115 334.893 973.592 254.559 973.592 254.559C973.592 254.559 961.791 251.247 948.503 249.284C952.299 271.479 961.665 338.511 947.124 391.45C929.431 455.837 925.832 465.971 925.832 465.971L958.513 594.024H978.409L945.28 460.193V460.175Z" fill="white"/>
</g>
<g style="mix-blend-mode:overlay" opacity="0.23">
<path d="M912.724 254.577C906.492 267.267 909.053 300.909 910.002 311.097C911.398 299.073 923.629 265.125 930.04 247.916C921.803 248.132 915.034 249.896 912.742 254.577H912.724Z" fill="#FFFFEB"/>
</g>
<path d="M974.845 579.534H907.871C894.923 581.712 894.923 594.006 894.923 594.006H978.445L974.863 579.534H974.845Z" fill="#FFA93D"/>
<path d="M815.02 594.006H888.423L890.375 579.534H834.449C834.449 579.534 815.02 581.712 815.02 594.006Z" fill="#FFA93D"/>
<path d="M890.303 467.375C901.872 467.069 911.166 457.547 911.166 445.846C911.166 434.758 902.839 425.65 892.148 424.426L891.091 430.906C889.103 442.966 888.853 455.243 890.303 467.375Z" fill="#054857"/>
<g style="mix-blend-mode:multiply" opacity="0.49">
<path d="M849.993 463.793C861.759 463.793 871.303 454.199 871.303 442.372C871.303 432.814 865.072 424.714 856.476 421.96L853.879 434.128L849.922 463.793C849.922 463.793 849.975 463.793 850.011 463.793H849.993Z" fill="#054857"/>
</g>
<path d="M947.142 581.712C947.142 582.918 946.175 583.89 944.975 583.89H910.02C908.82 583.89 907.853 582.918 907.853 581.712C907.853 580.506 908.82 579.534 910.02 579.534H944.975C946.175 579.534 947.142 580.506 947.142 581.712Z" fill="white"/>
<path d="M863.603 581.712C863.603 582.918 862.636 583.89 861.436 583.89H836.598C835.398 583.89 834.431 582.918 834.431 581.712C834.431 580.506 835.398 579.534 836.598 579.534H861.436C862.636 579.534 863.603 580.506 863.603 581.712Z" fill="white"/>
<path d="M909.984 311.079L892.004 417.532C887.599 443.65 888.118 470.363 893.527 496.283L898.433 519.773" stroke="#FFA93D" stroke-width="1.12" stroke-miterlimit="10"/>
<path d="M915.947 115.057C915.947 115.057 904.611 116.893 887.331 141.319C870.05 165.728 853.861 187.58 853.861 187.58L814.912 133.435C812.602 130.213 808.877 128.305 804.92 128.305H794.014C789.501 128.305 785.848 131.977 785.848 136.513V136.603L784.272 138.421C781.461 141.697 779.903 145.873 779.903 150.193V158.114C779.903 165.368 784.236 171.902 790.898 174.692L804.74 180.506L846.967 229.61C853.646 237.368 865.716 237.026 871.948 228.908L905.686 184.934L915.947 115.057Z" fill="#FEC1B9"/>
<path d="M964.96 110.449L1001.78 136.603C1001.78 136.603 965.533 195.032 973.932 257.439C935.377 269.913 894.888 254.577 894.888 254.577L903.519 191.252C903.519 191.252 892.721 177.086 898.666 157.574C904.612 138.079 915.947 115.075 915.947 115.075L951.512 107.569L964.96 110.467V110.449Z" fill="#FFA93D"/>
<path d="M987.041 126.127C981.274 134.515 965.265 161.822 980.236 187.58C988.867 157.484 1001.8 136.603 1001.8 136.603L987.041 126.127Z" fill="#FFA93D"/>
<path opacity="0.49" d="M855.222 222.104C850.871 222.104 846.788 223.256 843.224 225.254L846.967 229.61C853.646 237.368 865.716 237.026 871.948 228.908L872.02 228.818C867.632 224.66 861.723 222.104 855.204 222.104H855.222Z" fill="#054857"/>
<path d="M853.879 187.58L863.603 199.37" stroke="#FFA93D" stroke-width="1.12" stroke-miterlimit="10"/>
<path d="M902.158 201.422L894.906 254.559C894.906 254.559 935.395 269.895 973.95 257.421C971.873 241.94 972.535 226.694 974.702 212.546C943.883 215.588 913.816 205.832 902.158 201.422Z" fill="#FEC1B9"/>
<path d="M910.288 251.03C911.633 251.03 912.724 249.29 912.724 247.142C912.724 244.995 911.633 243.254 910.288 243.254C908.943 243.254 907.853 244.995 907.853 247.142C907.853 249.29 908.943 251.03 910.288 251.03Z" fill="#FFA93D"/>
<path d="M903.537 191.234C903.537 191.234 939.388 195.338 960.394 189.506C981.382 183.674 940.713 203.474 902.158 201.422L903.555 191.234H903.537Z" fill="#E8A95A"/>
<path d="M976.744 118.819L960.125 106.651L951.53 107.551L931.509 111.781C925.743 121.645 916.466 142.597 939.585 145.801C950.527 147.061 964.781 138.583 976.761 118.819H976.744Z" fill="#FEC1B9"/>
<path d="M961.522 86.6349L960.125 115.687C960.125 115.687 948.521 132.733 938.314 127.225C931.867 123.751 945.62 110.035 945.62 110.035V96.985L961.522 86.6529V86.6349Z" fill="#FEC1B9"/>
<path d="M945.62 96.967V106.651C956.687 101.917 961.522 86.6349 961.522 86.6349L945.62 96.967Z" fill="#FFA93D"/>
<path d="M941.895 50.0045C941.895 50.0045 925.456 69.5347 930.828 95.149C931.867 100.099 936.612 103.321 941.555 102.367C947.733 101.161 955.129 97.381 959.516 90.0549C966.5 78.4088 968.936 71.6767 968.936 71.6767C968.936 71.6767 965.283 51.8225 941.895 49.9865V50.0045Z" fill="#FEC1B9"/>
<g style="mix-blend-mode:overlay" opacity="0.5">
<path d="M930.828 95.149C931.76 99.613 935.717 102.637 940.105 102.493C952.909 90.9189 957.565 59.1306 957.565 59.1306L952.962 52.6325C949.882 51.3005 946.229 50.3285 941.877 49.9865C941.877 49.9865 925.438 69.5167 930.811 95.131L930.828 95.149Z" fill="white"/>
</g>
<path d="M943.4 76.4108C943.4 76.4108 949.184 75.3667 953.123 79.3268" stroke="#FFA93D" stroke-width="0.68" stroke-miterlimit="10"/>
<path d="M945.62 69.3187C945.62 69.3187 951.834 67.2307 956.454 72.8647" stroke="#054857" stroke-width="0.98" stroke-miterlimit="10" stroke-linecap="round"/>
<path d="M935.144 74.7008C935.144 74.7008 934.249 73.2247 931.097 72.8647" stroke="#FFA93D" stroke-width="0.68" stroke-miterlimit="10"/>
<path d="M938.314 67.9867C938.314 67.9867 937.687 65.5567 933.622 64.7466" stroke="#054857" stroke-width="0.98" stroke-miterlimit="10" stroke-linecap="round"/>
<path d="M931.867 87.6069L944.169 90.6669C944.169 90.6669 935.055 97.057 931.867 87.6069Z" fill="#FFFFEB"/>
<path d="M970.727 114.409L960.537 106.957L961.522 82.1168L964.692 78.6608L965.516 71.5867C965.516 71.5867 948.235 59.0766 933.622 57.4386C940.624 47.0705 947.572 38.3044 966.232 45.3965C984.892 52.4705 988.939 79.3448 975.669 103.357" fill="#054857"/>
<path d="M974.523 84.3129C974.523 88.3089 971.3 91.5489 967.324 91.5489C963.349 91.5489 960.125 88.3089 960.125 84.3129C960.125 80.3168 963.349 77.0768 967.324 77.0768C971.3 77.0768 974.523 80.3168 974.523 84.3129Z" fill="#FEC1B9"/>
<path d="M961.522 85.9689L971.031 83.2869" stroke="#FFA93D" stroke-width="0.9" stroke-miterlimit="10"/>
<path d="M936.595 77.0588L933.622 83.2868L938.009 84.6369" stroke="#FFA93D" stroke-width="0.9" stroke-miterlimit="10"/>
<g style="mix-blend-mode:overlay" opacity="0.5">
<path d="M952.049 63.5586C953.893 58.8606 958.281 49.4825 965.283 45.0544C947.357 38.6464 940.517 47.2505 933.622 57.4206C939.782 58.1226 946.426 60.7506 952.049 63.5586Z" fill="white"/>
</g>
<path d="M1013.11 260.121C1025.86 261.993 1031.42 252.236 1030.27 245C1030.27 245 1030.27 245 1030.27 244.982C1026.46 221.042 1018.83 174.476 1015.26 161.246C1010.41 143.173 1001.76 136.621 1001.76 136.621C988.813 137.863 982.904 161.246 982.904 161.246L999.056 241.706C999.056 241.706 1000.33 258.249 1013.1 260.139L1013.11 260.121Z" fill="#FFA93D"/>
<path d="M998.179 252.452C995.547 263.541 990.425 272.703 982.796 279.957C975.168 287.211 965.515 291.963 953.858 294.213C942.182 296.463 929.27 295.887 915.07 292.485C903.233 289.659 893.509 286.437 885.862 282.855C878.234 279.273 870.569 274.359 862.887 268.131L873.076 225.11C881.117 232.022 889.766 237.998 899.042 243.002C908.301 248.024 917.075 251.516 925.349 253.497C932.476 255.207 938.009 255.207 941.913 253.514C945.817 251.822 948.252 249.032 949.166 245.108C949.739 242.66 949.578 240.356 948.682 238.214C947.787 236.054 946.068 233.696 943.561 231.104C941.054 228.53 934.07 222.806 922.627 213.95C912.294 205.886 904.809 198.668 900.188 192.314C895.568 185.96 892.631 179.228 891.342 172.118C890.071 165.008 890.482 157.052 892.56 148.249C896.464 131.797 905.453 120.385 919.547 114.031C933.64 107.677 951.118 106.993 971.944 111.979C990.353 116.389 1008.1 125.155 1025.2 138.277L1001.65 172.046C986.843 160.418 973.413 153.146 961.325 150.265C955.075 148.771 950.276 148.789 946.927 150.301C943.561 151.831 941.501 154.208 940.731 157.466C939.908 160.976 940.964 164.54 943.919 168.176C946.874 171.812 955.469 179.21 969.688 190.352C983.369 200.936 992.252 210.926 996.335 220.286C1000.42 229.664 1001.03 240.374 998.161 252.434L998.179 252.452Z" fill="#014B5B" stroke="white" stroke-width="4" stroke-miterlimit="10"/>
<path d="M1024.9 228.818L944.188 177.23L935.431 171.362C933.049 169.76 929.826 170.408 928.232 172.802L928.178 172.874C926.817 174.908 927.068 177.626 928.751 179.39L938.618 189.668L923.289 181.874C921.875 181.154 920.173 181.334 918.938 182.306L918.884 182.36C916.878 183.962 916.807 187.004 918.759 188.678L927.265 195.986V196.076C928.644 202.016 932.082 207.254 936.989 210.854L995.439 253.785C1002.64 259.077 1011.56 261.363 1020.4 260.265C1023.95 259.167 1027.17 256.683 1029.07 251.75C1034.32 238.124 1024.92 228.782 1024.92 228.782L1024.9 228.818Z" fill="#FEC1B9"/>
<path opacity="0.49" d="M1005.11 258.753C1010 260.373 1015.21 260.931 1020.4 260.283C1023.95 259.185 1027.17 256.701 1029.07 251.769C1030.72 247.502 1030.91 243.65 1030.43 240.392C1028.77 239.942 1027.03 239.69 1025.22 239.69C1014.49 239.69 1005.74 248.133 1005.13 258.753H1005.11Z" fill="#054857"/>
<path d="M847.97 65.0347L857.174 163.802C859.18 185.276 854.667 202.484 843.672 215.408C832.676 228.332 815.79 235.874 793.011 238.016C770.752 240.104 753.113 236 740.094 225.668C727.075 215.336 719.572 199.442 717.566 177.968L708.272 78.1928L752.593 74.0168L761.565 170.318C762.64 181.91 765.594 190.136 770.394 194.96C775.193 199.784 781.801 201.818 790.217 201.026C799.225 200.18 805.51 196.958 809.092 191.378C812.656 185.798 813.909 177.104 812.799 165.278L803.845 69.1927L847.952 65.0347H847.97Z" fill="#014B5B" stroke="white" stroke-width="4" stroke-miterlimit="10"/>
<g style="mix-blend-mode:overlay" opacity="0.5">
<path d="M951.476 181.874C949.202 186.824 942.648 204.032 956.454 212.978C968.255 220.61 1007.06 243.164 1027.44 254.955C1028.05 254.019 1028.59 252.975 1029.05 251.769C1034.3 238.142 1024.9 228.8 1024.9 228.8L951.458 181.856L951.476 181.874Z" fill="white"/>
</g>
<path d="M804.866 128.305L819.389 128.827C822.595 128.935 825.191 131.437 825.478 134.641V134.767C825.818 138.583 822.756 141.805 818.959 141.679L812.387 141.445L818.368 144.325C822.326 146.233 824.654 150.464 824.171 154.856L823.705 159.014C823.06 164.738 817.903 168.842 812.226 168.158L794.963 166.088L804.902 128.287L804.866 128.305Z" fill="#FEC1B9"/>
<path d="M824.206 153.704L806.442 150.427" stroke="#FFA93D" stroke-width="1.12" stroke-miterlimit="10"/>
<path d="M822.989 161.768L805.582 159.842" stroke="#FFA93D" stroke-width="1.12" stroke-miterlimit="10"/>
<path d="M512.434 38.1742C510.644 44.0782 504.412 47.4082 498.538 45.6082C492.664 43.8082 489.351 37.5441 491.142 31.6401C492.933 25.736 499.165 22.406 505.038 24.206C510.912 26.006 514.225 32.2701 512.434 38.1742Z" fill="#014B5B"/>
<path d="M518.809 46.6342C517.019 52.5383 510.787 55.8683 504.913 54.0683C499.039 52.2683 495.726 46.0042 497.517 40.1002C499.308 34.1961 505.54 30.8661 511.414 32.6661C517.287 34.4661 520.6 40.7302 518.809 46.6342Z" fill="#FFA93D"/>
<path d="M546.924 51.0983C546.924 51.0983 545.545 43.1602 534.819 38.7322C524.11 34.3041 511.27 31.5861 501.779 42.8182C492.306 54.0323 497.822 72.8065 511.825 82.8686C525.829 92.9307 546.924 51.1163 546.924 51.1163V51.0983Z" fill="#014B5B"/>
<path opacity="0.27" d="M650.842 598.412C650.825 605.162 598.624 610.472 534.246 610.31C469.868 610.13 417.703 604.532 417.721 597.782C417.739 591.032 469.939 585.721 534.317 585.883C598.695 586.063 650.86 591.662 650.842 598.412Z" fill="#2D333C"/>
<path d="M524.755 476.028L526.08 595.964H589.115C589.115 595.964 589.115 577.099 571.225 573.985L571.189 489.871L524.755 476.046V476.028Z" fill="#FEC1B9"/>
<path d="M580.394 577.783C574.932 582.355 560.767 588.89 526.08 584.444V595.964L589.133 595.946C589.133 595.946 589.133 584.282 580.412 577.801L580.394 577.783Z" fill="#014B5B"/>
<path d="M546.28 565.435C546.28 565.435 548.805 578.791 535.893 577.387" stroke="#054857" stroke-width="0.77" stroke-miterlimit="10" stroke-linecap="round"/>
<g style="mix-blend-mode:multiply" opacity="0.71">
<path d="M571.207 527.203C571.207 510.643 571.207 502.357 571.207 502.345L524.772 488.521L525.202 527.293C538.561 520.813 559.764 524.449 571.225 527.203H571.207Z" fill="#054857"/>
</g>
<g style="mix-blend-mode:overlay" opacity="0.5">
<path d="M589.079 595.964C589.079 595.964 589.079 595.946 589.079 595.91C589.079 595.82 589.079 595.712 589.079 595.55C589.079 595.388 589.061 595.19 589.043 594.974C589.043 594.974 589.043 594.956 589.043 594.938C589.025 594.704 589.007 594.452 588.972 594.164C588.972 594.164 588.972 594.146 588.972 594.128C588.9 593.534 588.81 592.832 588.649 592.058C588.649 592.058 588.649 592.04 588.649 592.022C588.488 591.23 588.291 590.366 588.022 589.43C588.022 589.43 588.022 589.43 588.022 589.412C587.342 587.09 586.232 584.462 584.441 582.014C584.441 581.996 584.423 581.978 584.405 581.96C583.707 581.006 582.883 580.088 581.952 579.206C581.934 579.188 581.898 579.152 581.88 579.134C579.319 576.793 575.881 574.885 571.189 574.075C571.189 545.905 571.171 527.149 571.171 514.657C571.171 514.657 542.018 548.335 556.165 596.108H589.133C589.133 596.108 589.133 596.054 589.133 596L589.079 595.964Z" fill="white"/>
</g>
<path d="M569.846 238.93C569.846 238.93 585.247 423.216 577.869 506.269C554.75 511.777 536.914 517.807 519.096 514.639L532.509 250.45L569.846 238.93Z" fill="#E8A95A"/>
<path d="M473.252 503.713L467.379 597.17L530.288 601.166C530.288 601.166 531.47 582.356 513.813 578.125L519.096 494.173L473.234 503.731L473.252 503.713Z" fill="#FEC1B9"/>
<path d="M522.731 582.481C516.983 586.693 502.442 592.31 468.095 585.668L467.379 597.17L530.288 601.166C530.288 601.166 531.005 589.52 522.731 582.499V582.481Z" fill="#014B5B"/>
<path d="M489.459 567.973C489.459 567.973 491.142 581.456 478.338 579.242" stroke="#054857" stroke-width="0.77" stroke-miterlimit="10" stroke-linecap="round"/>
<g style="mix-blend-mode:multiply" opacity="0.71">
<path d="M516.947 528.535C518.391 505.615 519.114 494.155 519.114 494.155L473.252 503.713L470.584 546.103C484.283 533.413 505.97 529.651 516.947 528.553V528.535Z" fill="#054857"/>
</g>
<path d="M480.201 261.628C480.201 261.628 456.401 460.998 467.379 520.129C491.876 525.007 510.948 524.683 527.817 518.077C548.858 292.427 546.907 250.774 546.907 250.774L480.201 261.646V261.628Z" fill="#FFA93D"/>
<g style="mix-blend-mode:overlay" opacity="0.5">
<path d="M486.97 522.973C480.827 522.451 474.327 521.497 467.379 520.111C456.419 460.98 480.2 261.61 480.2 261.61L504.537 257.65C501.099 286.793 482.672 448.344 486.97 522.973Z" fill="white"/>
</g>
<path d="M546.369 245.428C546.029 243.718 545.653 242.152 545.241 240.73C501.224 235.978 483.854 246.094 483.854 246.094C483.854 246.094 482.439 251.764 480.2 261.628C563.937 265.102 569.846 238.948 569.846 238.948C560.785 237.508 552.977 240.424 546.351 245.446L546.369 245.428Z" fill="#171905"/>
<path d="M550.309 105.999C550.309 105.999 561.053 112.533 568.843 121.731C574.144 127.995 591.89 156.111 602.653 173.392C607.56 181.258 605.823 191.572 598.624 197.386L584.781 208.564L555.036 156.489L550.309 105.999Z" fill="#FEC1B9"/>
<path d="M513.151 103.641L478.571 118.167C478.571 118.167 493.595 209.32 483.854 246.076C515.89 254.176 557.418 251.674 569.846 238.912C555.825 181.006 556.308 173.085 556.308 173.085C556.308 173.085 568.306 159.819 561.734 138.381C555.18 116.943 550.291 105.981 550.291 105.981L513.133 103.623L513.151 103.641Z" fill="#054857"/>
<path d="M486.128 183.958C508.19 155.895 492.467 126.735 484.767 115.575L478.571 118.185C478.571 118.185 483.854 150.207 486.128 183.958Z" fill="#FEC1B9"/>
<path d="M556.326 173.121C556.326 173.121 535.428 188.152 515.085 189.664C494.742 191.176 539.905 194.902 558.726 189.124C556.165 175.785 556.326 173.121 556.326 173.121Z" fill="#054857"/>
<path d="M478.571 118.185L478.463 118.221C472.053 120.147 466.662 124.575 463.511 130.497L436.112 182.014L405.812 161.295C399.938 157.281 393.062 154.905 385.97 154.815C383.428 154.779 380.831 154.995 378.557 155.625C376.461 156.687 375.405 157.317 374.348 160.737C373.668 162.915 375.262 158.649 374.348 160.737L374.151 161.511C373.471 163.059 372.969 165.093 373.041 165.615L433.05 215.476C439.926 221.182 450.223 219.472 454.897 211.84L484.427 163.725C484.427 163.725 495.529 129.705 478.571 118.185Z" fill="#FEC1B9"/>
<path d="M436.112 181.996L446.624 187.396" stroke="#054857" stroke-width="1.04" stroke-miterlimit="10" stroke-linecap="round"/>
<g style="mix-blend-mode:multiply" opacity="0.18">
<path d="M454.539 212.344C451.423 209.464 447.34 207.592 442.774 207.304C437.509 206.962 432.62 208.798 428.931 212.02L433.032 215.44C439.729 221.002 449.686 219.508 454.521 212.344H454.539Z" fill="#FFA93D"/>
</g>
<path d="M527.351 89.0067L527.781 107.349C527.781 107.349 536.52 124.017 531.058 128.841C525.596 133.665 507.026 114.963 508.817 102.669C510.787 75.5965 511.897 68.0724 511.897 68.0724L527.333 89.0067H527.351Z" fill="#FEC1B9"/>
<path d="M527.62 100.743L527.387 90.4286C524.898 85.8566 520.94 81.3566 514.708 79.8265C516.052 92.4627 523.143 98.2767 527.62 100.743Z" fill="#171905"/>
<path d="M546.924 51.0983C546.924 51.0983 551.992 71.3485 540.424 94.5327C539.6 96.1707 537.845 97.1067 536.019 96.9087C528.247 96.0447 511.288 87.1346 511.825 64.1484C523.68 62.9424 544.453 55.5443 546.906 51.0983H546.924Z" fill="#FEC1B9"/>
<g style="mix-blend-mode:overlay" opacity="0.5">
<path d="M520.869 62.5104C522.91 73.1665 526.957 87.8006 534.586 96.6927C535.087 96.8007 535.571 96.8727 536.019 96.9267C537.827 97.1247 539.6 96.1887 540.424 94.5507C551.992 71.3665 546.924 51.1163 546.924 51.1163C545.008 54.5723 532.115 59.7744 520.887 62.5104H520.869Z" fill="white"/>
</g>
<path d="M541.964 85.8386L532.724 86.5046C532.724 86.5046 538.741 92.8227 541.964 85.8386Z" fill="white"/>
<path d="M537.326 82.7426L540.89 82.0046L540.334 78.3326L542.304 82.8686L537.326 82.7426Z" fill="#014B5B"/>
<path d="M534.819 64.4724C534.819 64.4724 528.336 62.9064 524.54 65.7864C527.405 62.7444 531.309 60.0263 534.819 64.4724Z" fill="#014B5B"/>
<path d="M543.737 65.1204L547.999 64.1304V61.5204C547.999 61.5204 544.256 63.6084 543.737 65.1204Z" fill="#014B5B"/>
<path d="M514.261 74.6785C513.24 78.0625 509.658 79.9706 506.292 78.9446C502.925 77.9005 501.027 74.3185 502.048 70.9345C503.086 67.5504 506.65 65.6424 510.017 66.6684C513.383 67.7124 515.282 71.2945 514.261 74.6785Z" fill="#FEC1B9"/>
<path d="M510.948 75.7045L504.053 71.5465" stroke="#014B5B" stroke-width="0.52" stroke-miterlimit="10" stroke-linecap="round"/>
<path d="M484.427 163.725L490.444 152.403C490.444 152.403 489.996 169.827 485.304 173.139L484.427 163.725Z" fill="#171905"/>
<path opacity="0.49" d="M399.347 171.465C391.683 167.307 383.535 168.441 378.324 169.971L433.05 215.44C439.926 221.146 450.223 219.436 454.897 211.804L470.226 186.82C466.573 189.718 461.577 193.372 455.488 197.098C441.968 205.396 411.901 178.27 399.347 171.447V171.465Z" fill="#054857"/>
<path d="M547.981 255.112C547.981 255.112 538.418 443.052 527.799 518.059" stroke="#FFA93D" stroke-width="0.99" stroke-miterlimit="10"/>
<path d="M529.912 74.2285C529.912 75.0385 530.575 75.7045 531.381 75.7045C532.186 75.7045 532.849 75.0385 532.849 74.2285V71.9065C532.849 71.0965 532.186 70.4305 531.381 70.4305C530.575 70.4305 529.912 71.0965 529.912 71.9065V74.2285Z" fill="#014B5B"/>
<path d="M543.289 74.2285C543.289 75.0385 543.952 75.7045 544.758 75.7045C545.563 75.7045 546.226 75.0385 546.226 74.2285V71.9065C546.226 71.0965 545.563 70.4305 544.758 70.4305C543.952 70.4305 543.289 71.0965 543.289 71.9065V74.2285Z" fill="#014B5B"/>
<path d="M409.322 253.024L381.69 81.5546L428.018 74.0125L455.649 245.482L409.322 253.024Z" fill="#014B5B" stroke="white" stroke-width="4" stroke-miterlimit="10"/>
<path d="M628.727 312.497L569.739 300.815L532.061 170.889L531.04 170.691C528.838 189.52 526.796 203.812 524.88 213.586L510.088 289.007L470.244 281.105L503.051 113.775L561.806 125.421L599.573 253.708L600.253 253.852C602.492 236.77 604.623 223.126 606.628 212.902L621.456 137.247L661.533 145.185L628.727 312.515V312.497Z" fill="#014B5B" stroke="white" stroke-width="4" stroke-miterlimit="10"/>
<path d="M390.161 141.207L417.577 149.667C420.998 150.729 422.806 154.473 421.499 157.821L421.445 157.947C420.246 161.007 416.879 162.609 413.763 161.547L401.586 157.443L399.598 162.033L410.737 167.847C413.083 169.071 414.103 171.897 413.083 174.345L413.047 174.435C411.99 176.992 409.089 178.252 406.511 177.244L393.886 172.311L403.144 178.558C405.096 179.872 405.687 182.482 404.505 184.516L404.469 184.588C403.341 186.514 400.977 187.306 398.936 186.46L379.452 178.306C374.295 176.146 371.573 170.421 373.166 165.039C374.903 159.153 377.321 151.647 379.918 145.851C381.673 141.927 386.078 139.947 390.161 141.207Z" fill="#FEC1B9"/>
<path d="M600.164 196.828C582.095 212.056 545.868 240.55 521.872 245.68C520.69 245.932 519.454 245.5 518.63 244.618L517.466 243.376C516.231 242.062 516.177 240.046 517.323 238.66L527.441 226.438L514.135 232.666C511.879 233.728 509.211 232.72 508.19 230.452L508.154 230.38C507.277 228.418 507.904 226.096 509.659 224.854L589.652 168.225L600.379 177.658C606.181 182.752 606.091 191.86 600.2 196.846L600.164 196.828Z" fill="#FEC1B9"/>
<path d="M517.466 243.376C517.466 243.376 527.101 239.29 530.557 235.87" stroke="#054857" stroke-width="1.04" stroke-miterlimit="10" stroke-linecap="round"/>
<g style="mix-blend-mode:multiply" opacity="0.18">
<path d="M591.21 184.84C590.87 190.312 593.592 195.244 597.89 197.98L598.624 197.386C605.823 191.572 607.56 181.258 602.653 173.391C602.331 172.887 602.008 172.365 601.686 171.825C595.956 173.445 591.604 178.521 591.21 184.822V184.84Z" fill="#FFA93D"/>
</g>
<path d="M571.118 181.33L587.002 170.079" stroke="#054857" stroke-width="1.04" stroke-miterlimit="10" stroke-linecap="round"/>
<g style="mix-blend-mode:overlay" opacity="0.5">
<path d="M584.226 186.802C593.806 181.348 600.128 181.672 604.068 183.364C605.518 188.044 604.229 193.408 600.164 196.828C584.942 209.662 556.827 231.91 533.995 241.666C531.703 219.184 566.068 197.134 584.226 186.802Z" fill="white"/>
</g>
</g>
<defs>
<filter id="filter0_d_2_260" x="0" y="0" width="1040" height="617" filterUnits="userSpaceOnUse" color-interpolation-filters="sRGB">
<feFlood flood-opacity="0" result="BackgroundImageFix"/>
<feColorMatrix in="SourceAlpha" type="matrix" values="0 0 0 0 0 0 0 0 0 0 0 0 0 0 0 0 0 0 127 0" result="hardAlpha"/>
<feOffset dy="4"/>
<feGaussianBlur stdDeviation="2"/>
<feComposite in2="hardAlpha" operator="out"/>
<feColorMatrix type="matrix" values="0 0 0 0 0 0 0 0 0 0 0 0 0 0 0 0 0 0 0.25 0"/>
<feBlend mode="normal" in2="BackgroundImageFix" result="effect1_dropShadow_2_260"/>
<feBlend mode="normal" in="SourceGraphic" in2="effect1_dropShadow_2_260" result="shape"/>
</filter>
<clipPath id="clip0_2_260">
<rect width="1032" height="609" fill="white" transform="translate(4)"/>
</clipPath>
</defs>
</svg>
