<svg width="882" height="722" viewBox="0 0 882 722" fill="none" xmlns="http://www.w3.org/2000/svg">
<g clip-path="url(#clip0_2_1076)">
<path d="M828.141 660.968C828.141 660.968 840.135 634.797 826.424 608.98C812.713 583.163 808.748 577.1 817.485 571.795C826.222 566.49 830.236 592.434 830.236 592.434C830.236 592.434 837.61 574.599 831.524 555.931C825.439 537.262 821.626 506.848 829.933 503.589C838.241 500.33 831.524 541.532 838.721 555.577C838.721 555.577 844.781 539.94 845.766 524.935C846.75 509.929 845.21 485.982 851.775 479.843C858.34 473.704 862.532 477.948 856.093 511.041C849.654 544.134 849.705 571.037 849.705 571.037C849.705 571.037 863.946 527.613 873.491 526.349C883.035 525.086 883.035 539.132 874.854 551.333C866.673 563.534 850.917 585.386 848.316 596.627C848.316 596.627 863.946 563.964 877.985 573.967C892.05 583.971 865.764 603.726 854.048 610.849C842.331 617.973 834.201 662.686 834.201 662.686L828.166 660.968H828.141Z" fill="#014B5B"/>
<path opacity="0.2" d="M828.141 660.968C828.141 660.968 840.135 634.797 826.424 608.98C812.713 583.163 808.748 577.1 817.485 571.795C826.222 566.49 830.236 592.434 830.236 592.434C830.236 592.434 837.61 574.599 831.524 555.931C825.439 537.262 821.626 506.848 829.933 503.589C838.241 500.33 831.524 541.532 838.721 555.577C838.721 555.577 844.781 539.94 845.766 524.935C846.75 509.929 845.21 485.982 851.775 479.843C858.34 473.704 862.532 477.948 856.093 511.041C849.654 544.134 849.705 571.037 849.705 571.037C849.705 571.037 863.946 527.613 873.491 526.349C883.035 525.086 883.035 539.132 874.854 551.333C866.673 563.534 850.917 585.386 848.316 596.627C848.316 596.627 863.946 563.964 877.985 573.967C892.05 583.971 865.764 603.726 854.048 610.849C842.331 617.973 834.201 662.686 834.201 662.686L828.166 660.968H828.141Z" fill="black"/>
<path d="M837.609 671.704C837.609 671.704 825.919 645.357 839.933 619.741C853.947 594.126 857.987 588.114 849.326 582.708C840.665 577.302 836.347 603.17 836.347 603.17C836.347 603.17 829.201 585.209 835.514 566.642C841.826 548.049 845.993 517.71 837.736 514.325C829.479 510.94 835.69 552.243 828.317 566.162C828.317 566.162 822.459 550.449 821.626 535.418C820.793 520.388 822.661 496.49 816.172 490.251C809.682 484.011 805.44 488.205 811.475 521.398C817.51 554.592 817.157 581.495 817.157 581.495C817.157 581.495 803.446 537.869 793.901 536.454C784.356 535.039 784.205 549.11 792.234 561.412C800.264 573.74 815.768 595.819 818.217 607.085C818.217 607.085 802.991 574.195 788.825 583.996C774.66 593.798 800.693 613.931 812.334 621.232C823.974 628.532 831.549 673.346 831.549 673.346L837.609 671.704Z" fill="#FFA93D"/>
<path d="M783.725 652.91H880.207L872.405 722H791.553L783.725 652.91Z" fill="#054857"/>
<path d="M425.9 710.885V719.954C425.9 721.091 424.991 721.975 423.855 721.975H167.764C158.295 721.975 151.831 712.401 155.366 703.635L236.521 502.553L367.673 503.437L363.203 529.532L334.266 698.406C333.332 703.862 337.523 708.839 343.053 708.839H423.855C424.991 708.839 425.9 709.723 425.9 710.86V710.885Z" fill="#054857"/>
<path opacity="0.5" d="M425.9 710.885V719.954C425.9 721.091 424.991 721.975 423.855 721.975H167.764C158.295 721.975 151.831 712.401 155.366 703.635L205.691 578.994L236.521 502.553L367.673 503.437L363.203 529.532L350.628 602.968L334.291 698.38C333.357 703.837 337.549 708.813 343.079 708.813H423.88C425.016 708.813 425.925 709.698 425.925 710.834L425.9 710.885Z" fill="white"/>
<path opacity="0.2" d="M343.053 708.864H176.425C172.259 708.864 169.431 704.62 171.022 700.78L242.178 529.583H363.203L334.266 698.456C333.332 703.913 337.523 708.889 343.053 708.889V708.864Z" fill="black"/>
<path opacity="0.1" d="M367.672 503.462L363.203 529.558L350.603 602.993L205.69 578.994L236.521 502.578L367.672 503.462Z" fill="black"/>
<path d="M622.677 128.632H15.5291C6.94389 128.632 0 135.579 0 144.168V555.375C0 563.964 6.94389 570.911 15.5291 570.911H622.677C631.263 570.911 638.206 563.964 638.206 555.375V144.168C638.206 135.579 631.237 128.632 622.677 128.632Z" fill="#054857"/>
<path opacity="0.6" d="M622.677 128.632H15.5291C6.94389 128.632 0 135.579 0 144.168V555.375C0 563.964 6.94389 570.911 15.5291 570.911H622.677C631.263 570.911 638.206 563.964 638.206 555.375V144.168C638.206 135.579 631.237 128.632 622.677 128.632Z" fill="white"/>
<path opacity="0.2" d="M28.4068 570.911H15.5291C6.96914 570.911 0 563.964 0 555.4V144.193C0 135.604 6.94389 128.632 15.5291 128.632H28.4068C19.8469 128.632 12.8778 135.579 12.8778 144.193V555.4C12.8778 563.964 19.8216 570.936 28.4068 570.936V570.911Z" fill="black"/>
<path d="M624.243 141.995H26.8916V538.525H624.243V141.995Z" fill="#014B5B"/>
<path opacity="0.4" d="M317.323 292.933C345.967 292.933 369.188 269.702 369.188 241.046C369.188 212.389 345.967 189.158 317.323 189.158C288.679 189.158 265.458 212.389 265.458 241.046C265.458 269.702 288.679 292.933 317.323 292.933Z" fill="white"/>
<path d="M304.95 233.164V228.314C304.95 223.59 308.788 219.775 313.485 219.775H321.136C325.858 219.775 329.67 223.615 329.67 228.314V233.164H335.2V228.314C335.2 220.558 328.888 214.243 321.136 214.243H313.485C305.733 214.243 299.42 220.558 299.42 228.314V233.164H304.95Z" fill="white"/>
<path d="M292.451 239.555V265.044C292.451 266.61 293.714 267.873 295.279 267.873H339.367C340.932 267.873 342.195 266.61 342.195 265.044V239.555C342.195 237.989 340.932 236.726 339.367 236.726H295.279C293.714 236.726 292.451 237.989 292.451 239.555ZM318.914 254.005V259.007H315.732V254.005C314.823 253.449 314.192 252.489 314.192 251.352C314.192 249.609 315.606 248.195 317.348 248.195C319.09 248.195 320.504 249.609 320.504 251.352C320.504 252.489 319.873 253.449 318.964 254.005H318.914Z" fill="white"/>
<path d="M190.793 335.903H141.807C138.892 335.903 136.529 338.266 136.529 341.182V390.19C136.529 393.106 138.892 395.469 141.807 395.469H190.793C193.707 395.469 196.07 393.106 196.07 390.19V341.182C196.07 338.266 193.707 335.903 190.793 335.903Z" fill="white"/>
<path d="M266.317 335.827H217.331C214.416 335.827 212.054 338.191 212.054 341.106V390.114C212.054 393.03 214.416 395.394 217.331 395.394H266.317C269.232 395.394 271.594 393.03 271.594 390.114V341.106C271.594 338.191 269.232 335.827 266.317 335.827Z" fill="white"/>
<path d="M341.816 335.751H292.83C289.915 335.751 287.553 338.115 287.553 341.031V390.038C287.553 392.954 289.915 395.318 292.83 395.318H341.816C344.731 395.318 347.093 392.954 347.093 390.038V341.031C347.093 338.115 344.731 335.751 341.816 335.751Z" fill="white"/>
<path d="M417.315 335.65H368.329C365.415 335.65 363.052 338.014 363.052 340.93V389.937C363.052 392.853 365.415 395.217 368.329 395.217H417.315C420.23 395.217 422.592 392.853 422.592 389.937V340.93C422.592 338.014 420.23 335.65 417.315 335.65Z" fill="white"/>
<path d="M492.814 335.574H443.828C440.914 335.574 438.551 337.938 438.551 340.854V389.861C438.551 392.777 440.914 395.141 443.828 395.141H492.814C495.729 395.141 498.091 392.777 498.091 389.861V340.854C498.091 337.938 495.729 335.574 492.814 335.574Z" fill="white"/>
<path d="M455.216 366.52C455.216 356.036 460.821 350.074 468.346 350.074C475.871 350.074 481.426 356.061 481.426 366.52C481.426 376.978 475.82 382.965 468.346 382.965C460.872 382.965 455.216 377.003 455.216 366.52ZM476.856 366.52C476.856 358.284 473.371 354.167 468.346 354.167C463.321 354.167 459.811 358.31 459.811 366.52C459.811 374.73 463.296 378.872 468.346 378.872C473.396 378.872 476.856 374.73 476.856 366.52Z" fill="#054857"/>
<path d="M178.269 366.115C178.269 377.104 172.057 382.965 163.068 382.965C160.038 382.965 157.134 382.359 155.089 381.07L156.831 377.483C158.523 378.595 160.694 378.999 163.042 378.999C169.557 378.999 173.698 374.906 173.698 366.873V365.737C171.804 368.541 168.421 369.955 164.431 369.955C158.043 369.955 153.447 366.141 153.447 360.204C153.447 354.268 158.396 350.049 164.785 350.049C173.42 350.049 178.294 355.834 178.294 366.09L178.269 366.115ZM172.612 360.002C172.612 356.693 169.961 353.788 164.936 353.788C160.745 353.788 157.866 356.213 157.866 360.027C157.866 363.842 160.669 366.242 165.164 366.242C169.658 366.242 172.612 363.539 172.612 360.002Z" fill="#054857"/>
<path d="M228.802 366.68C228.802 356.197 234.407 350.235 241.932 350.235C249.457 350.235 255.012 356.222 255.012 366.68C255.012 377.139 249.406 383.126 241.932 383.126C234.458 383.126 228.802 377.164 228.802 366.68ZM250.441 366.68C250.441 358.445 246.957 354.328 241.932 354.328C236.907 354.328 233.397 358.47 233.397 366.68C233.397 374.89 236.882 379.033 241.932 379.033C246.982 379.033 250.441 374.89 250.441 366.68Z" fill="#054857"/>
<path d="M329.046 378.755V382.747H305.942V379.614L319.022 366.984C322.431 363.674 323.062 361.653 323.062 359.632C323.062 356.323 320.714 354.302 316.219 354.302C312.785 354.302 309.982 355.414 307.988 357.788L304.856 355.085C307.331 352.003 311.598 350.21 316.623 350.21C323.34 350.21 327.658 353.645 327.658 359.178C327.658 362.31 326.749 365.114 322.38 369.282L312.558 378.755H329.046Z" fill="#054857"/>
<path d="M396.508 350.428V382.586H391.963V354.419H384.716V350.428H396.508Z" fill="#054857"/>
<g opacity="0.6">
<path d="M260.838 321.352V322.489H252.076V310.111H260.56V311.247H253.389V315.643H259.802V316.754H253.389V321.352H260.838Z" fill="white"/>
<path d="M272.2 317.083V322.489H270.938V317.209C270.938 315.239 269.903 314.228 268.135 314.228C266.14 314.228 264.878 315.466 264.878 317.588V322.464H263.615V313.167H264.827V314.885C265.509 313.748 266.746 313.091 268.362 313.091C270.635 313.091 272.175 314.405 272.175 317.083H272.2Z" fill="white"/>
<path d="M280.508 321.908C280.003 322.337 279.27 322.565 278.538 322.565C276.796 322.565 275.811 321.579 275.811 319.862V314.228H274.145V313.167H275.811V311.121H277.074V313.167H279.902V314.228H277.074V319.786C277.074 320.872 277.629 321.478 278.69 321.478C279.195 321.478 279.725 321.327 280.078 320.998L280.508 321.908Z" fill="white"/>
<path d="M290.532 318.22H282.755C282.906 320.165 284.371 321.453 286.416 321.453C287.552 321.453 288.562 321.049 289.269 320.24L289.976 321.049C289.143 322.034 287.855 322.565 286.391 322.565C283.487 322.565 281.518 320.594 281.518 317.815C281.518 315.037 283.437 313.091 286.063 313.091C288.689 313.091 290.583 315.011 290.583 317.815C290.583 317.916 290.583 318.068 290.583 318.194L290.532 318.22ZM282.755 317.285H289.345C289.194 315.466 287.855 314.178 286.037 314.178C284.219 314.178 282.906 315.441 282.755 317.285Z" fill="white"/>
<path d="M297.805 313.091V314.304C297.805 314.304 297.602 314.304 297.501 314.304C295.557 314.304 294.37 315.542 294.37 317.74V322.489H293.108V313.193H294.32V315.011C294.901 313.774 296.087 313.117 297.805 313.117V313.091Z" fill="white"/>
<path d="M312.651 313.167L308.005 323.575C307.223 325.394 306.238 325.975 304.9 325.975C304.041 325.975 303.208 325.697 302.627 325.116L303.208 324.181C303.662 324.636 304.243 324.889 304.9 324.889C305.733 324.889 306.288 324.51 306.819 323.322L307.223 322.413L303.056 313.117H304.369L307.879 321.024L311.389 313.117H312.626L312.651 313.167Z" fill="white"/>
<path d="M313.207 317.815C313.207 315.062 315.227 313.091 317.954 313.091C320.681 313.091 322.676 315.062 322.676 317.815C322.676 320.569 320.681 322.565 317.954 322.565C315.227 322.565 313.207 320.594 313.207 317.815ZM321.388 317.815C321.388 315.643 319.924 314.178 317.929 314.178C315.934 314.178 314.47 315.618 314.47 317.815C314.47 320.013 315.959 321.453 317.929 321.453C319.898 321.453 321.388 320.013 321.388 317.815Z" fill="white"/>
<path d="M333.61 313.167V322.464H332.398V320.771C331.741 321.908 330.529 322.565 329.065 322.565C326.691 322.565 325.125 321.226 325.125 318.573V313.167H326.388V318.447C326.388 320.417 327.423 321.428 329.191 321.428C331.135 321.428 332.347 320.165 332.347 318.043V313.167H333.61Z" fill="white"/>
<path d="M341.816 313.091V314.304C341.816 314.304 341.614 314.304 341.513 314.304C339.568 314.304 338.382 315.542 338.382 317.74V322.489H337.119V313.193H338.331V315.011C338.912 313.774 340.099 313.117 341.816 313.117V313.091Z" fill="white"/>
<path d="M348.002 316.3C348.002 312.687 350.755 310.01 354.517 310.01C358.279 310.01 361.006 312.687 361.006 316.3C361.006 319.912 358.229 322.59 354.517 322.59C350.805 322.59 348.002 319.912 348.002 316.3ZM359.693 316.3C359.693 313.344 357.471 311.172 354.517 311.172C351.563 311.172 349.29 313.344 349.29 316.3C349.29 319.255 351.512 321.428 354.517 321.428C357.522 321.428 359.693 319.255 359.693 316.3Z" fill="white"/>
<path d="M366.158 311.222H361.814V310.085H371.814V311.222H367.471V322.464H366.158V311.222Z" fill="white"/>
<path d="M383.605 314.329C383.605 316.957 381.686 318.548 378.555 318.548H375.222V322.464H373.909V310.085H378.53C381.686 310.085 383.58 311.677 383.58 314.329H383.605ZM382.292 314.329C382.292 312.359 380.979 311.222 378.505 311.222H375.222V317.411H378.505C380.979 317.411 382.292 316.274 382.292 314.329Z" fill="white"/>
</g>
<g opacity="0.6">
<path d="M268.21 427.703L268.715 426.693C269.599 427.551 271.165 428.183 272.806 428.183C275.129 428.183 276.139 427.223 276.139 425.985C276.139 422.6 268.513 424.672 268.513 420.099C268.513 418.281 269.927 416.714 273.084 416.714C274.473 416.714 275.937 417.118 276.922 417.801L276.493 418.836C275.432 418.154 274.195 417.801 273.109 417.801C270.837 417.801 269.826 418.811 269.826 420.049C269.826 423.434 277.452 421.388 277.452 425.909C277.452 427.728 276.013 429.295 272.831 429.295C270.963 429.295 269.145 428.638 268.236 427.678L268.21 427.703Z" fill="white"/>
<path d="M288.083 424.95H280.306C280.457 426.895 281.922 428.183 283.967 428.183C285.103 428.183 286.113 427.779 286.82 426.97L287.527 427.779C286.694 428.764 285.406 429.295 283.942 429.295C281.038 429.295 279.068 427.324 279.068 424.545C279.068 421.767 280.987 419.821 283.613 419.821C286.24 419.821 288.133 421.741 288.133 424.545C288.133 424.646 288.133 424.798 288.133 424.924L288.083 424.95ZM280.306 424.015H286.896C286.745 422.196 285.406 420.908 283.588 420.908C281.77 420.908 280.457 422.171 280.306 424.015Z" fill="white"/>
<path d="M299.218 423.813V429.219H297.955V423.939C297.955 421.969 296.92 420.958 295.153 420.958C293.158 420.958 291.895 422.196 291.895 424.318V429.193H290.633V419.897H291.845V421.615C292.527 420.478 293.764 419.821 295.38 419.821C297.652 419.821 299.193 421.135 299.193 423.813H299.218Z" fill="white"/>
<path d="M311.161 416.083V429.219H309.949V427.375C309.192 428.638 307.904 429.295 306.364 429.295C303.713 429.295 301.718 427.375 301.718 424.545C301.718 421.716 303.687 419.821 306.364 419.821C307.854 419.821 309.116 420.453 309.899 421.666V416.083H311.161ZM309.924 424.571C309.924 422.398 308.434 420.933 306.465 420.933C304.495 420.933 303.006 422.373 303.006 424.571C303.006 426.768 304.495 428.208 306.465 428.208C308.434 428.208 309.924 426.768 309.924 424.571Z" fill="white"/>
<path d="M326.312 423.459V429.219H325.1V427.779C324.544 428.739 323.433 429.32 321.893 429.32C319.797 429.32 318.509 428.234 318.509 426.617C318.509 425.177 319.418 423.99 322.095 423.99H325.049V423.434C325.049 421.842 324.14 420.983 322.423 420.983C321.211 420.983 320.1 421.413 319.317 422.07L318.762 421.135C319.696 420.327 321.085 419.872 322.549 419.872C324.948 419.872 326.312 421.085 326.312 423.484V423.459ZM325.049 426.44V424.924H322.12C320.327 424.924 319.721 425.632 319.721 426.592C319.721 427.678 320.58 428.335 322.07 428.335C323.559 428.335 324.519 427.653 325.024 426.44H325.049Z" fill="white"/>
<path d="M338.357 419.923V428.107C338.357 431.315 336.791 432.755 333.71 432.755C332.019 432.755 330.352 432.25 329.367 431.315L329.999 430.356C330.882 431.164 332.221 431.619 333.66 431.619C336.008 431.619 337.094 430.532 337.094 428.234V427.046C336.311 428.234 334.998 428.84 333.458 428.84C330.807 428.84 328.787 426.97 328.787 424.318C328.787 421.666 330.807 419.821 333.458 419.821C335.023 419.821 336.362 420.453 337.145 421.691V419.897H338.357V419.923ZM337.145 424.343C337.145 422.322 335.655 420.958 333.609 420.958C331.564 420.958 330.1 422.348 330.1 424.343C330.1 426.339 331.564 427.754 333.609 427.754C335.655 427.754 337.145 426.364 337.145 424.343Z" fill="white"/>
<path d="M348.886 423.459V429.219H347.674V427.779C347.118 428.739 346.007 429.32 344.467 429.32C342.371 429.32 341.083 428.234 341.083 426.617C341.083 425.177 341.993 423.99 344.669 423.99H347.623V423.434C347.623 421.842 346.714 420.983 344.997 420.983C343.785 420.983 342.674 421.413 341.891 422.07L341.336 421.135C342.27 420.327 343.659 419.872 345.124 419.872C347.522 419.872 348.886 421.085 348.886 423.484V423.459ZM347.623 426.44V424.924H344.694C342.902 424.924 342.296 425.632 342.296 426.592C342.296 427.678 343.154 428.335 344.644 428.335C346.134 428.335 347.093 427.653 347.598 426.44H347.623Z" fill="white"/>
<path d="M352.017 416.967C352.017 416.487 352.421 416.083 352.926 416.083C353.431 416.083 353.835 416.462 353.835 416.942C353.835 417.447 353.456 417.851 352.926 417.851C352.396 417.851 352.017 417.447 352.017 416.942V416.967ZM352.295 419.897H353.557V429.193H352.295V419.897Z" fill="white"/>
<path d="M365.602 423.813V429.219H364.339V423.939C364.339 421.969 363.304 420.958 361.536 420.958C359.542 420.958 358.279 422.196 358.279 424.318V429.193H357.017V419.897H358.229V421.615C358.91 420.478 360.148 419.821 361.764 419.821C364.036 419.821 365.577 421.135 365.577 423.813H365.602Z" fill="white"/>
</g>
<path opacity="0.4" d="M387.671 492.373H246.95C235.36 492.373 225.967 482.975 225.967 471.38C225.967 459.785 235.36 450.388 246.95 450.388H387.671C399.261 450.388 408.654 459.785 408.654 471.38C408.654 482.975 399.261 492.373 387.671 492.373Z" fill="white"/>
<path d="M262.428 470.319C262.428 466.151 265.61 463.094 269.928 463.094C272.099 463.094 274.018 463.852 275.306 465.292L273.993 466.555C272.907 465.419 271.569 464.888 270.029 464.888C266.847 464.888 264.474 467.187 264.474 470.319C264.474 473.452 266.847 475.75 270.029 475.75C271.594 475.75 272.907 475.195 273.993 474.058L275.306 475.321C274.018 476.786 272.124 477.544 269.928 477.544C265.635 477.544 262.453 474.487 262.453 470.319H262.428Z" fill="white"/>
<path d="M276.745 470.319C276.745 466.176 279.927 463.094 284.27 463.094C288.613 463.094 291.769 466.176 291.769 470.319C291.769 474.462 288.588 477.544 284.27 477.544C279.952 477.544 276.745 474.462 276.745 470.319ZM289.749 470.319C289.749 467.187 287.401 464.888 284.27 464.888C281.139 464.888 278.765 467.187 278.765 470.319C278.765 473.452 281.113 475.75 284.27 475.75C287.426 475.75 289.749 473.452 289.749 470.319Z" fill="white"/>
<path d="M307.021 463.246V477.393H305.354L296.87 466.858V477.393H294.85V463.246H296.517L305.001 473.78V463.246H307.021Z" fill="white"/>
<path d="M314.065 464.989H309.217V463.221H320.908V464.989H316.06V477.367H314.065V464.989Z" fill="white"/>
<path d="M323.105 463.246H325.125V477.393H323.105V463.246Z" fill="white"/>
<path d="M341.538 463.246V477.393H339.871L331.387 466.858V477.393H329.367V463.246H331.034L339.518 473.78V463.246H341.538Z" fill="white"/>
<path d="M345.654 471.279V463.246H347.674V471.203C347.674 474.336 349.113 475.751 351.638 475.751C354.163 475.751 355.628 474.336 355.628 471.203V463.246H357.597V471.279C357.597 475.372 355.35 477.544 351.613 477.544C347.876 477.544 345.628 475.372 345.628 471.279H345.654Z" fill="white"/>
<path d="M372.015 475.624V477.393H361.764V463.246H371.738V465.014H363.784V469.359H370.879V471.077H363.784V475.649H372.015V475.624Z" fill="white"/>
<path opacity="0.1" d="M562.083 144C479.489 226.782 267.36 411.014 27 397.398V144H562.083Z" fill="white"/>
<path opacity="0.1" d="M624.326 296.15V540.53H264.708C278.495 491.169 306.068 423.569 359.549 375.269C455.753 288.37 567.411 288.622 624.351 296.15H624.326Z" fill="white"/>
<path d="M700.197 104.861L708.58 141.894L716.963 104.861H700.197Z" fill="#FFA93D"/>
<path opacity="0.7" d="M700.197 104.861L708.58 141.894L716.963 104.861H700.197Z" fill="#FFA93D"/>
<path d="M802.411 0H614.774C602.795 0 593.084 9.71527 593.084 21.6997V91.371C593.084 103.355 602.795 113.071 614.774 113.071H802.411C814.39 113.071 824.101 103.355 824.101 91.371V21.6997C824.101 9.71527 814.39 0 802.411 0Z" fill="#FFA93D"/>
<path opacity="0.7" d="M802.411 0H614.774C602.795 0 593.084 9.71527 593.084 21.6997V91.371C593.084 103.355 602.795 113.071 614.774 113.071H708.592H802.411C814.39 113.071 824.101 103.355 824.101 91.371V21.6997C824.101 9.71527 814.39 0 802.411 0Z" fill="#FFA93D"/>
<g opacity="0.5">
<path d="M639.217 41.5047V46.4054H637.222V41.4794L631.616 32.259H633.788L638.308 39.7111L642.853 32.259H644.847L639.242 41.5047H639.217Z" fill="#014B5B"/>
<path d="M644.393 41.0247C644.393 37.8418 646.767 35.5682 649.973 35.5682C653.18 35.5682 655.529 37.8418 655.529 41.0247C655.529 44.2077 653.18 46.5065 649.973 46.5065C646.767 46.5065 644.393 44.2329 644.393 41.0247ZM653.559 41.0247C653.559 38.7512 652.019 37.2608 649.973 37.2608C647.928 37.2608 646.363 38.7259 646.363 41.0247C646.363 43.3235 647.928 44.814 649.973 44.814C652.019 44.814 653.559 43.3235 653.559 41.0247Z" fill="#014B5B"/>
<path d="M668.179 35.6693V46.3802H666.336V44.7635C665.553 45.875 664.215 46.5065 662.7 46.5065C659.922 46.5065 658.104 44.9908 658.104 41.8331V35.6693H660.048V41.6058C660.048 43.7025 661.109 44.7635 662.927 44.7635C664.947 44.7635 666.235 43.5004 666.235 41.2016V35.6693H668.179Z" fill="#014B5B"/>
<path d="M677.648 35.5682V37.4376C677.496 37.4376 677.345 37.4376 677.193 37.4376C675.123 37.4376 673.81 38.7007 673.81 41.05V46.3802H671.865V35.6693H673.734V37.4629C674.416 36.1998 675.754 35.5682 677.622 35.5682H677.648Z" fill="#014B5B"/>
<path d="M684.743 39.307C684.743 35.1641 687.925 32.0822 692.268 32.0822C696.611 32.0822 699.767 35.1388 699.767 39.307C699.767 43.4751 696.586 46.5318 692.268 46.5318C687.95 46.5318 684.743 43.4498 684.743 39.307ZM697.747 39.307C697.747 36.1745 695.399 33.8757 692.268 33.8757C689.137 33.8757 686.763 36.1745 686.763 39.307C686.763 42.4394 689.112 44.7382 692.268 44.7382C695.424 44.7382 697.747 42.4394 697.747 39.307Z" fill="#014B5B"/>
<path d="M705.474 34.002H700.626V32.2337H712.317V34.002H707.469V46.3802H705.474V34.002Z" fill="#014B5B"/>
<path d="M725.927 37.185C725.927 40.2669 723.705 42.111 720.044 42.111H716.559V46.3802H714.539V32.2337H720.044C723.73 32.2337 725.927 34.1031 725.927 37.1597V37.185ZM723.907 37.185C723.907 35.164 722.543 34.002 719.968 34.002H716.534V40.3427H719.968C722.543 40.3427 723.907 39.1806 723.907 37.1597V37.185Z" fill="#014B5B"/>
<path d="M733.376 39.307C733.376 35.1135 736.558 32.0822 740.875 32.0822C743.047 32.0822 744.966 32.84 746.254 34.2799L744.941 35.543C743.855 34.381 742.517 33.8757 740.976 33.8757C737.795 33.8757 735.421 36.1745 735.421 39.307C735.421 42.4394 737.795 44.7382 740.976 44.7382C742.542 44.7382 743.855 44.1824 744.941 43.0457L746.254 44.3087C744.966 45.7739 743.072 46.5318 740.875 46.5318C736.583 46.5318 733.401 43.4751 733.401 39.307H733.376Z" fill="#014B5B"/>
<path d="M747.415 41.0247C747.415 37.8418 749.789 35.5682 752.995 35.5682C756.202 35.5682 758.551 37.8418 758.551 41.0247C758.551 44.2077 756.202 46.5065 752.995 46.5065C749.789 46.5065 747.415 44.2329 747.415 41.0247ZM756.581 41.0247C756.581 38.7512 755.041 37.2608 752.995 37.2608C750.95 37.2608 749.385 38.7259 749.385 41.0247C749.385 43.3235 750.95 44.814 752.995 44.814C755.041 44.814 756.581 43.3235 756.581 41.0247Z" fill="#014B5B"/>
<path d="M771.327 31.4001V46.3802H769.459V44.6877C768.6 45.9002 767.211 46.5065 765.646 46.5065C762.515 46.5065 760.242 44.3087 760.242 41.0247C760.242 37.7407 762.515 35.5682 765.646 35.5682C767.161 35.5682 768.499 36.124 769.383 37.286V31.4001H771.327ZM769.408 41.0247C769.408 38.7512 767.843 37.2608 765.823 37.2608C763.803 37.2608 762.212 38.7259 762.212 41.0247C762.212 43.3235 763.777 44.814 765.823 44.814C767.868 44.814 769.408 43.3235 769.408 41.0247Z" fill="#014B5B"/>
<path d="M784.634 41.6815H775.948C776.201 43.5509 777.716 44.814 779.837 44.814C781.099 44.814 782.135 44.3845 782.917 43.5256L783.978 44.7887C783.018 45.9255 781.529 46.5318 779.761 46.5318C776.302 46.5318 774.004 44.2582 774.004 41.05C774.004 37.8418 776.276 35.5935 779.382 35.5935C782.488 35.5935 784.685 37.8165 784.685 41.1005C784.685 41.2521 784.685 41.5047 784.634 41.6815ZM775.948 40.2922H782.816C782.614 38.4986 781.251 37.2102 779.382 37.2102C777.514 37.2102 776.15 38.4733 775.948 40.2922Z" fill="#014B5B"/>
</g>
<g opacity="0.5">
<path d="M679.39 68.5093C679.39 76.4667 674.896 80.7106 668.381 80.7106C666.184 80.7106 664.089 80.2812 662.599 79.3465L663.861 76.7445C665.099 77.5529 666.664 77.8308 668.356 77.8308C673.078 77.8308 676.057 74.8752 676.057 69.0398V68.2061C674.694 70.2271 672.244 71.2628 669.341 71.2628C664.72 71.2628 661.387 68.5093 661.387 64.2148C661.387 59.9204 664.972 56.8637 669.593 56.8637C675.855 56.8637 679.365 61.0571 679.365 68.484L679.39 68.5093ZM675.3 64.0885C675.3 61.6887 673.381 59.592 669.745 59.592C666.715 59.592 664.619 61.3603 664.619 64.1138C664.619 66.8673 666.639 68.6103 669.896 68.6103C673.153 68.6103 675.274 66.6399 675.274 64.0885H675.3Z" fill="#014B5B"/>
<path d="M682.597 68.8124C682.597 61.234 686.663 56.9142 692.117 56.9142C697.571 56.9142 701.586 61.234 701.586 68.8124C701.586 76.3909 697.52 80.7106 692.117 80.7106C686.713 80.7106 682.597 76.3909 682.597 68.8124ZM698.253 68.8124C698.253 62.8507 695.727 59.8698 692.091 59.8698C688.455 59.8698 685.905 62.876 685.905 68.8124C685.905 74.7489 688.43 77.755 692.091 77.755C695.753 77.755 698.253 74.7489 698.253 68.8124Z" fill="#014B5B"/>
<path d="M721.054 77.5529V80.458H704.338V78.1844L713.807 69.0398C716.256 66.6399 716.736 65.1748 716.736 63.7096C716.736 61.3097 715.044 59.8446 711.787 59.8446C709.287 59.8446 707.267 60.6529 705.828 62.3707L703.555 60.4003C705.348 58.1773 708.454 56.8637 712.065 56.8637C716.913 56.8637 720.044 59.3646 720.044 63.3559C720.044 65.6295 719.387 67.6504 716.231 70.6818L709.11 77.5276H721.054V77.5529Z" fill="#014B5B"/>
<path d="M731.002 57.1669V80.458H727.72V60.072H722.468V57.1669H731.002Z" fill="#014B5B"/>
<path d="M736.078 68.8124C736.078 61.234 740.143 56.9142 745.597 56.9142C751.051 56.9142 755.066 61.234 755.066 68.8124C755.066 76.3909 751.001 80.7106 745.597 80.7106C740.193 80.7106 736.078 76.3909 736.078 68.8124ZM751.733 68.8124C751.733 62.8507 749.208 59.8698 745.572 59.8698C741.936 59.8698 739.385 62.876 739.385 68.8124C739.385 74.7489 741.91 77.755 745.572 77.755C749.233 77.755 751.733 74.7489 751.733 68.8124Z" fill="#014B5B"/>
</g>
<path d="M687.824 213.485L690.424 215.203L693.278 217.022C695.222 218.234 697.217 219.396 699.212 220.533C703.226 222.782 707.317 224.954 711.483 226.849C719.841 230.663 728.426 233.77 737.163 235.715L737.567 235.816C737.719 235.842 737.895 235.892 737.719 235.867C737.592 235.867 737.441 235.867 737.087 235.867C736.507 235.892 735.345 236.069 733.956 236.903C732.593 237.736 731.684 239.025 731.381 239.757C731.052 240.54 731.078 240.894 731.078 240.945C731.153 241.096 731.229 240.439 731.204 239.681C731.204 238.924 731.078 237.989 730.926 237.004C730.244 233.012 729.007 228.415 727.543 223.918C724.664 214.875 721.23 205.578 717.821 196.434L727.568 191.205C733.401 199.642 738.602 208.281 743.173 217.628C745.395 222.352 747.592 227.126 749.182 232.785C749.586 234.225 749.94 235.741 750.218 237.433C750.47 239.151 750.697 240.995 750.445 243.622C750.319 244.885 750.016 246.477 749.132 248.371C748.298 250.216 746.581 252.514 744.157 253.98C741.708 255.47 739.284 255.849 737.466 255.925C736.507 255.95 735.724 255.925 734.991 255.824L734.234 255.723L733.729 255.647C722.896 254.182 712.418 251.226 702.62 247.058C697.697 244.986 692.874 242.738 688.202 240.161C685.879 238.848 683.581 237.509 681.309 236.069C680.173 235.336 679.036 234.629 677.925 233.871C676.764 233.088 675.754 232.356 674.416 231.345L687.773 213.46L687.824 213.485Z" fill="#DC897C"/>
<path d="M684.995 210.605C699.54 212.273 709.312 220.483 709.312 220.483L699.161 251.756C699.161 251.756 650.15 206.614 685.021 210.605H684.995Z" fill="#FFA93D"/>
<path opacity="0.6" d="M684.894 237.029C691.838 245.062 699.11 251.756 699.11 251.756L703.277 238.898L709.261 220.482C709.261 220.482 699.489 212.247 684.97 210.605C663.533 208.155 673.784 224.246 684.869 237.004L684.894 237.029Z" fill="#FFA93D"/>
<path opacity="0.2" d="M684.894 237.029C691.838 245.062 699.11 251.756 699.11 251.756L703.277 238.898C694.363 232.027 684.945 232.583 684.945 232.583C684.768 234.099 684.768 235.614 684.869 237.029H684.894Z" fill="black"/>
<path d="M575.914 164.478C575.914 164.478 552.431 242.587 601.896 253.07C651.362 263.554 656.538 227.606 656.538 227.606C656.538 227.606 616.011 166.069 575.914 164.478Z" fill="#054857"/>
<path d="M564.298 189.739C564.298 189.739 566.722 185.243 571.065 184.965" stroke="#054857" stroke-width="0.48" stroke-linecap="round" stroke-linejoin="round"/>
<path d="M571.368 200.046C571.368 200.046 570.838 205.351 569.323 208.963C569.323 208.963 571.671 210.656 574.499 209.064L571.368 200.071V200.046Z" fill="#DE5753"/>
<path d="M566.596 196.636C567.126 198.025 568.288 198.859 569.222 198.505C570.156 198.151 570.459 196.737 569.929 195.373C569.399 193.983 568.237 193.15 567.303 193.503C566.369 193.857 566.066 195.272 566.596 196.636Z" fill="#054857"/>
<path d="M567.732 193.428H564.273C564.273 193.428 566.747 195.348 567.732 193.428Z" fill="#054857"/>
<path d="M616.87 209.721C616.769 209.949 616.668 210.176 616.516 210.353C616.289 210.782 616.036 211.186 615.784 211.616C614.294 214.142 612.451 216.643 609.976 218.563C602.325 224.6 595.811 226.419 590.079 224.676C589.801 224.6 589.523 224.499 589.245 224.398H589.22C580.711 220.963 574.171 210.782 568.793 197.318C566.293 191.154 564.677 185.546 564.424 180.696C564.424 180.645 564.348 180.494 564.348 180.443C564.348 180.241 564.298 179.988 564.298 179.786C564.096 172.94 566.47 167.332 572.277 162.684C574.297 161.068 576.721 159.552 579.6 158.162C604.977 145.835 629.52 185.9 616.87 209.721Z" fill="#E4897B"/>
<path opacity="0.2" d="M615.784 211.616C614.294 214.142 612.451 216.643 609.976 218.563C602.325 224.6 595.81 226.419 590.079 224.676C594.725 223.438 600.28 220.963 604.446 215.961C607.173 212.753 611.314 211.641 615.784 211.616Z" fill="black"/>
<path d="M564.323 180.544C564.323 180.544 571.368 199.086 591.947 198.758C591.947 198.758 608.006 213.889 618.839 209.09C633.61 202.547 636.666 175.669 621.591 156.874C602.047 132.522 559.424 149.952 564.323 180.519V180.544Z" fill="#171714"/>
<path d="M580.938 197.697C579.625 194.893 579.65 189.158 584.297 187.744C589.094 186.279 596.821 196.181 586.948 203.861C585.534 204.972 583.691 203.532 580.938 197.697Z" fill="#E4897B"/>
<path d="M586.468 146.795C586.468 146.795 567.379 150.559 561.192 161.876C553.971 175.088 553.718 185.369 572.833 192.063C572.833 192.063 597.073 169.227 607.527 166.701C617.981 164.175 626.111 163.72 626.111 163.72C619.167 143.839 594.195 138.433 586.493 146.82L586.468 146.795Z" fill="#171714"/>
<path d="M604.977 219.068C604.977 219.068 618.107 228.162 621.541 243.168L662.472 219.27C662.472 219.27 630.429 211.944 624.899 199.541C624.899 199.541 603.487 202.193 604.977 219.043V219.068Z" fill="#E4897B"/>
<path d="M645.63 317.462C645.63 317.462 592.705 265.322 586.897 248.952C586.897 248.952 609.194 214.218 653.761 212.753C698.328 211.287 728.654 296.116 728.654 296.116L645.63 317.436V317.462Z" fill="#FFA93D"/>
<path d="M596.038 189.866C596.038 189.866 603.79 215.632 631.01 224.196C658.23 232.76 651.387 260.522 677.774 257.263C691.813 255.52 703.832 226.924 660.78 201.713C635.681 187.036 645.428 138.787 592.149 143.309C592.149 143.309 603.184 176.376 596.038 189.866Z" fill="#171714"/>
<path d="M622.526 710.228L609.926 707.348C611.82 644.245 620.935 567.829 628.99 510.46C630.252 501.467 631.49 492.979 632.676 485.047C633.257 481.283 633.788 477.67 634.318 474.184C636.919 456.981 639.166 443.391 640.555 434.978C641.565 428.84 642.171 425.48 642.171 425.48L687.546 436.57L684.288 448.039L673.557 485.88L672.345 490.2L665.224 515.184L653.155 557.724C653.963 621.964 622.526 710.228 622.526 710.228Z" fill="#E4897B"/>
<path d="M730.598 699.669L717.67 699.012C707.822 631.109 703.681 546.205 701.888 487.143C701.61 477.999 701.408 469.435 701.231 461.705C701.231 461.301 701.231 460.922 701.231 460.568C700.903 445.184 700.752 432.958 700.676 425.202C700.651 419.139 700.625 415.805 700.625 415.805L747.263 418.862L745.268 438.313L742.339 466.884L741.759 472.492L739.738 491.943L734.36 544.134C746.278 607.262 730.623 699.669 730.623 699.669H730.598Z" fill="#E4897B"/>
<path d="M735.446 697.143C735.396 695.526 715.498 696.789 715.498 696.789C715.498 696.789 703.252 709.243 691.359 712.047C679.466 714.851 686.106 721.975 699.413 721.975H732.29C741.733 721.975 735.825 713.916 735.446 697.143Z" fill="#FFA93D"/>
<path d="M703.277 701.412C702.898 701.084 702.494 700.477 702.797 699.29C702.949 698.709 703.302 698.254 703.858 697.951C704.918 697.345 706.635 697.294 708.327 697.471C706.711 696.612 705.297 695.551 705.221 694.516C705.171 693.833 705.625 693.278 706.534 692.848C707.393 692.444 708.251 692.419 709.11 692.772C711.812 693.884 713.478 698.532 713.554 698.734C713.604 698.861 713.579 699.012 713.554 699.138C713.554 699.189 713.503 699.214 713.478 699.239C713.478 699.239 713.377 699.341 713.301 699.366C712.266 699.871 707.847 701.892 705.044 701.892C704.312 701.892 703.706 701.766 703.302 701.412H703.277ZM704.388 698.861C704.085 699.037 703.883 699.265 703.807 699.568C703.605 700.351 703.858 700.553 703.933 700.629C704.868 701.412 708.529 700.3 711.458 699.063C709.236 698.557 705.802 698.052 704.388 698.886V698.861ZM706.989 693.783C706.711 693.909 706.256 694.162 706.282 694.44C706.332 695.324 709.185 696.89 712.14 698.002C711.458 696.486 710.195 694.339 708.731 693.732C708.453 693.631 708.201 693.556 707.923 693.556C707.62 693.556 707.317 693.631 707.014 693.783H706.989Z" fill="#FFA93D"/>
<path d="M628.94 697.143C628.889 695.526 608.992 696.789 608.992 696.789C608.992 696.789 596.745 709.243 584.852 712.047C572.959 714.851 579.6 721.975 592.907 721.975H625.783C635.227 721.975 629.318 713.916 628.94 697.143Z" fill="#FFA93D"/>
<path d="M596.77 701.412C596.392 701.084 595.988 700.477 596.291 699.29C596.442 698.709 596.796 698.254 597.351 697.951C598.412 697.345 600.129 697.294 601.821 697.471C600.205 696.612 598.791 695.551 598.715 694.516C598.664 693.833 599.119 693.278 600.028 692.848C600.886 692.444 601.745 692.419 602.603 692.772C605.305 693.884 606.972 698.532 607.047 698.734C607.098 698.861 607.073 699.012 607.047 699.138C607.047 699.189 606.997 699.214 606.972 699.239C606.972 699.239 606.871 699.341 606.795 699.366C605.76 699.871 601.316 701.892 598.538 701.892C597.806 701.892 597.2 701.766 596.77 701.412ZM597.882 698.861C597.579 699.037 597.377 699.265 597.301 699.568C597.099 700.351 597.351 700.553 597.427 700.629C598.361 701.412 602.023 700.3 604.952 699.063C602.73 698.557 599.296 698.052 597.882 698.886V698.861ZM600.482 693.783C600.205 693.909 599.75 694.162 599.775 694.44C599.826 695.324 602.679 696.89 605.633 698.002C604.952 696.486 603.689 694.339 602.225 693.732C601.947 693.631 601.694 693.556 601.417 693.556C601.114 693.556 600.811 693.631 600.508 693.783H600.482Z" fill="#FFA93D"/>
<path d="M634.873 444.451L645.655 368.743V317.462C674.011 296.141 728.679 296.141 728.679 296.141C728.679 296.141 770.696 354.394 750.268 450.337L697.545 458.042L694.187 440.157L687.571 458.042L634.898 444.477L634.873 444.451Z" fill="#054857"/>
<path opacity="0.2" d="M634.873 444.451L645.655 368.743V317.462C674.011 296.141 728.679 296.141 728.679 296.141C728.679 296.141 770.696 354.394 750.268 450.337L697.545 458.042L694.187 440.157L687.571 458.042L634.898 444.477L634.873 444.451Z" fill="white"/>
<path opacity="0.2" d="M694.162 440.157L704.312 408.605C704.312 408.605 714.968 405.372 728.654 384.203C728.654 384.203 726.28 420.251 694.162 440.157Z" fill="black"/>
<path opacity="0.2" d="M671.688 332.012L695.348 329.739C695.348 329.739 701.08 341.056 699.136 357.855L683.96 366.974L672.976 359.169C672.976 359.169 672.648 339.111 671.688 332.012Z" fill="black"/>
<path opacity="0.2" d="M728.654 326.202C728.654 326.202 733.073 336.231 735.648 350.428L744.057 353.99L748.576 348.357C748.576 348.357 745.496 331.836 740.345 323.777L728.679 326.202H728.654Z" fill="black"/>
<path d="M633.888 440.157L689.844 456.577L686.334 464.105L633.156 447.736L633.888 440.157Z" fill="#054857"/>
<path d="M695.348 455.491L696.282 462.387L751.152 455.491L751.985 446.776L695.348 455.491Z" fill="#054857"/>
<path d="M706.862 306.65C723.048 304.073 734.007 303.997 734.007 303.997L730.623 298.415C721.407 298.137 712.519 298.793 704.161 300.006L706.862 306.65Z" fill="#054857"/>
<path d="M656.538 313.597C649.317 316.729 645.125 319.104 645.125 319.104L645.175 326C649.241 323.929 653.357 322.059 657.422 320.367L656.538 313.622V313.597Z" fill="#054857"/>
<path d="M660.023 319.306C675.627 313.091 690.904 309.403 703.479 307.206L700.954 300.486C683.682 303.315 668.961 308.418 658.987 312.561L660.023 319.306Z" fill="#054857"/>
<path d="M508.318 339.086L493.975 333.326L491.551 346.866C491.551 346.866 504.48 354.723 509.858 345.376L508.292 339.086H508.318Z" fill="#E4897B"/>
<path d="M486.855 334.16L482.259 344.618L491.551 346.866L493.976 333.326L486.855 334.16Z" fill="#E4897B"/>
<path d="M728.426 193.554L726.735 178.195L713.655 182.464C713.655 182.464 712.847 197.57 723.629 197.899L728.426 193.554Z" fill="#E4897B"/>
<path d="M722.619 172.309L711.231 173.193L713.655 182.439L726.735 178.195L722.619 172.309Z" fill="#E4897B"/>
<path opacity="0.2" d="M621.162 292.276C617.173 287.956 613.006 283.409 608.991 278.913C607.451 269.515 606.466 261.255 606.466 261.255C606.466 261.255 622.223 271.764 621.162 292.276Z" fill="black"/>
<path d="M607.931 256.91C606.441 263.2 604.674 268.909 602.83 274.846C600.962 280.706 598.816 286.466 596.619 292.225C594.447 297.985 592.023 303.669 589.372 309.277C588.084 312.081 586.721 314.885 585.281 317.664C584.599 319.053 583.817 320.417 583.084 321.807L581.973 323.878L581.393 324.939C581.064 325.52 580.711 326.126 580.357 326.657C577.378 330.977 573.944 333.478 570.737 335.448C567.48 337.393 564.298 338.833 561.167 340.046C554.88 342.42 548.693 343.936 542.532 345.148C530.185 347.422 518.115 348.609 505.692 348.66L504.682 337.646C510.313 336.433 516.12 335.145 521.751 333.68C527.407 332.29 533.013 330.749 538.442 328.956C543.845 327.213 549.148 325.242 553.844 322.918C556.193 321.781 558.364 320.518 560.132 319.205C561.874 317.916 563.187 316.527 563.465 315.82C563.515 315.719 563.515 315.668 563.541 315.618L563.97 314.658L564.854 312.713C565.434 311.399 566.04 310.136 566.596 308.797C567.707 306.17 568.843 303.543 569.904 300.84C572.025 295.509 574.045 290.078 575.989 284.622C577.933 279.165 579.676 273.633 581.418 268.075C583.185 262.594 584.801 256.859 586.291 251.554L607.956 256.935L607.931 256.91Z" fill="#DC897C"/>
<path d="M595.558 237.863C583.186 245.946 576.595 266.964 574.5 277.245L600.154 296.141L613.108 283.51C618.36 254.51 600.255 234.806 595.558 237.863Z" fill="#FFA93D" fill-opacity="0.79"/>
<path d="M720.801 198.48L702.494 200.425C701.459 200.526 700.601 199.667 700.575 198.455L699.464 159.628C699.439 158.44 700.247 157.379 701.257 157.278L719.564 155.333C720.599 155.232 721.458 156.091 721.483 157.304L722.594 196.131C722.619 197.318 721.811 198.379 720.801 198.48Z" fill="#054857"/>
<path opacity="0.6" d="M720.801 198.48L702.494 200.425C701.459 200.526 700.601 199.667 700.575 198.455L699.464 159.628C699.439 158.44 700.247 157.379 701.257 157.278L719.564 155.333C720.599 155.232 721.458 156.091 721.483 157.304L722.594 196.131C722.619 197.318 721.811 198.379 720.801 198.48Z" fill="white"/>
<path d="M719.185 198.657L700.878 200.602C699.843 200.703 698.985 199.844 698.959 198.631L697.848 159.804C697.823 158.617 698.631 157.556 699.641 157.455L717.948 155.51C718.983 155.409 719.841 156.268 719.867 157.48L720.978 196.307C721.003 197.495 720.195 198.556 719.185 198.657Z" fill="#054857"/>
<path opacity="0.7" d="M719.185 198.657L700.878 200.602C699.843 200.703 698.985 199.844 698.959 198.631L697.848 159.804C697.823 158.617 698.631 157.556 699.641 157.455L717.948 155.51C718.983 155.409 719.841 156.268 719.867 157.48L720.978 196.307C721.003 197.495 720.195 198.556 719.185 198.657Z" fill="white"/>
<path d="M717.973 156.268L713.175 156.773L712.569 158.238L705.146 159.021L704.439 157.683L699.641 158.188C698.984 158.264 698.454 158.946 698.479 159.729L699.59 198.556C699.59 199.339 700.171 199.895 700.853 199.819L719.16 197.874C719.816 197.798 720.346 197.116 720.321 196.333L719.21 157.506C719.21 156.723 718.629 156.167 717.947 156.243L717.973 156.268Z" fill="#014B5B"/>
<path opacity="0.8" d="M715.523 170.288L702.065 171.728C701.408 171.804 700.853 171.248 700.828 170.49L700.727 166.751C700.727 165.994 701.232 165.311 701.888 165.261L715.347 163.821C716.003 163.745 716.559 164.301 716.584 165.059L716.685 168.798C716.685 169.555 716.18 170.238 715.523 170.288Z" fill="white"/>
</g>
<defs>
<clipPath id="clip0_2_1076">
<rect width="882" height="722" fill="white"/>
</clipPath>
</defs>
</svg>
