<svg width="27" height="18" viewBox="0 0 27 18" fill="none" xmlns="http://www.w3.org/2000/svg">
<path fill-rule="evenodd" clip-rule="evenodd" d="M21.8218 13.863C23.2371 12.6562 24.3876 11.3848 25.1757 10.4279C25.7407 9.74204 26.0231 9.3991 26.0231 8.8769C26.0231 8.3547 25.7407 8.01176 25.1757 7.32588C23.109 4.81658 18.5504 0.144592 13.259 0.144592C11.7844 0.144592 10.3667 0.507433 9.04397 1.08519L12.5301 4.57132C12.7671 4.53148 13.0106 4.51075 13.259 4.51075C15.6704 4.51075 17.6251 6.46554 17.6251 8.8769C17.6251 9.12525 17.6044 9.36876 17.5646 9.60579L21.8218 13.863ZM9.85658 6.14044C9.2537 6.88909 8.89284 7.84085 8.89284 8.8769C8.89284 11.2883 10.8476 13.2431 13.259 13.2431C14.295 13.2431 15.2468 12.8822 15.9955 12.2793L19.378 15.6618C17.5516 16.794 15.4692 17.6092 13.259 17.6092C7.96761 17.6092 3.40904 12.9372 1.34226 10.4279C0.777335 9.74204 0.494873 9.3991 0.494873 8.8769C0.494873 8.3547 0.777336 8.01176 1.34226 7.32588C2.41637 6.02178 4.1635 4.13357 6.33674 2.62059L9.85658 6.14044Z" fill="white"/>
</svg>
