<svg width="984" height="719" viewBox="0 0 984 719" fill="none" xmlns="http://www.w3.org/2000/svg">
<g clip-path="url(#clip0_2_452)" filter="url(#filter0_d_2_452)">
<path d="M32.8523 41.1738C195.632 -9.83401 356.454 0.956526 356.454 0.956526C365.918 64.3133 363.089 107.089 363.089 107.089C201.977 117.019 62.3068 151.454 62.3068 151.454C44.875 114.515 32.8523 41.1738 32.8523 41.1738Z" fill="#FFE9B1"/>
<path d="M65.1244 145.586C63.1995 145.844 63.6081 148.832 65.5331 148.574C67.458 148.316 67.0493 145.328 65.1244 145.586Z" fill="#014B5B"/>
<path d="M37.7882 41.3136C35.8633 41.5715 36.272 44.5593 38.1969 44.3014C40.1218 44.0434 39.7132 41.0556 37.7882 41.3136Z" fill="#014B5B"/>
<path d="M360.003 102.499C358.078 102.757 358.487 105.745 360.412 105.487C362.337 105.229 361.928 102.241 360.003 102.499Z" fill="#014B5B"/>
<path d="M354.96 2.95558C354.852 2.70838 354.702 2.51493 354.486 2.35371C354.379 2.28923 354.261 2.22474 354.153 2.16026C353.906 2.05278 353.637 2.02054 353.368 2.06353L353.11 2.09577C352.906 2.11727 352.723 2.18175 352.551 2.29998C352.379 2.38596 352.228 2.51493 352.11 2.67614C351.981 2.82661 351.906 3.00931 351.863 3.20277C351.798 3.39622 351.777 3.58968 351.809 3.79388C351.841 3.92285 351.884 4.05183 351.916 4.1808C352.024 4.42799 352.174 4.62144 352.389 4.78266L352.723 4.97611C352.97 5.08359 353.239 5.11583 353.508 5.07284L353.766 5.0406C353.97 5.0191 354.153 4.95462 354.325 4.8364C354.497 4.75042 354.648 4.62145 354.766 4.46023C354.895 4.30977 354.97 4.12706 355.013 3.9336C355.078 3.74015 355.099 3.54669 355.067 3.34249C355.035 3.21352 354.992 3.08455 354.96 2.95558Z" fill="#014B5B"/>
<path d="M108.903 45.3761L121.033 41.679L122.926 47.891L121.409 48.3532L122.85 73.3412L111.516 76.7912L103.074 61.4759L102.698 61.5942L104.053 79.0697L92.7185 82.5196L79.5989 61.089L78.0826 61.5512L76.1899 55.3391L90.2236 51.0723L92.1163 57.2844L90.6753 57.725L95.095 66.9357L95.4714 66.8175L94.2347 49.8471L105.15 46.5261L113.323 61.39L113.699 61.2717L112.237 51.1583L110.796 51.5989L108.903 45.3869V45.3761Z" fill="#014B5B" fill-opacity="0.95"/>
<path d="M131.475 71.5357L130.26 65.1516L132.206 64.7754L128.862 47.2677L126.915 47.6439L125.7 41.2598L151.982 36.2515L154.23 47.9985L145.509 49.6644L144.487 44.2906L139.777 45.1934L140.949 51.341L144.379 50.6854L145.229 55.1242L141.799 55.7798L143.121 62.7012L147.831 61.7984L146.659 55.6508L155.381 53.9849L157.768 66.5166L131.486 71.5249L131.475 71.5357Z" fill="#014B5B" fill-opacity="0.95"/>
<path d="M158.94 65.4525L158.349 58.9825L160.327 58.7998L158.703 41.0448L156.725 41.2276L156.133 34.7575L172.791 33.2421L173.382 39.7121L169.748 40.0453L171.371 57.8003L174.92 57.4778L174.587 53.8452L182.437 53.1251L183.362 63.2278L158.929 65.4525H158.94Z" fill="#014B5B" fill-opacity="0.95"/>
<path d="M188.825 58.3162C185.803 56.1667 183.91 52.3298 183.157 46.8163C181.727 36.273 186.136 30.2973 196.406 28.9109C198.89 28.5777 201.245 28.5562 203.461 28.8679C205.676 29.1796 207.353 29.631 208.504 30.2221L209.838 40.0346L200.417 41.3136L200.03 38.487C199.89 37.4874 199.568 36.7888 199.062 36.3804C198.557 35.972 197.858 35.8216 196.965 35.9505C196.073 36.0688 195.438 36.4019 195.062 36.9286C194.685 37.4552 194.556 38.2183 194.696 39.2178L196.309 51.0723C196.449 52.0719 196.772 52.7704 197.277 53.1788C197.783 53.5873 198.482 53.7377 199.374 53.6088C200.267 53.4905 200.901 53.1574 201.278 52.6307C201.654 52.1041 201.783 51.341 201.643 50.3415L201.213 47.1602L210.644 45.8813L212.031 56.0484C211.053 56.9297 209.558 57.811 207.536 58.7031C205.515 59.5951 203.267 60.197 200.804 60.5409C195.858 61.218 191.868 60.4764 188.846 58.3269L188.825 58.3162Z" fill="#014B5B" fill-opacity="0.95"/>
<path d="M217.505 54.9737C214.537 52.8457 212.644 49.0303 211.827 43.5168C211.01 38.0033 211.72 33.801 213.956 30.9099C216.193 28.0188 219.699 26.224 224.484 25.5147C229.27 24.8053 233.141 25.5147 236.12 27.6427C239.088 29.7707 240.981 33.5861 241.798 39.0996C242.615 44.613 241.905 48.8153 239.669 51.7064C237.432 54.5975 233.926 56.3924 229.151 57.1017C224.366 57.811 220.495 57.1017 217.516 54.9737H217.505ZM230.001 49.127C230.377 48.5896 230.485 47.8266 230.345 46.8378L228.603 35.0047C228.452 34.016 228.13 33.3174 227.614 32.909C227.097 32.5006 226.398 32.3716 225.506 32.5006C224.613 32.6295 223.99 32.9627 223.613 33.5001C223.237 34.0375 223.119 34.8005 223.269 35.7893L225.011 47.6224C225.162 48.6434 225.495 49.3527 226.001 49.7396C226.517 50.1265 227.216 50.2663 228.098 50.1265C228.99 49.9976 229.614 49.6644 229.99 49.127H230.001Z" fill="#014B5B" fill-opacity="0.95"/>
<path d="M286.49 27.46L284.512 27.5997L285.77 45.3761L287.748 45.2364L288.211 51.7172L273.263 52.7704L272.801 46.2897L274.693 46.1607L273.715 32.3286L268.424 53.1144L262.574 53.5228L254.229 33.8977L255.197 47.5256L257.09 47.3967L257.552 53.8774L244.583 54.791L244.12 48.3102L246.099 48.1705L244.841 30.394L242.862 30.5338L242.4 24.053L260.509 22.774L265.488 34.8113L268.575 22.2044L286.006 20.9684L286.469 27.4492L286.49 27.46Z" fill="#014B5B" fill-opacity="0.95"/>
<path d="M290.609 50.9541L290.695 44.4626L292.674 44.4841L292.9 26.6646L290.921 26.6431L291.007 20.1516L317.762 20.4955L317.612 32.4576L308.729 32.3393L308.804 26.8688L304.008 26.8043L303.933 33.0594L307.417 33.1024L307.363 37.6164L303.879 37.5734L303.793 44.6238L308.589 44.6883L308.665 38.4332L317.547 38.5514L317.386 51.3087L290.631 50.9648L290.609 50.9541Z" fill="#014B5B" fill-opacity="0.95"/>
<path d="M145.358 108.346L147.272 107.852L142.82 90.591L140.906 91.0854L139.282 84.7981L156.897 80.2626C160.091 79.4351 162.758 79.4458 164.887 80.2949C167.016 81.1332 168.393 82.7775 169.016 85.2065C169.403 86.7111 169.371 88.0761 168.93 89.3013C168.479 90.5265 167.844 91.5153 167.016 92.2891C166.188 93.0629 165.36 93.6541 164.511 94.0625L164.607 94.4494C166.468 94.1592 168.253 94.3097 169.963 94.9115C171.673 95.5026 172.845 97.061 173.501 99.5652C174.189 102.252 173.683 104.477 171.984 106.239C170.285 108.002 167.823 109.292 164.597 110.13L146.982 114.666L145.358 108.378V108.346ZM157.263 93.5788C158.005 93.3854 158.51 93.0522 158.779 92.5578C159.048 92.0634 159.069 91.3971 158.854 90.5588L158.499 89.1831C158.284 88.3448 157.94 87.7644 157.467 87.4635C156.994 87.1625 156.381 87.1088 155.649 87.3023L153.574 87.8396L155.198 94.127L157.273 93.5896L157.263 93.5788ZM160.36 104.477C161.102 104.283 161.607 103.939 161.876 103.456C162.145 102.961 162.166 102.295 161.951 101.457L161.521 99.7694C161.306 98.9204 160.962 98.3507 160.489 98.0498C160.015 97.7489 159.403 97.6951 158.671 97.8886L156.327 98.4905L158.026 105.089L160.37 104.488L160.36 104.477Z" fill="#014B5B" fill-opacity="0.95"/>
<path d="M204.375 97.1363L205.945 96.8998L206.902 103.327L191.535 105.616L190.578 99.189L192.933 98.8344L191.836 95.7928L186.502 96.5881L186.341 99.8124L188.696 99.4577L189.653 105.885L176.243 107.884L175.286 101.457L176.856 101.22L179.899 76.1785L194.169 74.0505L204.386 97.1148L204.375 97.1363ZM186.749 92.3106L190.352 91.7732L187.577 84.2177L187.19 84.2715L186.749 92.3106Z" fill="#014B5B" fill-opacity="0.95"/>
<path d="M210.849 99.6082C207.859 97.4157 206.02 93.5573 205.353 88.0223C204.074 77.4575 208.58 71.5571 218.86 70.3104C221.355 70.0094 223.699 70.031 225.915 70.3749C228.13 70.7188 229.797 71.1917 230.937 71.8043L232.13 81.6383L222.688 82.7775L222.344 79.9509C222.226 78.9514 221.914 78.2528 221.409 77.8337C220.903 77.4145 220.204 77.264 219.312 77.3715C218.419 77.479 217.785 77.8014 217.387 78.3173C217 78.8439 216.86 79.607 216.989 80.5958L218.43 92.4718C218.548 93.4713 218.86 94.1807 219.366 94.5891C219.871 95.0082 220.57 95.1587 221.463 95.0512C222.355 94.9438 222.99 94.6213 223.387 94.1054C223.775 93.5788 223.914 92.8157 223.785 91.827L223.398 88.6457L232.84 87.5065L234.066 97.6951C233.077 98.5549 231.571 99.4147 229.528 100.275C227.485 101.134 225.237 101.715 222.774 102.005C217.817 102.607 213.838 101.811 210.849 99.6189V99.6082Z" fill="#014B5B" fill-opacity="0.95"/>
<path d="M266.488 89.6238L268.446 89.3228L269.424 95.7498L258.724 97.3727L251.003 86.12L249.422 87.8826L250.067 92.1172L251.949 91.8377L252.928 98.2648L238.12 100.511L237.141 94.084L239.099 93.7831L236.432 76.1571L234.474 76.458L233.496 70.031L248.304 67.7847L249.282 74.2118L247.4 74.4912L248.185 79.6608L253.476 73.5669L251.003 73.9431L250.024 67.5161L264.606 65.3128L265.585 71.7398L263.628 72.0408L257.907 78.4356L266.499 89.6345L266.488 89.6238Z" fill="#014B5B" fill-opacity="0.95"/>
<path d="M563.453 714.508H662.141L656.075 681.341C635.299 684.801 618.857 676.73 618.857 676.73L563.453 714.508Z" fill="#014B5B"/>
<path d="M591.445 691.54L598.08 697.301" stroke="#FFA93D" stroke-width="1.43" stroke-linecap="round" stroke-linejoin="round"/>
<path d="M596.758 687.338L603.404 693.109" stroke="#FFA93D" stroke-width="1.43" stroke-linecap="round" stroke-linejoin="round"/>
<path d="M602.081 683.135L608.716 688.907" stroke="#FFA93D" stroke-width="1.43" stroke-linecap="round" stroke-linejoin="round"/>
<path d="M572.874 709.317H658.699" stroke="white" stroke-width="1.43" stroke-linecap="round" stroke-linejoin="round"/>
<path d="M686.67 714.508H785.357L779.292 681.341C758.516 684.801 742.073 676.73 742.073 676.73L686.67 714.508Z" fill="#FFA93D"/>
<path d="M714.651 691.54L721.286 697.301" stroke="#FFA93D" stroke-width="1.43" stroke-linecap="round" stroke-linejoin="round"/>
<path d="M726.609 693.109L719.974 687.338" stroke="#FFA93D" stroke-width="1.43" stroke-linecap="round" stroke-linejoin="round"/>
<path d="M725.297 683.135L731.932 688.907" stroke="#FFA93D" stroke-width="1.43" stroke-linecap="round" stroke-linejoin="round"/>
<path d="M696.09 709.317H781.916" stroke="white" stroke-width="1.43" stroke-linecap="round" stroke-linejoin="round"/>
<path d="M588.187 302.694C556.689 461.973 605.404 682.265 605.404 682.265C626.922 686.865 660.076 683.146 660.076 683.146L649.591 404.785C664.603 496.451 728.62 680.986 728.62 680.986C745.934 686.714 785.357 681.857 785.357 681.857L715.587 302.705H588.198L588.187 302.694Z" fill="#FFA93D"/>
<path d="M639.439 323.415C636.364 357.829 643.289 387.245 643.289 387.245" stroke="#FFA93D" stroke-width="1.43" stroke-linecap="round" stroke-linejoin="round"/>
<path d="M631.643 322.652C628.664 350.918 639.246 358.011 639.246 358.011" stroke="#FFA93D" stroke-width="1.43" stroke-linecap="round" stroke-linejoin="round"/>
<path d="M664.937 383.666C674.142 377.088 683.949 371.338 694.187 366.513" stroke="#FFA93D" stroke-width="1.43" stroke-linecap="round" stroke-linejoin="round"/>
<path d="M631.31 392.705C621.9 384.644 610.802 378.561 598.941 374.971" stroke="#FFA93D" stroke-width="1.43" stroke-linecap="round" stroke-linejoin="round"/>
<path d="M628.03 399.325C623.448 397.659 618.738 396.337 613.953 395.381" stroke="#FFA93D" stroke-width="1.43" stroke-linecap="round" stroke-linejoin="round"/>
<path d="M686.906 325.328C687.906 332.787 692.079 339.762 698.176 344.179C704.274 348.597 712.21 350.381 719.619 348.994" stroke="#FFA93D" stroke-width="1.43" stroke-linecap="round" stroke-linejoin="round"/>
<path d="M601.855 320.223C599.726 327.564 594.187 333.84 587.165 336.871" stroke="#FFA93D" stroke-width="1.43" stroke-linecap="round" stroke-linejoin="round"/>
<path d="M709.156 349.747C728.373 503.694 774.012 676.73 774.012 676.73" stroke="#FFA93D" stroke-width="1.43" stroke-linecap="round" stroke-linejoin="round"/>
<path d="M635.181 408.375C637.504 559.528 648.559 676.73 648.559 676.73" stroke="#FFA93D" stroke-width="1.43" stroke-linecap="round" stroke-linejoin="round"/>
<path d="M841.567 391.415L840.417 386.417C853.977 373.445 852.149 363.342 850.611 356.905L811.08 365.266C811.951 367.953 804.445 381.796 805.596 391.802C806.747 401.797 815.403 416.983 820.984 408.912C826.856 411.696 829.448 405.548 829.448 405.548C836.47 408.332 836.76 403.237 836.76 403.237C848.202 405.064 849.934 385.547 841.567 391.415Z" fill="#FEC1B9"/>
<path d="M820.21 408.375C818.801 407.923 817.597 406.848 816.984 405.505" stroke="#014B5B" stroke-width="1.43" stroke-linecap="round" stroke-linejoin="round"/>
<path d="M828.727 404.774C827.211 404.441 825.856 403.441 825.082 402.098" stroke="#014B5B" stroke-width="1.43" stroke-linecap="round" stroke-linejoin="round"/>
<path d="M835.663 402.7C834.717 402.431 833.899 401.722 833.512 400.808" stroke="#014B5B" stroke-width="1.43" stroke-linecap="round" stroke-linejoin="round"/>
<path d="M841.298 391.77C840.954 392.597 840.459 393.371 839.846 394.027" stroke="#014B5B" stroke-width="1.43" stroke-linecap="round" stroke-linejoin="round"/>
<path d="M725.082 176.668L714.404 248.967C768.893 281.403 802.456 359.505 808.187 365.277C813.919 371.048 844.718 367.792 850.6 356.905C856.482 346.028 811.252 203.44 725.082 176.668Z" fill="#014B5B"/>
<path d="M550.947 34.3707C550.947 34.3707 563.787 18.5395 565.679 20.1194C567.561 21.6993 560.345 31.2646 560.345 31.2646C560.345 31.2646 573.078 18.3461 575.024 19.3564C576.96 20.3559 566.669 34.8113 566.669 34.8113C566.669 34.8113 580.939 18.8297 583.358 20.5278C585.778 22.226 572.271 37.4982 572.271 37.4982C572.271 37.4982 585.767 23.6231 588.305 25.9124C590.832 28.2123 570.615 50.0621 570.615 50.0621C577.218 47.128 583.057 49.0411 585.434 51.0939C586.251 51.8032 585.972 53.1359 584.95 53.4906C581.735 54.6191 574.734 57.263 573.68 59.1545C572.304 61.6265 566.776 65.1516 562.991 64.4423L526.589 53.8882C537.806 30.6413 550.957 34.3814 550.957 34.3814L550.947 34.3707Z" fill="#FEC1B9"/>
<path d="M562.087 44.2369C557.883 41.894 552.366 42.1304 548.366 44.8173" stroke="#014B5B" stroke-width="1.43" stroke-linecap="round" stroke-linejoin="round"/>
<path d="M618.502 165.029C597.134 160.536 550.258 146.038 550.258 146.038C550.258 146.038 568.583 70.0311 565.819 66.0437C563.055 62.0564 530.515 49.4388 524.987 53.5228C519.46 57.6069 488.51 135.365 499.555 168.586C510.609 201.807 599.016 229.009 599.016 229.009L618.491 165.029H618.502Z" fill="#014B5B"/>
<path d="M638.525 168.984C632.535 156.011 682.519 126.509 708.726 137.139C728.889 145.307 712.081 163.642 712.081 163.642C723.071 162.46 723.523 170.359 715.081 174.078C706.639 177.797 638.514 168.984 638.514 168.984H638.525Z" fill="#014B5B"/>
<path d="M725.093 328.004C711.361 335.764 598.274 329.81 584.843 325.178C571.411 320.567 574.121 316.537 581.95 309.637C581.95 309.637 578.573 304.725 584.843 299.824C584.843 299.824 589.004 226.042 618.513 165.029C630.471 167.35 643.171 168.156 655.774 168.586H655.785C667.797 168.994 679.723 169.08 690.842 169.822C703.736 170.693 715.522 172.455 725.093 176.657C725.093 176.657 715.017 257.178 725.093 298.9C725.093 298.9 730.212 301.974 725.771 311.184C725.771 311.184 738.815 320.234 725.093 328.004Z" fill="#014B5B"/>
<path d="M690.842 169.822C683.939 180.097 655.011 189.372 655.011 189.372C652.946 176.722 655.764 168.586 655.764 168.586H655.774C667.786 168.994 679.712 169.08 690.832 169.822H690.842Z" fill="#FEC1B9"/>
<path d="M700.177 307.917C693.628 300.362 689.573 290.764 688.724 280.812C688.659 280.049 687.455 280.038 687.519 280.812C688.401 291.108 692.563 300.964 699.327 308.766C699.832 309.347 700.682 308.498 700.177 307.917Z" fill="white"/>
<path d="M605.242 276.201C604.479 286.626 600.339 296.718 593.532 304.661C593.026 305.241 593.876 306.101 594.381 305.51C599.823 299.147 603.651 291.473 605.425 283.284C605.931 280.952 606.264 278.576 606.436 276.201C606.49 275.427 605.286 275.438 605.232 276.201H605.242Z" fill="white"/>
<path d="M717.049 248.967C711.791 246.033 706.532 243.099 701.263 240.154" stroke="#014B5B" stroke-width="1.43" stroke-linecap="round" stroke-linejoin="round"/>
<path d="M600.059 223.742C602.887 207.524 607.759 191.672 614.534 176.668" stroke="#014B5B" stroke-width="1.43" stroke-linecap="round" stroke-linejoin="round"/>
<path d="M670.163 223.656C659.054 235.135 642.859 240.261 627.03 242.454" stroke="#014B5B" stroke-width="1.43" stroke-linecap="round" stroke-linejoin="round"/>
<path d="M700.435 170.177C698.886 175.916 695.144 181.032 690.133 184.256C689.358 184.75 688.53 185.212 687.627 185.374C686.724 185.535 685.702 185.352 685.057 184.697C684.401 184.041 684.261 182.88 684.874 182.203C685.648 181.354 687.208 181.719 687.777 182.719C688.337 183.719 688.036 185.03 687.315 185.922C686.605 186.814 685.551 187.373 684.508 187.835C682.121 188.888 679.594 189.597 677.174 190.543C674.755 191.489 672.367 192.736 670.593 194.66C668.819 196.583 667.754 199.27 668.281 201.828" stroke="white" stroke-width="1.43" stroke-linecap="round" stroke-linejoin="round"/>
<path d="M652.215 166.619C652.451 170.972 651.559 175.368 649.645 179.291C649.322 179.968 648.946 180.634 648.376 181.118C647.806 181.601 646.967 181.838 646.289 181.526C645.601 181.225 645.236 180.269 645.676 179.667C646.085 179.119 646.956 179.108 647.526 179.484C648.096 179.86 648.408 180.527 648.601 181.182C649.236 183.267 648.978 185.513 648.537 187.652C648.096 189.791 647.483 191.908 647.397 194.079C647.322 196.261 647.859 198.572 649.419 200.098" stroke="white" stroke-width="1.43" stroke-linecap="round" stroke-linejoin="round"/>
<path d="M549.71 147.349L547.108 159.612" stroke="#014B5B" stroke-width="1.43" stroke-linecap="round" stroke-linejoin="round"/>
<path d="M697.37 112.43C695.531 103.682 684.175 101.693 684.175 101.693C684.175 101.693 677.733 86.0449 662.226 86.9691C646.72 87.8934 641.257 101.93 641.203 107.83C641.117 116.514 647.193 122.253 647.193 122.253L680.347 138.772C680.497 138.665 699.23 121.179 697.38 112.441L697.37 112.43Z" fill="#014B5B"/>
<path d="M685.11 101.016C685.11 101.016 686.283 98.6947 684.39 95.5994L683.336 102.456L685.25 102.843L692.111 100.844C692.111 100.844 688.659 97.6522 685.1 101.027L685.11 101.016Z" fill="#014B5B"/>
<path d="M659.57 154.012L656.957 173.1C673.056 175.884 686.756 174.443 686.756 174.443L678.4 111.592L648.365 109.464C638.342 131.013 639.407 151.422 659.57 154.012Z" fill="#FEC1B9"/>
<path d="M647.021 110.066C642.31 121.318 671.786 113.032 671.786 113.032C668.818 118.04 673.324 118.653 673.324 118.653L680.078 130.207L682.325 110.055L648.386 104.638L647.021 110.055V110.066Z" fill="#014B5B"/>
<path d="M659.57 154.012C664.173 154.292 668.205 152.701 668.205 152.701C666.108 158.172 658.807 159.558 658.807 159.558L659.57 154.002V154.012Z" fill="#014B5B"/>
<path d="M686.992 132.109C686.788 135.021 684.25 137.225 681.336 137.01C678.422 136.795 676.217 134.269 676.432 131.357C676.637 128.444 679.174 126.241 682.089 126.456C685.003 126.66 687.207 129.196 686.992 132.109Z" fill="#FEC1B9"/>
<path d="M654.527 128.659C654.183 128.498 653.753 128.627 653.505 128.917C653.258 129.207 653.193 129.615 653.269 129.992C653.344 130.357 653.559 130.69 653.817 130.97" stroke="#014B5B" stroke-width="1.43" stroke-linecap="round" stroke-linejoin="round"/>
<path d="M651.526 134.162L659.914 131.743C660.463 131.582 661.033 131.991 661.011 132.56C660.861 137.977 652.892 140.288 650.956 135.301C650.773 134.839 651.042 134.301 651.526 134.172V134.162Z" fill="white"/>
<path d="M661.183 124.94C661.775 124.091 662.839 123.608 663.872 123.704C664.904 123.801 665.85 124.478 666.281 125.424" stroke="#014B5B" stroke-width="1.43" stroke-linecap="round" stroke-linejoin="round"/>
<path d="M645.848 123.941C646.44 123.092 647.504 122.608 648.537 122.705C649.569 122.801 650.516 123.479 650.946 124.424" stroke="#014B5B" stroke-width="1.43" stroke-linecap="round" stroke-linejoin="round"/>
<path d="M654.817 111.302C654.355 115.805 652.161 119.276 649.924 119.051C647.687 118.825 646.257 114.977 646.719 110.474C647.182 105.971 649.376 102.499 651.612 102.725C653.849 102.951 655.279 106.798 654.817 111.302Z" stroke="white" stroke-width="1.43" stroke-miterlimit="10"/>
<path d="M668.195 112.688C667.732 117.202 665.539 120.663 663.302 120.437C661.065 120.211 659.635 116.364 660.097 111.86C660.559 107.357 662.753 103.886 664.99 104.111C667.227 104.337 668.657 108.185 668.195 112.688Z" stroke="white" stroke-width="1.43" stroke-miterlimit="10"/>
<path d="M668.195 112.688L693.53 124.424" stroke="white" stroke-width="1.43" stroke-miterlimit="10"/>
<path d="M654.806 110.635L660.119 110.99" stroke="white" stroke-width="1.43" stroke-miterlimit="10"/>
<path d="M350.669 714.508L251.68 679.546L269.521 648.432C289.136 659.265 308.492 656.987 308.492 656.987L350.669 714.508Z" fill="#014B5B"/>
<path d="M330.742 681.545L322.042 684.984" stroke="#014B5B" stroke-width="1.43" stroke-linecap="round" stroke-linejoin="round"/>
<path d="M326.903 675.451L318.192 678.89" stroke="#014B5B" stroke-width="1.43" stroke-linecap="round" stroke-linejoin="round"/>
<path d="M323.053 669.357L314.343 672.786" stroke="#014B5B" stroke-width="1.43" stroke-linecap="round" stroke-linejoin="round"/>
<path d="M343.055 705.963L256.971 675.558" stroke="white" stroke-width="1.43" stroke-linecap="round" stroke-linejoin="round"/>
<path d="M350.669 714.508H245.68L252.121 679.223C274.22 682.91 291.717 674.312 291.717 674.312L350.658 714.508H350.669Z" fill="#014B5B"/>
<path d="M349.454 713.68L295.61 676.966" stroke="#014B5B" stroke-width="1.43" stroke-linecap="round" stroke-linejoin="round"/>
<path d="M320.892 690.068L313.837 696.205" stroke="#014B5B" stroke-width="1.43" stroke-linecap="round" stroke-linejoin="round"/>
<path d="M315.235 685.597L308.17 691.734" stroke="#014B5B" stroke-width="1.43" stroke-linecap="round" stroke-linejoin="round"/>
<path d="M309.579 681.136L302.513 687.273" stroke="#014B5B" stroke-width="1.43" stroke-linecap="round" stroke-linejoin="round"/>
<path d="M340.646 708.983H249.347" stroke="white" stroke-width="1.43" stroke-linecap="round" stroke-linejoin="round"/>
<path d="M214.784 317.816H292.857L296.792 675.698C270.704 683.06 248.444 679.685 248.444 679.685C248.444 679.685 188.169 430.31 214.774 317.816H214.784Z" fill="#FF9827"/>
<path d="M338.807 317.816C338.807 317.816 381.371 438.081 374.004 481.447C366.638 524.813 311.708 662.866 311.708 662.866C291.738 664.703 262.671 647.733 262.671 647.733L304.417 487.176L251.207 317.816H338.797H338.807Z" fill="#FF9827"/>
<path d="M293.642 389.405L294.373 455.18" stroke="#014B5B" stroke-width="1.43" stroke-linecap="round" stroke-linejoin="round"/>
<path d="M281.264 375.541C269.306 367.867 254.659 364.492 240.55 366.158" stroke="#014B5B" stroke-width="1.43" stroke-linecap="round" stroke-linejoin="round"/>
<path d="M262.445 375.863C254.487 374.993 246.357 375.745 238.69 378.066" stroke="#014B5B" stroke-width="1.43" stroke-linecap="round" stroke-linejoin="round"/>
<path d="M297.857 378.937C309.966 372.08 324.064 368.77 337.968 369.544" stroke="#014B5B" stroke-width="1.43" stroke-linecap="round" stroke-linejoin="round"/>
<path d="M308.31 388.481C317.795 388.459 327.279 388.449 336.753 388.427" stroke="#014B5B" stroke-width="1.43" stroke-linecap="round" stroke-linejoin="round"/>
<path d="M302.169 421.723L346.174 484.306" stroke="#014B5B" stroke-width="1.43" stroke-linecap="round" stroke-linejoin="round"/>
<path d="M292.448 329.369L293.061 362.611" stroke="#014B5B" stroke-width="1.43" stroke-linecap="round" stroke-linejoin="round"/>
<path d="M297.857 329.369C297.857 329.369 304.32 355.239 292.964 356.98" stroke="#014B5B" stroke-width="1.43" stroke-linecap="round" stroke-linejoin="round"/>
<path d="M243.131 331.927C240.066 353.401 215.806 347.371 215.806 347.371" stroke="#014B5B" stroke-width="1.43" stroke-linecap="round" stroke-linejoin="round"/>
<path d="M256.971 675.558C230.334 511.712 222.355 348.145 222.355 348.145" stroke="#014B5B" stroke-width="1.43" stroke-linecap="round" stroke-linejoin="round"/>
<path d="M294.007 527.21L296.319 656.761" stroke="#014B5B" stroke-width="1.43" stroke-linecap="round" stroke-linejoin="round"/>
<path d="M502.49 280.296C502.49 280.296 477.391 305.069 448.721 324.963C425.88 340.815 400.77 353.551 384.296 348.156C366.09 342.191 353.572 327.918 345.152 313.162C341.818 307.326 339.13 301.415 336.968 295.901C331.258 281.338 329.323 269.602 329.323 269.602L329.462 268.753L330.409 263.293L342.689 192.478C355.056 197.766 365.326 208.492 373.617 220.905C377.005 225.967 380.069 231.309 382.812 236.672C384.059 239.122 385.253 241.583 386.371 244.023C396.716 266.496 401.502 287.282 401.502 287.282L429.171 272.912L482.037 245.452L502.501 280.285L502.49 280.296Z" fill="#FEC1B9"/>
<path d="M448.721 324.963C425.88 340.815 400.77 353.551 384.296 348.156C366.09 342.191 353.572 327.918 345.152 313.162C341.818 307.326 339.13 301.415 336.968 295.901C331.258 281.338 329.323 269.602 329.323 269.602L329.462 268.753L330.409 263.293L373.606 220.916C376.994 225.978 380.059 231.319 382.801 236.682C384.048 239.133 385.242 241.594 386.36 244.034C396.706 266.507 401.491 287.293 401.491 287.293L429.16 272.923C446.614 299.265 448.721 324.963 448.721 324.963Z" fill="#014B5B" fill-opacity="0.95"/>
<path d="M344.001 311.098C352.067 265.819 378.94 247.903 378.94 247.903L331.957 283.155C331.957 283.155 338.549 302.113 344.001 311.098Z" fill="#014B5B"/>
<path d="M520.729 230.288L522.17 253.416L513.018 258.457C517.266 266.507 510.459 282.08 502.48 280.296L480.854 246.065L520.729 230.277V230.288Z" fill="#FEC1B9"/>
<path d="M486.446 243.851C489.188 232.813 505.975 229.804 509.943 223.076C510.609 221.937 512.341 222.055 512.782 223.302C514.685 228.633 509.545 238.391 509.545 238.391C513.147 249.708 503.749 255.448 503.749 255.448L486.446 243.873V243.851Z" fill="#FEC1B9"/>
<path d="M487.392 199.883L539.021 198.163L517.384 222.356L518.116 263.207L531.138 268.248L501.523 269.355L513.072 263.702L513.212 222.732L487.392 199.883Z" fill="white"/>
<path d="M498.748 204.709L514.072 221.335H516.115L529.224 204.709C517.632 210.276 507.555 200.248 498.737 204.709H498.748Z" fill="#FFA93D"/>
<path d="M524.794 231.567C528.654 236.94 510.599 244.421 509.287 240.025C507.975 235.629 521.406 226.848 524.794 231.567Z" fill="#FEC1B9"/>
<path d="M525.718 237.553C529.579 242.927 511.523 250.407 510.211 246.011C508.899 241.616 522.331 232.835 525.718 237.553Z" fill="#FEC1B9"/>
<path d="M526.009 243.894C529.547 248.827 512.997 255.684 511.792 251.654C510.588 247.623 522.901 239.574 526.009 243.894Z" fill="#FEC1B9"/>
<path d="M525.858 248.58C529.192 253.212 513.631 259.661 512.491 255.867C511.362 252.084 522.933 244.507 525.858 248.58Z" fill="#FEC1B9"/>
<path d="M524.794 231.567C528.654 236.94 510.599 244.421 509.287 240.025C507.975 235.629 521.406 226.848 524.794 231.567Z" stroke="#014B5B" stroke-width="1.43" stroke-linecap="round" stroke-linejoin="round"/>
<path d="M512.352 241.347C510.76 242.97 509.814 244.689 510.212 246.022C510.545 247.14 511.975 247.494 513.846 247.312C517.04 246.968 521.535 245.076 524.148 242.744C526.009 241.089 526.912 239.23 525.708 237.553C525.213 236.876 524.525 236.467 523.697 236.306" stroke="#014B5B" stroke-width="1.43" stroke-linecap="round" stroke-linejoin="round"/>
<path d="M513.835 247.301C512.308 248.806 511.416 250.418 511.781 251.654C511.975 252.32 512.599 252.686 513.47 252.815C516.492 253.255 522.6 250.858 525.234 247.978C526.471 246.645 526.944 245.195 525.998 243.883C525.546 243.26 524.912 242.895 524.137 242.733" stroke="#014B5B" stroke-width="1.43" stroke-linecap="round" stroke-linejoin="round"/>
<path d="M513.481 252.815C512.642 253.911 512.222 254.996 512.491 255.867C513.631 259.65 529.181 253.212 525.858 248.58C525.686 248.344 525.482 248.129 525.245 247.989" stroke="#014B5B" stroke-width="1.43" stroke-linecap="round" stroke-linejoin="round"/>
<path d="M512.061 232.76C511.577 234.769 510.599 236.661 509.233 238.209C510.373 243.98 509.405 250.138 506.566 255.297" stroke="#014B5B" stroke-width="1.43" stroke-linecap="round" stroke-linejoin="round"/>
<path d="M386.371 244.034C365.025 252.965 346.636 279.597 336.968 295.912C331.258 281.349 329.323 269.613 329.323 269.613C331.043 238.198 333.162 207.632 342.689 192.488C362.423 200.915 376.79 223.194 386.371 244.034Z" fill="#24707B"/>
<path d="M240.368 177.904L233.41 233.265L231.775 246.226C231.775 246.226 229.496 248.773 225.538 252.707C223.581 254.652 221.215 256.952 218.516 259.435C215.785 261.961 212.72 264.691 209.386 267.474C192.309 281.79 168.339 297.771 148.068 295.934C129.529 294.236 116.764 266.948 108.731 240.852C101.182 216.262 97.8267 192.746 97.8267 192.746L136.002 179.753L151.305 215.639L160.349 236.822C160.349 236.822 168.683 227.461 180.824 216.176C183.781 213.425 186.954 210.566 190.298 207.696C192.546 205.762 194.869 203.827 197.245 201.914C211.139 190.737 226.85 180.559 240.368 177.904Z" fill="#FEC1B9"/>
<path d="M225.527 252.707C223.57 254.652 221.204 256.952 218.505 259.435C215.774 261.961 212.709 264.691 209.375 267.474C192.298 281.79 168.328 297.771 148.057 295.934C129.518 294.236 116.753 266.948 108.72 240.852C108.72 240.852 126.948 220.722 151.294 215.639L160.338 236.822C160.338 236.822 168.672 227.461 180.813 216.176C183.771 213.425 186.943 210.566 190.287 207.696C192.535 205.762 194.858 203.827 197.234 201.914L225.527 252.707Z" fill="#014B5B" fill-opacity="0.95"/>
<path d="M180.813 216.176C201.031 228.901 211.795 265.421 211.795 265.421L219.742 258.285L196.944 213.457L180.824 216.176H180.813Z" fill="#014B5B"/>
<path d="M160.209 237.596L166.446 251.804" stroke="#014B5B" stroke-width="1.43" stroke-linecap="round" stroke-linejoin="round"/>
<path d="M180.813 216.176C201.45 224.086 215.462 252.729 218.505 259.435C226.657 251.912 231.765 246.226 231.765 246.226L240.357 177.904C221.097 181.687 197.396 200.732 180.803 216.176H180.813Z" fill="#24707B"/>
<path d="M107.161 160.88C107.161 160.88 108.699 139.245 111.301 139.482C113.914 139.707 113.452 152.443 113.452 152.443C113.452 152.443 116.678 133.42 118.979 133.119C121.28 132.807 121.13 151.68 121.13 151.68C121.13 151.68 123.818 129.057 126.958 129.057C130.099 129.057 127.647 150.605 127.647 150.605C127.647 150.605 130.948 130.282 134.551 130.744C138.153 131.206 133.862 162.578 133.862 162.578C137.82 156.001 144.089 154.109 147.412 154.442C148.552 154.56 149.122 155.893 148.455 156.828C146.337 159.773 141.842 166.34 142.078 168.64C142.39 171.628 139.723 178.076 135.992 179.763L97.8265 192.746C93.4283 165.641 107.161 160.891 107.161 160.891V160.88Z" fill="#FEC1B9"/>
<path d="M122.894 162.686C117.796 163.212 113.129 166.77 111.28 171.552" stroke="#014B5B" stroke-width="1.43" stroke-linecap="round" stroke-linejoin="round"/>
<path d="M343.163 320.427L210.698 318.428L207.999 332.852C278.543 361.225 349.766 340.676 349.766 340.676L343.163 320.427Z" fill="white"/>
<path d="M347.604 321.803C284.673 347.877 207.999 319.654 207.999 319.654C210.074 287.755 240.368 177.904 240.368 177.904C246.282 176.905 252.057 176.26 257.649 175.905C259.81 175.776 261.961 175.679 264.069 175.626C279.328 175.239 293.082 176.958 304.675 179.42C307.761 180.064 310.708 180.774 313.472 181.526C331.721 186.395 342.69 192.478 342.69 192.478C325.516 270.258 347.604 321.803 347.604 321.803Z" fill="#24707B"/>
<path d="M264.069 175.636C279.328 175.249 293.082 176.969 304.675 179.43C310.686 207.256 271.242 220.314 264.069 175.636Z" fill="#FEC1B9"/>
<path d="M299.309 163.191L300.642 183.643C283.35 185.384 268.919 182.827 268.919 182.827L282.533 116.761H314.558C323.559 140.384 320.902 161.966 299.309 163.191Z" fill="#FEC1B9"/>
<path d="M276.048 148.209C266.574 138.192 271.865 123.425 271.865 123.425L290.448 121.157C289.297 127.595 284.081 129.519 284.081 129.519C283.694 134.506 277.941 136.601 277.941 136.601L276.048 148.209Z" fill="#014B5B"/>
<path d="M299.309 163.191C293.652 163.266 291.276 161.192 291.276 161.192C294.19 167.178 299.739 169.672 299.739 169.672L299.32 163.191H299.309Z" fill="#014B5B"/>
<path d="M271.865 137.88C271.865 140.986 274.392 143.512 277.5 143.512C280.608 143.512 283.135 140.986 283.135 137.88C283.135 134.774 280.608 132.249 277.5 132.249C274.392 132.249 271.865 134.774 271.865 137.88Z" fill="#FEC1B9"/>
<path d="M300.621 132.55C300.115 131.152 298.717 130.121 297.223 130.045C295.739 129.97 294.244 130.873 293.609 132.216" stroke="#014B5B" stroke-width="1.43" stroke-linecap="round" stroke-linejoin="round"/>
<path d="M316.924 132.55C316.418 131.152 315.02 130.121 313.525 130.045C312.031 129.97 310.547 130.873 309.912 132.216" stroke="#014B5B" stroke-width="1.43" stroke-linecap="round" stroke-linejoin="round"/>
<path d="M306.568 136.655C306.944 136.515 307.396 136.677 307.632 137.01C307.869 137.332 307.912 137.773 307.804 138.16C307.697 138.547 307.439 138.88 307.148 139.159" stroke="#014B5B" stroke-width="1.43" stroke-linecap="round" stroke-linejoin="round"/>
<path d="M309.342 142.717L300.631 139.514C300.062 139.31 299.427 139.697 299.406 140.298C299.158 146.059 307.439 149.111 309.869 143.963C310.095 143.48 309.847 142.899 309.353 142.717H309.342Z" fill="white"/>
<path d="M322.257 219.755C305.718 248.741 277.618 270.924 245.572 280.296" stroke="#014B5B" stroke-width="1.43" stroke-linecap="round" stroke-linejoin="round"/>
<path d="M309.235 274.557C296.083 282.467 280.307 285.928 265.047 284.251" stroke="#014B5B" stroke-width="1.43" stroke-linecap="round" stroke-linejoin="round"/>
<path d="M233.41 202.914C224.968 231.448 221.71 256.436 221.71 256.436" stroke="#014B5B" stroke-width="1.43" stroke-linecap="round" stroke-linejoin="round"/>
<path d="M338.678 286.11C331.398 251.202 340.345 204.3 340.345 204.3" stroke="#014B5B" stroke-width="1.43" stroke-linecap="round" stroke-linejoin="round"/>
<path d="M271.865 123.425L322.752 119.158C322.752 119.158 322.161 95.3737 308.933 93.998C292.663 92.3107 275.919 98.5335 271.854 123.414L271.865 123.425Z" fill="#014B5B"/>
<path d="M302.546 95.5994C294.039 100.973 296.351 118.836 296.351 118.836" stroke="#014B5B" stroke-width="1.43" stroke-linecap="round" stroke-linejoin="round"/>
<path d="M316.977 106.218C316.289 106.025 315.751 106.454 315.493 107.056C315.246 107.647 314.999 108.239 314.751 108.83C313.052 106.562 311.224 104.38 309.256 102.327C308.804 101.854 308.009 101.876 307.557 102.327C307.084 102.8 307.105 103.553 307.557 104.025C309.901 106.476 312.052 109.077 313.988 111.85C314.267 112.247 314.676 112.495 315.181 112.419C315.698 112.344 315.988 112.022 316.182 111.56C316.719 110.27 317.268 108.98 317.805 107.69C318.053 107.089 317.537 106.368 316.967 106.207L316.977 106.218Z" fill="white"/>
<path d="M302.546 120.835C302.546 120.835 348.841 109.571 351.142 117.352C353.443 125.134 302.546 120.835 302.546 120.835Z" fill="#FFA93D"/>
<path d="M198.17 714.529H958.396" stroke="#014B5B" stroke-width="1.43" stroke-linecap="round" stroke-linejoin="round"/>
<path d="M618.986 234.995C614.103 223.796 592.596 220.507 592.596 220.507C590.176 224.828 600.5 231.878 600.5 231.878C600.5 231.878 565.486 233.114 565.851 235.597C566.217 238.08 582.498 238.821 582.498 238.821C582.498 238.821 562.281 241.196 562.582 244.152C562.873 247.108 581.444 244.13 581.444 244.13C581.444 244.13 562.808 251.299 563.335 253.244C563.851 255.19 580.358 250.085 580.358 250.085C580.358 250.085 568.153 257.909 568.54 259.693C568.916 261.477 582.262 254.932 584.584 254.706C586.907 254.48 609.576 269.054 609.576 269.054L618.986 234.984V234.995Z" fill="#FEC1B9"/>
<path d="M608.458 238.918C603.027 239.122 597.683 241.293 593.661 244.947" stroke="#014B5B" stroke-width="1.43" stroke-linecap="round" stroke-linejoin="round"/>
<path d="M760.268 188.501C726.082 195.412 691.391 259.037 691.391 259.037L617.179 232.093L604.307 265.669C604.307 265.669 670.636 309.325 695.036 309.852C727.975 310.561 737.202 287.884 737.202 287.884L760.268 188.501Z" fill="#FEC1B9"/>
<path d="M699.456 245.657C718.533 258.554 726.728 281.962 726.728 281.962L727.954 259.08L701.768 241.648L699.456 245.646V245.657Z" fill="#014B5B"/>
<path d="M760.268 188.501C725.34 196.734 698.166 244.947 698.166 244.947C716.705 253.363 738.965 283.595 738.965 283.595L760.268 188.501Z" fill="#FF9827"/>
<path d="M892.529 714.508H872.279L868.29 707.532L862.365 714.508H794.003L830.63 689.53L849.32 676.784C849.32 676.784 862.225 684.414 882.969 680.954L884.334 685.758L892.529 714.508Z" fill="#FEC1B9"/>
<path d="M892.529 714.508H872.279L868.29 707.532L862.365 714.508H794.003L830.63 689.53C850.761 700.396 875.753 689.982 884.334 685.758L892.529 714.508Z" fill="#014B5B" fill-opacity="0.95"/>
<path d="M791.325 714.508H771.076L767.086 707.532L761.161 714.508H692.799L729.427 689.53L748.117 676.784C748.117 676.784 761.021 684.414 781.765 680.954L783.131 685.758L791.325 714.508Z" fill="#FEC1B9"/>
<path d="M791.325 714.508H771.076L767.086 707.532L761.161 714.508H692.799L729.427 689.53C749.558 700.396 774.549 689.982 783.131 685.758L791.325 714.508Z" fill="#014B5B" fill-opacity="0.95"/>
<path d="M829.91 298.244L719.038 295.633C665.173 387.954 736.492 683.802 736.492 683.802C751.343 694.098 784.916 685.661 784.916 685.661L785.142 462.402L836.728 682.34C864.268 691.121 885.539 683.125 885.539 683.125C885.539 683.125 910.52 432.857 829.899 298.244H829.91Z" fill="#FFCC4D"/>
<path d="M784.045 457.899V457.609L773.796 401.722" stroke="#014B5B" stroke-width="1.43" stroke-linecap="round" stroke-linejoin="round"/>
<path d="M760.269 313.646C760.623 343.492 764.43 370.414 764.43 370.414" stroke="#014B5B" stroke-width="1.43" stroke-linecap="round" stroke-linejoin="round"/>
<path d="M752.278 311.442C752.278 332.217 751.429 359.054 763.204 360.268" stroke="#014B5B" stroke-width="1.43" stroke-linecap="round" stroke-linejoin="round"/>
<path d="M766.678 425.807L743.052 470.485" stroke="#014B5B" stroke-width="1.43" stroke-linecap="round" stroke-linejoin="round"/>
<path d="M767.452 435.566L750.084 502.287" stroke="#014B5B" stroke-width="1.43" stroke-linecap="round" stroke-linejoin="round"/>
<path d="M808.821 314.806C816.252 346.415 840.846 338.999 840.846 338.999" stroke="#014B5B" stroke-width="1.43" stroke-linecap="round" stroke-linejoin="round"/>
<path d="M730.835 314.806C725.093 343.674 708.51 341.138 708.51 341.138" stroke="#014B5B" stroke-width="1.43" stroke-linecap="round" stroke-linejoin="round"/>
<path d="M830.447 341.202C898.529 506.188 878.914 678.826 878.914 678.826" stroke="#014B5B" stroke-width="1.43" stroke-linecap="round" stroke-linejoin="round"/>
<path d="M762.795 453.471L773.797 684.017" stroke="#014B5B" stroke-width="1.43" stroke-linecap="round" stroke-linejoin="round"/>
<path d="M714.791 303.919C744.622 320.073 821.361 311.582 834.523 306.273L828.361 295.644L719.383 295.095C716.834 298.277 714.802 303.919 714.802 303.919H714.791Z" fill="#014B5B" fill-opacity="0.95"/>
<path d="M795.541 313.398C793.637 308.648 791.723 303.887 789.82 299.136C789.379 298.029 788.271 297.127 787.002 297.535C785.927 297.879 784.927 299.158 785.4 300.351C787.303 305.101 789.217 309.863 791.121 314.613C791.562 315.72 792.669 316.623 793.938 316.214C795.014 315.87 796.014 314.591 795.541 313.398Z" fill="#FFCC4D"/>
<path d="M741.299 296.74C740.223 296.17 738.782 296.439 738.158 297.567L731.125 310.217C730.545 311.27 730.835 312.764 731.954 313.355C733.029 313.925 734.47 313.656 735.094 312.528L742.127 299.878C742.707 298.825 742.417 297.331 741.309 296.74H741.299Z" fill="#FFCC4D"/>
<path d="M878.366 152.121C873.635 151.057 868.731 152.121 863.913 152.68C860.225 153.11 855.923 153.002 853.514 150.175C851.052 147.274 851.772 142.781 853.643 139.471C855.515 136.161 858.343 133.452 860.106 130.088C862.967 124.629 862.623 117.632 859.235 112.484C855.848 107.336 849.557 104.24 843.406 104.703C836.642 105.208 830.867 109.528 825.35 113.483C819.834 117.428 813.586 121.329 806.822 120.781L805.252 145.103C803.284 147.08 804.284 150.616 806.338 152.497C808.402 154.367 811.188 155.195 813.607 156.581C816.027 157.967 818.285 160.407 817.919 163.169C817.543 166.007 814.683 167.737 812.112 168.994C807.983 171.015 803.649 173.036 800.724 176.582C797.799 180.129 796.778 185.728 799.735 189.243C802.359 192.36 806.94 192.757 811.016 192.929C826.985 193.585 842.954 194.24 858.923 194.896C858.967 186.588 863.859 178.485 871.194 174.583C874.334 172.907 877.839 171.971 880.958 170.23C884.077 168.5 886.905 165.641 887.206 162.084C887.615 157.258 883.076 153.206 878.345 152.142L878.366 152.121Z" fill="#014B5B"/>
<path d="M777.582 109.528C759.107 95.7714 746.428 126.359 767.355 142.147L804.832 152.11C848.75 144.651 802.197 98.4153 777.582 109.528Z" fill="#014B5B"/>
<path d="M784.389 163.588L782.776 187.061C798.982 188.695 814.037 187.663 814.037 187.663L800.111 120.072H770.087C761.645 142.212 764.14 162.438 784.378 163.588H784.389Z" fill="#FEC1B9"/>
<path d="M770.098 120.072C773.292 140.256 806.155 137.472 806.155 137.472L802.348 117.578L770.861 120.072" fill="#014B5B"/>
<path d="M784.389 163.588C789.691 163.664 791.927 161.718 791.927 161.718C789.196 167.329 784.002 169.661 784.002 169.661L784.4 163.588H784.389Z" fill="#014B5B"/>
<path d="M804.832 145.146C807.748 145.146 810.112 142.783 810.112 139.869C810.112 136.954 807.748 134.592 804.832 134.592C801.916 134.592 799.552 136.954 799.552 139.869C799.552 142.783 801.916 145.146 804.832 145.146Z" fill="#FEC1B9"/>
<path d="M783.164 134.871C783.637 133.56 784.949 132.592 786.347 132.528C787.745 132.464 789.132 133.302 789.734 134.559" stroke="#014B5B" stroke-width="1.43" stroke-linecap="round" stroke-linejoin="round"/>
<path d="M767.872 134.871C768.345 133.56 769.657 132.592 771.055 132.528C772.453 132.464 773.84 133.302 774.442 134.559" stroke="#014B5B" stroke-width="1.43" stroke-linecap="round" stroke-linejoin="round"/>
<path d="M777.582 138.729C777.227 138.59 776.808 138.751 776.582 139.063C776.356 139.363 776.324 139.783 776.421 140.148C776.528 140.513 776.754 140.825 777.034 141.083" stroke="#014B5B" stroke-width="1.43" stroke-linecap="round" stroke-linejoin="round"/>
<path d="M775.109 143.609L783.69 142.158C784.249 142.061 784.766 142.534 784.69 143.093C783.927 148.434 775.765 149.832 774.421 144.673C774.291 144.189 774.625 143.695 775.109 143.62V143.609Z" fill="white"/>
<path d="M789.207 133.699C789.207 137.773 786.831 141.072 783.895 141.072C780.959 141.072 778.583 137.773 778.583 133.699C778.583 129.626 780.959 126.327 783.895 126.327C786.831 126.327 789.207 129.626 789.207 133.699Z" stroke="white" stroke-width="1.43" stroke-linecap="round" stroke-linejoin="round"/>
<path d="M776.174 133.699C776.174 137.773 773.797 141.072 770.861 141.072C767.925 141.072 765.549 137.773 765.549 133.699C765.549 129.626 767.925 126.327 770.861 126.327C773.797 126.327 776.174 129.626 776.174 133.699Z" stroke="white" stroke-width="1.43" stroke-linecap="round" stroke-linejoin="round"/>
<path d="M844.997 185.481V258.221L829.91 298.244C781.314 302.092 736.298 304.478 719.039 295.633C724.609 266.496 728.9 256.512 728.9 256.512C717.952 247.054 733.384 224.634 742.966 220.873L760.258 188.501C765.817 186.814 771.431 185.546 776.969 184.589C794.003 181.634 810.402 181.73 822.834 182.633C836.212 183.6 844.997 185.47 844.997 185.47V185.481Z" fill="#FF9827"/>
<path d="M760.268 316.558C766.505 316.558 771.56 312.28 771.56 307.004C771.56 301.727 766.505 297.449 760.268 297.449C754.032 297.449 748.977 301.727 748.977 307.004C748.977 312.28 754.032 316.558 760.268 316.558Z" fill="white"/>
<path d="M822.834 182.644C794.745 216.176 780.163 195.874 776.969 184.6C794.003 181.644 810.403 181.741 822.834 182.644Z" fill="#FEC1B9"/>
<path d="M726.233 264.54C727.9 258.844 728.9 256.522 728.9 256.522C717.952 247.075 733.384 224.656 742.966 220.884L753.58 201.022" stroke="#014B5B" stroke-width="1.43" stroke-linecap="round" stroke-linejoin="round"/>
<path d="M841.502 259.51C841.502 259.51 841.438 259.532 841.416 259.542L819.403 242.766" stroke="#014B5B" stroke-width="1.43" stroke-linecap="round" stroke-linejoin="round"/>
<path d="M820.511 253.406C813.489 257.586 805.284 259.736 797.122 259.542" stroke="#014B5B" stroke-width="1.43" stroke-linecap="round" stroke-linejoin="round"/>
<path d="M942.545 283.596C939.329 321.19 836.728 339.676 836.728 339.676C814.854 341.879 808.983 315.526 808.983 315.526L878.613 281.973L875.828 280.135H875.818L865.096 273.095L842.599 258.328L844.997 185.481C878.786 193.918 913.703 219.884 931.199 247.151C934.189 251.804 936.673 256.49 938.555 261.133C941.684 268.861 943.158 276.47 942.545 283.585V283.596Z" fill="#FEC1B9"/>
<path d="M938.555 261.144C938.555 261.144 895.207 260.779 875.839 280.135H875.828L865.107 273.095L867.795 255.695L931.21 247.161C934.2 251.815 936.684 256.501 938.566 261.144H938.555Z" fill="#014B5B"/>
<path d="M875.839 280.135C891.797 254.717 934.103 251.116 934.103 251.116C906.724 207.417 871.204 191.747 844.997 185.492L840.846 259.553L875.839 280.146V280.135Z" fill="#FF9827"/>
<path d="M191.524 634.137C186.018 636.169 180.383 637.792 174.651 638.974C181.351 644.949 189.621 650.549 198.912 655.428C203.267 652.441 207.246 648.958 211.634 646.024C215.204 643.638 220.14 644.176 222.742 647.744C225.194 651.097 224.613 656.46 221.022 658.846C219.118 660.125 217.29 661.501 215.473 662.898C240.755 672.603 270.328 676.622 295.997 669.465C303.438 657.427 308.385 645.562 311.321 634.148C306.708 636.169 302.073 638.168 297.373 639.984C287.824 643.66 282.168 628.817 291.728 625.131C299.406 622.175 306.88 618.725 314.44 615.469C316.558 587.461 306.858 563.709 293.513 549.5C290.631 554.186 287.179 558.496 283.426 562.161C280.361 565.16 275.866 566.267 272.242 563.354C269.209 560.904 267.962 555.197 271.048 552.177C274.704 548.608 278.242 544.277 280.974 539.559C262.94 529.65 243.067 536.249 236.195 568.964C161.016 574.843 146.885 600.465 162.285 624.819C170.361 623.938 178.179 622.132 185.889 619.274C195.481 615.727 201.149 630.569 191.535 634.127L191.524 634.137ZM276.49 585.215C276.801 583.377 277.877 581.646 279.501 580.722C284.254 578.025 287.308 582.066 287.792 586.332C288.028 588.364 287.641 590.535 286.372 592.136C285.114 593.748 282.888 594.662 280.931 594.049C279.318 593.544 278.135 592.136 277.393 590.621C276.576 588.944 276.178 587.031 276.49 585.204V585.215ZM240.26 637.899C241.131 633.31 248.282 634.632 251.293 636.19C253.842 637.512 255.735 640.414 255.143 643.23C254.52 646.207 251.207 648.131 248.186 647.765C245.164 647.411 242.594 645.186 241.185 642.499C240.443 641.091 239.959 639.468 240.26 637.899Z" fill="#FFA93D"/>
<path d="M168.963 623.874C167.404 659.287 170.597 693.862 170.597 693.862" stroke="#014B5B" stroke-width="1.43" stroke-linecap="round" stroke-linejoin="round"/>
<path d="M261.66 609.741C234.077 548.329 196.234 535.851 181.835 559.979C178.06 566.31 175.286 574.875 173.296 584.634" stroke="#014B5B" stroke-width="1.43" stroke-linecap="round" stroke-linejoin="round"/>
<path d="M256.563 600.057C245.519 598.348 234.184 598.585 223.226 600.766" stroke="#014B5B" stroke-width="1.43" stroke-linecap="round" stroke-linejoin="round"/>
<path d="M248.981 585.838C249.756 575.682 252.95 565.719 258.219 557.013" stroke="#014B5B" stroke-width="1.43" stroke-linecap="round" stroke-linejoin="round"/>
<path d="M153.402 549.651C162.779 549.576 171.877 548.34 180.856 546.008C187.416 513.754 161.93 492.119 79.2549 516.312C58.6399 484.155 34.7451 485.155 19.4963 503.05C24.3247 506.983 29.8521 510.175 35.2075 512.507C39.7241 514.474 40.7134 521.084 38.4659 524.921C35.7882 529.499 30.5296 530.133 26.0453 528.177C20.5501 525.791 15.1195 522.578 10.1405 518.741C1.64504 539.323 0.924536 568.62 14.5495 597.671C23.9376 598.079 33.3148 598.735 42.7136 598.778C54.4137 598.843 54.403 616.995 42.7136 616.931C36.9496 616.898 31.1964 616.64 25.4538 616.35C33.2181 627.345 43.3158 638.017 56.1451 647.851C86.4599 645.1 116.409 628.817 139.476 608.204C136.97 607.451 134.454 606.71 131.905 606.129C127.109 605.022 124.302 599.541 125.561 594.963C126.894 590.094 131.959 587.525 136.734 588.622C142.616 589.976 148.283 592.093 154.144 593.512C162.08 584.537 168.64 575.209 173.372 566.116C166.769 567.18 160.091 567.739 153.391 567.793C141.68 567.89 141.713 549.737 153.391 549.64L153.402 549.651ZM44.0471 556.143C43.8643 558.066 43.176 560.044 41.6598 561.237C39.8209 562.677 37.0679 562.602 35.0785 561.387C33.0783 560.184 31.7878 558.023 31.2071 555.756C29.9919 551.005 31.605 545.449 37.7777 546.405C39.8854 546.728 41.735 548.146 42.8104 549.984C43.8858 551.822 44.2407 554.025 44.0471 556.143ZM103.763 596.854C103.343 600.304 101.504 603.711 98.4181 605.323C95.3425 606.925 91.0195 606.215 89.1483 603.292C87.374 600.53 88.2235 596.661 90.4065 594.221C92.9874 591.33 100.096 587.02 102.881 591.566C103.838 593.114 103.978 595.049 103.763 596.854Z" fill="#FFA93D"/>
<path d="M148.176 591.878C154.585 648.582 156.725 693.861 156.725 693.861" stroke="#014B5B" stroke-width="1.43" stroke-linecap="round" stroke-linejoin="round"/>
<path d="M68.3398 564.096C77.8031 482.876 116.151 455.803 133.981 506.048" stroke="#014B5B" stroke-width="1.43" stroke-linecap="round" stroke-linejoin="round"/>
<path d="M70.1035 551.822C83.8361 546.362 99.0526 544.686 113.645 547.029" stroke="#014B5B" stroke-width="1.43" stroke-linecap="round" stroke-linejoin="round"/>
<path d="M73.4049 534.604C68.5549 524.319 60.9305 515.355 51.5425 508.928" stroke="#014B5B" stroke-width="1.43" stroke-linecap="round" stroke-linejoin="round"/>
<path d="M111.548 679.46C150.23 674.355 214.795 677.257 214.795 677.257L205.568 714.895C178.706 722.407 125.249 717.313 125.249 717.313L111.548 679.46Z" fill="#014B5B"/>
<path d="M877.71 503.522L887.851 497.149C887.023 495.655 886.152 494.172 885.238 492.71L869.602 502.738L880.205 485.51C871.161 473.848 858.676 463.832 842.277 457.512L810.521 465.003C810.779 475.504 812.414 490.539 818.382 505.79L837.975 501.169L820.651 511.132C827.157 525.275 837.685 539.161 854.601 549.328L864.376 538.011L861.246 552.95C870.785 557.669 882.087 561.301 895.486 563.354C901.756 547.372 900.681 522.782 889.669 500.61L877.71 503.512V503.522Z" fill="#24707B"/>
<path d="M837.534 468.324C904.111 531.649 910.036 632.686 910.036 632.686" stroke="#014B5B" stroke-width="1.43" stroke-linecap="round" stroke-linejoin="round"/>
<path d="M967.827 522.481L979.57 524.964C979.796 522.599 979.936 520.256 979.989 517.935L963.708 513.948L979.968 511.433C979.29 491.7 973.451 474.891 969.784 466.164L955.869 465.498C923.801 484.424 910.359 512.701 908.187 539.344L930.178 541.386L907.864 546.867C907.778 569.115 915.273 589.449 925.877 601.153C961.375 581.141 975.172 554.81 978.893 530.295L967.816 522.46L967.827 522.481Z" fill="#24707B"/>
<path d="M925.027 632.686C919.101 571.372 953.266 481.103 953.266 481.103" stroke="#014B5B" stroke-width="1.43" stroke-linecap="round" stroke-linejoin="round"/>
<path d="M949.825 628.409L948.685 639.877L948.18 645.025L947.524 651.57L947.018 656.664L941.394 713.583C918.908 718.807 898.003 713.583 898.003 713.583L891.196 662.608L890.497 657.384L888.69 643.961L888.013 638.877L886.754 629.451C915.521 620.305 949.814 628.398 949.814 628.398L949.825 628.409Z" fill="#FFA93D"/>
<path d="M948.685 639.887L948.18 645.035C945.567 644.348 942.943 643.756 940.297 643.241C923.285 639.941 905.606 640.21 888.701 643.982L888.023 638.899C892.088 638.017 896.196 637.319 900.336 636.824C916.446 634.836 932.953 635.9 948.685 639.898V639.887Z" fill="white"/>
<path d="M947.535 651.581L947.029 656.675C943.362 656.503 939.695 656.353 936.028 656.277C920.919 655.976 905.283 657.041 891.196 662.618L890.497 657.395C891.239 657.105 891.97 656.847 892.723 656.589C910.316 650.484 929.113 650.699 947.524 651.57L947.535 651.581Z" fill="white"/>
</g>
<defs>
<filter id="filter0_d_2_452" x="0" y="0" width="984" height="727" filterUnits="userSpaceOnUse" color-interpolation-filters="sRGB">
<feFlood flood-opacity="0" result="BackgroundImageFix"/>
<feColorMatrix in="SourceAlpha" type="matrix" values="0 0 0 0 0 0 0 0 0 0 0 0 0 0 0 0 0 0 127 0" result="hardAlpha"/>
<feOffset dy="4"/>
<feGaussianBlur stdDeviation="2"/>
<feComposite in2="hardAlpha" operator="out"/>
<feColorMatrix type="matrix" values="0 0 0 0 0 0 0 0 0 0 0 0 0 0 0 0 0 0 0.25 0"/>
<feBlend mode="normal" in2="BackgroundImageFix" result="effect1_dropShadow_2_452"/>
<feBlend mode="normal" in="SourceGraphic" in2="effect1_dropShadow_2_452" result="shape"/>
</filter>
<clipPath id="clip0_2_452">
<rect width="976" height="719" fill="white" transform="translate(4)"/>
</clipPath>
</defs>
</svg>
